<?xml version="1.0" encoding="UTF-8" standalone="no"?>
<!-- Created with Inkscape (http://www.inkscape.org/) -->

<svg
   xmlns:dc="http://purl.org/dc/elements/1.1/"
   xmlns:cc="http://creativecommons.org/ns#"
   xmlns:rdf="http://www.w3.org/1999/02/22-rdf-syntax-ns#"
   xmlns:svg="http://www.w3.org/2000/svg"
   xmlns="http://www.w3.org/2000/svg"
   xmlns:sodipodi="http://sodipodi.sourceforge.net/DTD/sodipodi-0.dtd"
   xmlns:inkscape="http://www.inkscape.org/namespaces/inkscape"
   width="3608.1909"
   height="1624.3796"
   viewBox="0 0 954.6672 429.7838"
   version="1.1"
   id="svg928"
   sodipodi:docname="conversion_image.svg"
   inkscape:version="0.92.3 (2405546, 2018-03-11)"
   inkscape:export-filename="/home/jo/projets/exadrums/exadrums.com/assets/conversion_background.png"
   inkscape:export-xdpi="96"
   inkscape:export-ydpi="96">
  <sodipodi:namedview
     id="base"
     pagecolor="#ffffff"
     bordercolor="#666666"
     borderopacity="1.0"
     inkscape:pageopacity="0.0"
     inkscape:pageshadow="2"
     inkscape:zoom="0.079999996"
     inkscape:cx="266.7782"
     inkscape:cy="451.90841"
     inkscape:document-units="mm"
     inkscape:current-layer="layer1"
     showgrid="false"
     inkscape:window-width="1366"
     inkscape:window-height="721"
     inkscape:window-x="0"
     inkscape:window-y="21"
     inkscape:window-maximized="1"
     showguides="false"
     fit-margin-top="0"
     fit-margin-left="0"
     fit-margin-bottom="0"
     fit-margin-right="0"
     inkscape:measure-start="3634.81,-182.116"
     inkscape:measure-end="0,0"
     units="px">
    <inkscape:grid
       originy="1532.0656"
       originx="-1851.796"
       id="grid1724"
       type="xygrid" />
  </sodipodi:namedview>
  <defs
     id="defs922">
    <marker
       inkscape:stockid="Arrow1Send"
       orient="auto"
       refY="0"
       refX="0"
       id="Arrow1Send"
       style="overflow:visible"
       inkscape:isstock="true">
      <path
         id="path2291"
         d="M 0,0 5,-5 -12.5,0 5,5 Z"
         style="fill:#000000;fill-opacity:1;fill-rule:evenodd;stroke:#000000;stroke-width:1.00000003pt;stroke-opacity:1"
         transform="matrix(-0.2,0,0,-0.2,-1.2,0)"
         inkscape:connector-curvature="0" />
    </marker>
    <marker
       inkscape:isstock="true"
       style="overflow:visible"
       id="marker2636"
       refX="0"
       refY="0"
       orient="auto"
       inkscape:stockid="TriangleInL">
      <path
         transform="scale(-0.8)"
         style="fill:#ffffff;fill-opacity:1;fill-rule:evenodd;stroke:#ffffff;stroke-width:1.00000003pt;stroke-opacity:1"
         d="M 5.77,0 -2.88,5 V -5 Z"
         id="path2634"
         inkscape:connector-curvature="0" />
    </marker>
    <marker
       inkscape:stockid="Arrow2Lstart"
       orient="auto"
       refY="0"
       refX="0"
       id="Arrow2Lstart"
       style="overflow:visible"
       inkscape:isstock="true">
      <path
         id="path2488"
         style="fill:#ffffff;fill-opacity:1;fill-rule:evenodd;stroke:#ffffff;stroke-width:0.625;stroke-linejoin:round;stroke-opacity:1"
         d="M 8.7185878,4.0337352 -2.2072895,0.01601326 8.7185884,-4.0017078 c -1.7454984,2.3720609 -1.7354408,5.6174519 -6e-7,8.035443 z"
         transform="matrix(1.1,0,0,1.1,1.1,0)"
         inkscape:connector-curvature="0" />
    </marker>
    <marker
       inkscape:stockid="Arrow1Mstart"
       orient="auto"
       refY="0"
       refX="0"
       id="Arrow1Mstart"
       style="overflow:visible"
       inkscape:isstock="true">
      <path
         id="path2112"
         d="M 0,0 5,-5 -12.5,0 5,5 Z"
         style="fill:#ffffff;fill-opacity:1;fill-rule:evenodd;stroke:#ffffff;stroke-width:1.00000003pt;stroke-opacity:1"
         transform="matrix(0.4,0,0,0.4,4,0)"
         inkscape:connector-curvature="0" />
    </marker>
    <marker
       inkscape:stockid="Arrow1Sstart"
       orient="auto"
       refY="0"
       refX="0"
       id="Arrow1Sstart"
       style="overflow:visible"
       inkscape:isstock="true">
      <path
         id="path2118"
         d="M 0,0 5,-5 -12.5,0 5,5 Z"
         style="fill:#ffffff;fill-opacity:1;fill-rule:evenodd;stroke:#ffffff;stroke-width:1.00000003pt;stroke-opacity:1"
         transform="matrix(0.2,0,0,0.2,1.2,0)"
         inkscape:connector-curvature="0" />
    </marker>
    <inkscape:perspective
       sodipodi:type="inkscape:persp3d"
       inkscape:vp_x="0 : 179.60136 : 1"
       inkscape:vp_y="0 : 1000 : 0"
       inkscape:vp_z="755.49776 : 179.60136 : 1"
       inkscape:persp3d-origin="377.74888 : 119.73424 : 1"
       id="perspective2335" />
    <marker
       inkscape:stockid="DotS"
       orient="auto"
       refY="0"
       refX="0"
       id="marker4700"
       style="overflow:visible"
       inkscape:isstock="true">
      <path
         id="path4698"
         d="m -2.5,-1 c 0,2.76 -2.24,5 -5,5 -2.76,0 -5,-2.24 -5,-5 0,-2.76 2.24,-5 5,-5 2.76,0 5,2.24 5,5 z"
         style="fill:#eeefed;fill-opacity:1;fill-rule:evenodd;stroke:#eeefed;stroke-width:1.00000003pt;stroke-opacity:1"
         transform="matrix(0.2,0,0,0.2,1.48,0.2)"
         inkscape:connector-curvature="0" />
    </marker>
    <marker
       inkscape:stockid="DotS"
       orient="auto"
       refY="0"
       refX="0"
       id="marker4636"
       style="overflow:visible"
       inkscape:isstock="true">
      <path
         id="path4634"
         d="m -2.5,-1 c 0,2.76 -2.24,5 -5,5 -2.76,0 -5,-2.24 -5,-5 0,-2.76 2.24,-5 5,-5 2.76,0 5,2.24 5,5 z"
         style="fill:#eeefed;fill-opacity:1;fill-rule:evenodd;stroke:#eeefed;stroke-width:1.00000003pt;stroke-opacity:1"
         transform="matrix(0.2,0,0,0.2,1.48,0.2)"
         inkscape:connector-curvature="0" />
    </marker>
    <marker
       inkscape:stockid="DotL"
       orient="auto"
       refY="0"
       refX="0"
       id="marker4540"
       style="overflow:visible"
       inkscape:isstock="true">
      <path
         id="path4538"
         d="m -2.5,-1 c 0,2.76 -2.24,5 -5,5 -2.76,0 -5,-2.24 -5,-5 0,-2.76 2.24,-5 5,-5 2.76,0 5,2.24 5,5 z"
         style="fill:#eeefed;fill-opacity:1;fill-rule:evenodd;stroke:#eeefed;stroke-width:1.00000003pt;stroke-opacity:1"
         transform="matrix(0.8,0,0,0.8,5.92,0.8)"
         inkscape:connector-curvature="0" />
    </marker>
    <marker
       inkscape:stockid="Arrow1Lend"
       orient="auto"
       refY="0"
       refX="0"
       id="marker2489"
       style="overflow:visible"
       inkscape:isstock="true">
      <path
         inkscape:connector-curvature="0"
         id="path2487"
         d="M 0,0 5,-5 -12.5,0 5,5 Z"
         style="fill:#000000;fill-opacity:1;fill-rule:evenodd;stroke:#000000;stroke-width:1.00000003pt;stroke-opacity:1"
         transform="matrix(-0.8,0,0,-0.8,-10,0)" />
    </marker>
    <marker
       inkscape:isstock="true"
       style="overflow:visible"
       id="marker2068"
       refX="0"
       refY="0"
       orient="auto"
       inkscape:stockid="StopL">
      <path
         inkscape:connector-curvature="0"
         transform="scale(0.8)"
         style="fill:none;fill-opacity:0.75;fill-rule:evenodd;stroke:#000000;stroke-width:1.00000003pt;stroke-opacity:1"
         d="M 0,5.65 V -5.65"
         id="path2066" />
    </marker>
    <marker
       inkscape:isstock="true"
       style="overflow:visible"
       id="StopL"
       refX="0"
       refY="0"
       orient="auto"
       inkscape:stockid="StopL">
      <path
         inkscape:connector-curvature="0"
         transform="scale(0.8)"
         style="fill:none;fill-opacity:0.75;fill-rule:evenodd;stroke:#000000;stroke-width:1.00000003pt;stroke-opacity:1"
         d="M 0,5.65 V -5.65"
         id="path2045" />
    </marker>
    <clipPath
       id="clipPath1402"
       clipPathUnits="userSpaceOnUse">
      <rect
         style="opacity:1;fill:#eeeeec;fill-opacity:0.53703703;stroke:none;stroke-width:0.22761193;stroke-linecap:round;stroke-linejoin:round;stroke-miterlimit:4;stroke-dasharray:none;stroke-dashoffset:0;stroke-opacity:1;paint-order:normal"
         id="rect1404"
         width="105.03958"
         height="105.03958"
         x="340.59384"
         y="78.957016"
         ry="0" />
    </clipPath>
    <clipPath
       id="clipPath1480"
       clipPathUnits="userSpaceOnUse">
      <rect
         style="opacity:0.5;fill:#75507b;fill-opacity:1;stroke:none;stroke-width:0.22761193;stroke-linecap:round;stroke-linejoin:round;stroke-miterlimit:4;stroke-dasharray:none;stroke-dashoffset:0;stroke-opacity:1;paint-order:normal"
         id="rect1482"
         width="105.03958"
         height="105.03958"
         x="224.12019"
         y="61.615372"
         ry="0" />
    </clipPath>
    <clipPath
       id="clipPath1270"
       clipPathUnits="userSpaceOnUse">
      <rect
         y="-612.07312"
         x="73.782211"
         height="90.550911"
         width="90.550911"
         id="rect1272"
         style="opacity:1;fill:#f57900;fill-opacity:0.43921569;stroke:none;stroke-width:0.0589079;stroke-linecap:round;stroke-linejoin:round;stroke-miterlimit:4;stroke-dasharray:none;stroke-dashoffset:0;stroke-opacity:1;paint-order:normal" />
    </clipPath>
    <clipPath
       id="clipPath3520"
       clipPathUnits="userSpaceOnUse">
      <path
         style="opacity:1;fill:none;fill-opacity:1;stroke:#ff5d00;stroke-width:0.2;stroke-linecap:round;stroke-linejoin:round;stroke-miterlimit:4;stroke-dasharray:none;stroke-dashoffset:0;stroke-opacity:1;paint-order:normal"
         id="path3522"
         sodipodi:type="arc"
         sodipodi:cx="555.99512"
         sodipodi:cy="-851.77594"
         sodipodi:rx="16.404167"
         sodipodi:ry="16.404167"
         sodipodi:start="0.19843521"
         sodipodi:end="0.19837761"
         sodipodi:open="true"
         d="m 572.07737,-848.5421 a 16.404167,16.404167 0 0 1 -19.31586,12.84846 16.404167,16.404167 0 0 1 -12.84874,-19.31568 16.404167,16.404167 0 0 1 19.3155,-12.84902 16.404167,16.404167 0 0 1 12.84929,19.31532" />
    </clipPath>
    <clipPath
       id="clipPath3537"
       clipPathUnits="userSpaceOnUse">
      <path
         d="m 572.07737,-875.00053 a 16.404167,16.404167 0 0 1 -19.31586,12.84846 16.404167,16.404167 0 0 1 -12.84874,-19.31569 16.404167,16.404167 0 0 1 19.3155,-12.84901 16.404167,16.404167 0 0 1 12.84929,19.31531"
         sodipodi:open="true"
         sodipodi:end="0.19837761"
         sodipodi:start="0.19843521"
         sodipodi:ry="16.404167"
         sodipodi:rx="16.404167"
         sodipodi:cy="-878.23438"
         sodipodi:cx="555.99512"
         sodipodi:type="arc"
         id="path3539"
         style="opacity:1;fill:none;fill-opacity:1;stroke:#ff5d00;stroke-width:0.2;stroke-linecap:round;stroke-linejoin:round;stroke-miterlimit:4;stroke-dasharray:none;stroke-dashoffset:0;stroke-opacity:1;paint-order:normal" />
    </clipPath>
    <clipPath
       id="clipPath3552"
       clipPathUnits="userSpaceOnUse">
      <path
         style="opacity:1;fill:none;fill-opacity:1;stroke:#ff5d00;stroke-width:0.2;stroke-linecap:round;stroke-linejoin:round;stroke-miterlimit:4;stroke-dasharray:none;stroke-dashoffset:0;stroke-opacity:1;paint-order:normal"
         id="path3554"
         sodipodi:type="arc"
         sodipodi:cx="555.99512"
         sodipodi:cy="-841.19257"
         sodipodi:rx="16.404167"
         sodipodi:ry="16.404167"
         sodipodi:start="0.19843521"
         sodipodi:end="0.19837761"
         sodipodi:open="true"
         d="m 572.07737,-837.95872 a 16.404167,16.404167 0 0 1 -19.31586,12.84846 16.404167,16.404167 0 0 1 -12.84874,-19.31569 16.404167,16.404167 0 0 1 19.3155,-12.84901 16.404167,16.404167 0 0 1 12.84929,19.31531" />
    </clipPath>
    <clipPath
       id="clipPath1480-6"
       clipPathUnits="userSpaceOnUse">
      <rect
         style="opacity:0.5;fill:#75507b;fill-opacity:1;stroke:none;stroke-width:0.22761193;stroke-linecap:round;stroke-linejoin:round;stroke-miterlimit:4;stroke-dasharray:none;stroke-dashoffset:0;stroke-opacity:1;paint-order:normal"
         id="rect1482-1"
         width="105.03958"
         height="105.03958"
         x="224.12019"
         y="61.615372"
         ry="0" />
    </clipPath>
    <filter
       id="filter5508"
       inkscape:label="Blur"
       style="color-interpolation-filters:sRGB">
      <feGaussianBlur
         id="feGaussianBlur5506"
         result="fbSourceGraphic"
         stdDeviation="0.5 0.5" />
      <feColorMatrix
         id="feColorMatrix5510"
         values="0 0 0 -1 0 0 0 0 -1 0 0 0 0 -1 0 0 0 0 1 0"
         in="fbSourceGraphic"
         result="fbSourceGraphicAlpha" />
      <feGaussianBlur
         in="fbSourceGraphic"
         result="blur"
         stdDeviation="0.5 0.5"
         id="feGaussianBlur5512" />
    </filter>
    <clipPath
       id="clipPath1270-1"
       clipPathUnits="userSpaceOnUse">
      <rect
         y="-612.07312"
         x="73.782211"
         height="90.550911"
         width="90.550911"
         id="rect1272-1"
         style="opacity:1;fill:#f57900;fill-opacity:0.43921569;stroke:none;stroke-width:0.0589079;stroke-linecap:round;stroke-linejoin:round;stroke-miterlimit:4;stroke-dasharray:none;stroke-dashoffset:0;stroke-opacity:1;paint-order:normal" />
    </clipPath>
    <clipPath
       id="clipPath3552-3"
       clipPathUnits="userSpaceOnUse">
      <path
         style="opacity:1;fill:none;fill-opacity:1;stroke:#ff5d00;stroke-width:0.2;stroke-linecap:round;stroke-linejoin:round;stroke-miterlimit:4;stroke-dasharray:none;stroke-dashoffset:0;stroke-opacity:1;paint-order:normal"
         id="path3554-5"
         sodipodi:type="arc"
         sodipodi:cx="555.99512"
         sodipodi:cy="-841.19257"
         sodipodi:rx="16.404167"
         sodipodi:ry="16.404167"
         sodipodi:start="0.19843521"
         sodipodi:end="0.19837761"
         sodipodi:open="true"
         d="m 572.07737,-837.95872 a 16.404167,16.404167 0 0 1 -19.31586,12.84846 16.404167,16.404167 0 0 1 -12.84874,-19.31569 16.404167,16.404167 0 0 1 19.3155,-12.84901 16.404167,16.404167 0 0 1 12.84929,19.31531" />
    </clipPath>
    <clipPath
       id="clipPath3537-6"
       clipPathUnits="userSpaceOnUse">
      <path
         d="m 572.07737,-875.00053 a 16.404167,16.404167 0 0 1 -19.31586,12.84846 16.404167,16.404167 0 0 1 -12.84874,-19.31569 16.404167,16.404167 0 0 1 19.3155,-12.84901 16.404167,16.404167 0 0 1 12.84929,19.31531"
         sodipodi:open="true"
         sodipodi:end="0.19837761"
         sodipodi:start="0.19843521"
         sodipodi:ry="16.404167"
         sodipodi:rx="16.404167"
         sodipodi:cy="-878.23438"
         sodipodi:cx="555.99512"
         sodipodi:type="arc"
         id="path3539-2"
         style="opacity:1;fill:none;fill-opacity:1;stroke:#ff5d00;stroke-width:0.2;stroke-linecap:round;stroke-linejoin:round;stroke-miterlimit:4;stroke-dasharray:none;stroke-dashoffset:0;stroke-opacity:1;paint-order:normal" />
    </clipPath>
    <clipPath
       id="clipPath3520-9"
       clipPathUnits="userSpaceOnUse">
      <path
         style="opacity:1;fill:none;fill-opacity:1;stroke:#ff5d00;stroke-width:0.2;stroke-linecap:round;stroke-linejoin:round;stroke-miterlimit:4;stroke-dasharray:none;stroke-dashoffset:0;stroke-opacity:1;paint-order:normal"
         id="path3522-1"
         sodipodi:type="arc"
         sodipodi:cx="555.99512"
         sodipodi:cy="-851.77594"
         sodipodi:rx="16.404167"
         sodipodi:ry="16.404167"
         sodipodi:start="0.19843521"
         sodipodi:end="0.19837761"
         sodipodi:open="true"
         d="m 572.07737,-848.5421 a 16.404167,16.404167 0 0 1 -19.31586,12.84846 16.404167,16.404167 0 0 1 -12.84874,-19.31568 16.404167,16.404167 0 0 1 19.3155,-12.84902 16.404167,16.404167 0 0 1 12.84929,19.31532" />
    </clipPath>
    <clipPath
       id="clipPath1270-9"
       clipPathUnits="userSpaceOnUse">
      <rect
         y="-612.07312"
         x="73.782211"
         height="90.550911"
         width="90.550911"
         id="rect1272-3"
         style="opacity:1;fill:#f57900;fill-opacity:0.43921569;stroke:none;stroke-width:0.0589079;stroke-linecap:round;stroke-linejoin:round;stroke-miterlimit:4;stroke-dasharray:none;stroke-dashoffset:0;stroke-opacity:1;paint-order:normal" />
    </clipPath>
    <clipPath
       id="clipPath1270-9-6"
       clipPathUnits="userSpaceOnUse">
      <rect
         y="-612.07312"
         x="73.782211"
         height="90.550911"
         width="90.550911"
         id="rect1272-3-9"
         style="opacity:1;fill:#f57900;fill-opacity:0.43921569;stroke:none;stroke-width:0.0589079;stroke-linecap:round;stroke-linejoin:round;stroke-miterlimit:4;stroke-dasharray:none;stroke-dashoffset:0;stroke-opacity:1;paint-order:normal" />
    </clipPath>
    <clipPath
       id="clipPath3552-2"
       clipPathUnits="userSpaceOnUse">
      <path
         style="opacity:1;fill:none;fill-opacity:1;stroke:#ff5d00;stroke-width:0.2;stroke-linecap:round;stroke-linejoin:round;stroke-miterlimit:4;stroke-dasharray:none;stroke-dashoffset:0;stroke-opacity:1;paint-order:normal"
         id="path3554-54"
         sodipodi:type="arc"
         sodipodi:cx="555.99512"
         sodipodi:cy="-841.19257"
         sodipodi:rx="16.404167"
         sodipodi:ry="16.404167"
         sodipodi:start="0.19843521"
         sodipodi:end="0.19837761"
         sodipodi:open="true"
         d="m 572.07737,-837.95872 a 16.404167,16.404167 0 0 1 -19.31586,12.84846 16.404167,16.404167 0 0 1 -12.84874,-19.31569 16.404167,16.404167 0 0 1 19.3155,-12.84901 16.404167,16.404167 0 0 1 12.84929,19.31531" />
    </clipPath>
    <clipPath
       id="clipPath3537-7"
       clipPathUnits="userSpaceOnUse">
      <path
         d="m 572.07737,-875.00053 a 16.404167,16.404167 0 0 1 -19.31586,12.84846 16.404167,16.404167 0 0 1 -12.84874,-19.31569 16.404167,16.404167 0 0 1 19.3155,-12.84901 16.404167,16.404167 0 0 1 12.84929,19.31531"
         sodipodi:open="true"
         sodipodi:end="0.19837761"
         sodipodi:start="0.19843521"
         sodipodi:ry="16.404167"
         sodipodi:rx="16.404167"
         sodipodi:cy="-878.23438"
         sodipodi:cx="555.99512"
         sodipodi:type="arc"
         id="path3539-4"
         style="opacity:1;fill:none;fill-opacity:1;stroke:#ff5d00;stroke-width:0.2;stroke-linecap:round;stroke-linejoin:round;stroke-miterlimit:4;stroke-dasharray:none;stroke-dashoffset:0;stroke-opacity:1;paint-order:normal" />
    </clipPath>
    <clipPath
       id="clipPath3520-4"
       clipPathUnits="userSpaceOnUse">
      <path
         style="opacity:1;fill:none;fill-opacity:1;stroke:#ff5d00;stroke-width:0.2;stroke-linecap:round;stroke-linejoin:round;stroke-miterlimit:4;stroke-dasharray:none;stroke-dashoffset:0;stroke-opacity:1;paint-order:normal"
         id="path3522-3"
         sodipodi:type="arc"
         sodipodi:cx="555.99512"
         sodipodi:cy="-851.77594"
         sodipodi:rx="16.404167"
         sodipodi:ry="16.404167"
         sodipodi:start="0.19843521"
         sodipodi:end="0.19837761"
         sodipodi:open="true"
         d="m 572.07737,-848.5421 a 16.404167,16.404167 0 0 1 -19.31586,12.84846 16.404167,16.404167 0 0 1 -12.84874,-19.31568 16.404167,16.404167 0 0 1 19.3155,-12.84902 16.404167,16.404167 0 0 1 12.84929,19.31532" />
    </clipPath>
    <clipPath
       id="clipPath3552-3-7"
       clipPathUnits="userSpaceOnUse">
      <path
         style="opacity:1;fill:none;fill-opacity:1;stroke:#ff5d00;stroke-width:0.2;stroke-linecap:round;stroke-linejoin:round;stroke-miterlimit:4;stroke-dasharray:none;stroke-dashoffset:0;stroke-opacity:1;paint-order:normal"
         id="path3554-5-2"
         sodipodi:type="arc"
         sodipodi:cx="555.99512"
         sodipodi:cy="-841.19257"
         sodipodi:rx="16.404167"
         sodipodi:ry="16.404167"
         sodipodi:start="0.19843521"
         sodipodi:end="0.19837761"
         sodipodi:open="true"
         d="m 572.07737,-837.95872 a 16.404167,16.404167 0 0 1 -19.31586,12.84846 16.404167,16.404167 0 0 1 -12.84874,-19.31569 16.404167,16.404167 0 0 1 19.3155,-12.84901 16.404167,16.404167 0 0 1 12.84929,19.31531" />
    </clipPath>
    <filter
       style="color-interpolation-filters:sRGB"
       inkscape:label="Blur"
       id="filter2689">
      <feGaussianBlur
         stdDeviation="0.5 0.5"
         result="fbSourceGraphic"
         id="feGaussianBlur2687" />
      <feColorMatrix
         result="fbSourceGraphicAlpha"
         in="fbSourceGraphic"
         values="0 0 0 -1 0 0 0 0 -1 0 0 0 0 -1 0 0 0 0 1 0"
         id="feColorMatrix2691" />
      <feGaussianBlur
         id="feGaussianBlur2693"
         stdDeviation="0.5 0.5"
         result="fbSourceGraphic"
         in="fbSourceGraphic" />
      <feColorMatrix
         result="fbSourceGraphicAlpha"
         in="fbSourceGraphic"
         values="0 0 0 -1 0 0 0 0 -1 0 0 0 0 -1 0 0 0 0 1 0"
         id="feColorMatrix2695" />
      <feGaussianBlur
         id="feGaussianBlur2697"
         stdDeviation="0.5 0.5"
         result="blur"
         in="fbSourceGraphic" />
    </filter>
    <pattern
       patternUnits="userSpaceOnUse"
       width="667.84741"
       height="667.84741"
       patternTransform="matrix(0.26458333,0,0,0.26458333,21.897041,917.77441)"
       id="pattern3630">
      <g
         id="g3628"
         transform="matrix(3.7795276,0,0,3.7795276,-82.760471,-3468.7537)">
        <rect
           style="opacity:1;fill:none;fill-opacity:1;stroke:none;stroke-width:3.29870725;stroke-linecap:butt;stroke-linejoin:round;stroke-miterlimit:4;stroke-dasharray:none;stroke-dashoffset:0;stroke-opacity:1;paint-order:normal"
           id="rect3612"
           width="176.70129"
           height="176.70129"
           x="21.897041"
           y="917.77441" />
        <g
           style="fill:#25424f;fill-opacity:1"
           transform="matrix(2.2803874,0,0,2.2803874,-30.526367,899.32149)"
           id="g2871">
          <g
             transform="matrix(0.2751814,0.15887607,-0.15887607,0.2751814,78.082504,-89.520023)"
             id="g2859"
             style="fill:#25424f;fill-opacity:1">
            <path
               sodipodi:nodetypes="ccccc"
               inkscape:connector-curvature="0"
               id="path2847"
               d="m 160,305.43507 c 2.99449,-4.10559 1.94371,-8.05444 5,-8.05444 h 10 c 2.94787,0 1.99341,3.96683 5,8.05657 z"
               style="fill:#25424f;fill-opacity:1;fill-rule:evenodd;stroke:none;stroke-width:1px;stroke-linecap:butt;stroke-linejoin:miter;stroke-opacity:1" />
            <path
               style="fill:#25424f;fill-opacity:1;fill-rule:evenodd;stroke:none;stroke-width:1px;stroke-linecap:butt;stroke-linejoin:miter;stroke-opacity:1"
               d="m 160,489.28276 c 2.99449,4.10559 1.94371,8.05444 5,8.05444 h 10 c 2.94787,0 1.99341,-3.96683 5,-8.05657 z"
               id="path2849"
               inkscape:connector-curvature="0"
               sodipodi:nodetypes="ccccc" />
            <path
               style="fill:#25424f;fill-opacity:1;fill-rule:evenodd;stroke:none;stroke-width:1px;stroke-linecap:butt;stroke-linejoin:miter;stroke-opacity:1"
               d="m 244.60838,342.73674 c 5.05279,0.54051 7.94721,-2.34392 9.47535,0.30291 l 5,8.66025 c 1.47394,2.55293 -2.43867,3.70976 -4.47719,8.35841 z"
               id="path2851"
               inkscape:connector-curvature="0"
               sodipodi:nodetypes="ccccc" />
            <path
               sodipodi:nodetypes="ccccc"
               inkscape:connector-curvature="0"
               id="path2853"
               d="m 85.391612,434.66058 c -2.0583,4.6461 -6.003495,5.71053 -4.47535,8.35735 l 5,8.66026 c 1.473935,2.55293 4.432081,-0.25708 9.477195,0.30184 z"
               style="fill:#25424f;fill-opacity:1;fill-rule:evenodd;stroke:none;stroke-width:1px;stroke-linecap:butt;stroke-linejoin:miter;stroke-opacity:1" />
            <path
               sodipodi:nodetypes="ccccc"
               inkscape:connector-curvature="0"
               id="path2855"
               d="m 254.6084,434.66394 c 2.0583,4.6461 6.0035,5.71052 4.47535,8.35735 l -5,8.66025 c -1.47393,2.55293 -4.43208,-0.25707 -9.47719,0.30184 z"
               style="fill:#25424f;fill-opacity:1;fill-rule:evenodd;stroke:none;stroke-width:1px;stroke-linecap:butt;stroke-linejoin:miter;stroke-opacity:1" />
            <path
               style="fill:#25424f;fill-opacity:1;fill-rule:evenodd;stroke:none;stroke-width:1px;stroke-linecap:butt;stroke-linejoin:miter;stroke-opacity:1"
               d="m 95.391632,342.74009 c -5.05279,0.54051 -7.947205,-2.34391 -9.47535,0.30291 l -5,8.66026 c -1.473935,2.55293 2.438671,3.70975 4.477195,8.35841 z"
               id="path2857"
               inkscape:connector-curvature="0"
               sodipodi:nodetypes="ccccc" />
          </g>
          <path
             sodipodi:nodetypes="csscccccccccscc"
             inkscape:connector-curvature="0"
             id="path2861"
             d="m 61.603439,17.444011 c -16.218694,0.07117 -29.327735,13.290647 -29.262988,29.509365 0.06475,16.218723 13.278835,29.332481 29.497578,29.274159 16.218744,-0.05832 29.338463,-13.267018 29.286568,-29.485783 -6.6e-5,-0.0077 -2.42e-4,-0.01532 -5.29e-4,-0.02297 1.17e-4,-0.0079 1.17e-4,-0.01571 0,-0.02357 C 91.046365,30.47654 77.822112,17.372837 61.603421,17.444005 Z m 0.0068,4.234592 c 15.360299,-0.0674 25.205636,9.663783 25.279124,25.024046 9.8e-5,0.0064 3.99e-4,0.03584 5.29e-4,0.04411 0.04924,15.360347 -9.697123,25.190978 -25.057471,25.24621 -15.360328,0.0552 -25.196064,-9.6861 -25.257382,-25.046419 -0.06132,-15.360321 9.674926,-25.200547 25.035216,-25.26795 z"
             style="color:#000000;font-style:normal;font-variant:normal;font-weight:normal;font-stretch:normal;font-size:medium;line-height:normal;font-family:sans-serif;text-indent:0;text-align:start;text-decoration:none;text-decoration-line:none;text-decoration-style:solid;text-decoration-color:#000000;letter-spacing:normal;word-spacing:normal;text-transform:none;writing-mode:lr-tb;direction:ltr;baseline-shift:baseline;text-anchor:start;white-space:normal;clip-rule:nonzero;display:inline;overflow:visible;visibility:visible;opacity:1;isolation:auto;mix-blend-mode:normal;color-interpolation:sRGB;color-interpolation-filters:linearRGB;solid-color:#000000;solid-opacity:1;fill:#25424f;fill-opacity:1;fill-rule:nonzero;stroke:none;stroke-width:1.41111112;stroke-linecap:round;stroke-linejoin:round;stroke-miterlimit:4;stroke-dasharray:none;stroke-dashoffset:0;stroke-opacity:1;color-rendering:auto;image-rendering:auto;shape-rendering:auto;text-rendering:auto;enable-background:accumulate" />
          <path
             sodipodi:nodetypes="scccccccccs"
             inkscape:connector-curvature="0"
             id="path2863"
             d="m 34.749037,18.545592 c -0.337042,-0.02726 -0.675117,0.08254 -0.953877,0.355609 -0.557518,0.557521 -0.422433,1.35665 0.112331,1.90279 0.443738,0.45512 1.118959,0.448081 1.118959,0.448081 l 8.17591,9.294871 26.216413,26.216413 h 4.477082 L 45.441523,28.308404 36.146029,20.132491 c 0,0 -0.0043,-0.652467 -0.44808,-1.11896 -0.275915,-0.275915 -0.61187,-0.440665 -0.948912,-0.467939 z"
             style="fill:#25424f;fill-opacity:1;fill-rule:evenodd;stroke:none;stroke-width:0.28222224px;stroke-linecap:butt;stroke-linejoin:miter;stroke-opacity:1" />
          <path
             sodipodi:nodetypes="scccccccccs"
             inkscape:connector-curvature="0"
             id="path2865"
             d="m 88.71601,18.545592 c -0.337039,0.02726 -0.672999,0.192024 -0.948915,0.467939 -0.443722,0.466493 -0.448074,1.11896 -0.448074,1.11896 l -9.295493,8.175913 -28.454333,28.454952 h 4.47708 l 26.216414,-26.216413 8.175914,-9.294871 c 0,0 0.675216,0.007 1.118958,-0.448081 0.534763,-0.54614 0.669848,-1.345269 0.112331,-1.90279 -0.278762,-0.27307 -0.61684,-0.38288 -0.953882,-0.355609 z"
             style="fill:#25424f;fill-opacity:1;fill-rule:evenodd;stroke:none;stroke-width:0.28222224px;stroke-linecap:butt;stroke-linejoin:miter;stroke-opacity:1" />
          <path
             sodipodi:nodetypes="ccscc"
             inkscape:connector-curvature="0"
             id="path2867"
             d="M 73.89586,56.763356 H 69.418773 L 87.186827,74.53141 c 1.681975,1.681975 3.936154,-0.54093 2.23854,-2.238539 z"
             style="fill:#25424f;fill-opacity:1;fill-rule:evenodd;stroke:none;stroke-width:0.28222224px;stroke-linecap:butt;stroke-linejoin:miter;stroke-opacity:1" />
          <path
             sodipodi:nodetypes="ccccc"
             inkscape:connector-curvature="0"
             id="path2869"
             d="M 49.5692,56.763356 34.03968,72.292871 c -1.698243,1.696977 0.556567,3.920514 2.238539,2.238539 L 54.046275,56.763356 Z"
             style="fill:#25424f;fill-opacity:1;fill-rule:evenodd;stroke:none;stroke-width:0.28222224px;stroke-linecap:butt;stroke-linejoin:miter;stroke-opacity:1" />
        </g>
      </g>
    </pattern>
  </defs>
  <metadata
     id="metadata925">
    <rdf:RDF>
      <cc:Work
         rdf:about="">
        <dc:format>image/svg+xml</dc:format>
        <dc:type
           rdf:resource="http://purl.org/dc/dcmitype/StillImage" />
        <dc:title></dc:title>
      </cc:Work>
    </rdf:RDF>
  </metadata>
  <g
     transform="translate(-1851.7956,-1399.2817)"
     id="layer1"
     inkscape:groupmode="layer"
     inkscape:label="Layer 1">
    <flowRoot
       transform="scale(0.26458333)"
       style="font-style:normal;font-weight:normal;font-size:16px;line-height:1.25;font-family:sans-serif;letter-spacing:0px;word-spacing:0px;fill:#000000;fill-opacity:1;stroke:none"
       id="flowRoot1074"
       xml:space="preserve"><flowRegion
         id="flowRegion1076"><rect
           y="341.87381"
           x="380.42346"
           height="48.08326"
           width="33.941124"
           id="rect1078" /></flowRegion><flowPara
         id="flowPara1080" /></flowRoot>    <g
       id="g1336"
       transform="translate(-34.788414,-767.20682)" />
    <flowRoot
       transform="matrix(0.26458333,0,0,0.26458333,-39.568424,-929.27607)"
       style="font-style:normal;font-weight:normal;font-size:16px;line-height:1.25;font-family:sans-serif;letter-spacing:0px;word-spacing:0px;fill:#000000;fill-opacity:1;stroke:none"
       id="flowRoot2603"
       xml:space="preserve"><flowRegion
         id="flowRegion2605"><rect
           y="826.76764"
           x="-259"
           height="22"
           width="38"
           id="rect2607" /></flowRegion><flowPara
         id="flowPara2609" /></flowRoot>    <g
       transform="translate(187.46164,-767.20682)"
       id="g2890" />
    <g
       transform="translate(409.71178,-767.20682)"
       id="g3012" />
    <g
       id="g3132"
       transform="translate(631.96192,-767.20682)" />
    <g
       transform="translate(-9.9366728,-5.2916667)"
       id="g1633" />
    <text
       xml:space="preserve"
       style="font-style:normal;font-variant:normal;font-weight:300;font-stretch:normal;font-size:2.11666656px;line-height:1.25;font-family:ubuntu;-inkscape-font-specification:'ubuntu Light';font-variant-ligatures:normal;font-variant-caps:normal;font-variant-numeric:normal;font-feature-settings:normal;text-align:start;letter-spacing:0px;word-spacing:0px;writing-mode:lr-tb;text-anchor:start;fill:#000000;fill-opacity:1;stroke:none;stroke-width:0.26458332"
       x="892.00006"
       y="-392.58823"
       id="text2052"><tspan
         sodipodi:role="line"
         id="tspan2050"
         x="892.00006"
         y="-390.61444"
         style="stroke-width:0.26458332" /></text>
    <g
       id="g2421" />
    <text
       id="text3720"
       y="1827.2998"
       x="1843.9088"
       style="font-style:normal;font-variant:normal;font-weight:300;font-stretch:normal;font-size:25.22411728px;line-height:1.25;font-family:ubuntu;-inkscape-font-specification:'ubuntu Light';font-variant-ligatures:normal;font-variant-caps:normal;font-variant-numeric:normal;font-feature-settings:normal;text-align:start;letter-spacing:0px;word-spacing:0px;writing-mode:lr-tb;text-anchor:start;fill:#ef2929;fill-opacity:1;stroke:none;stroke-width:3.15301466"
       xml:space="preserve"><tspan
         style="font-style:normal;font-variant:normal;font-weight:normal;font-stretch:normal;font-size:117.71255493px;font-family:ubuntu;-inkscape-font-specification:ubuntu;fill:#d23232;fill-opacity:1;stroke-width:3.15301466"
         y="1827.2998"
         x="1843.9088"
         id="tspan3718"
         sodipodi:role="line"><tspan
   style="fill:#25424f;fill-opacity:1"
   id="tspan985">MAKE</tspan> YOUR <tspan
   style="fill:#25424f;fill-opacity:1"
   id="tspan991">OWN</tspan></tspan></text>
    <g
       id="g991"
       transform="translate(1.4018962e-4)">
      <path
         style="opacity:1;fill:#25424f;fill-opacity:1;stroke:none;stroke-width:2.20585275;stroke-linecap:butt;stroke-linejoin:round;stroke-miterlimit:4;stroke-dasharray:none;stroke-dashoffset:0;stroke-opacity:1;paint-order:normal"
         d="m 2002.2955,1399.2817 c -8.087,0 -135.5899,73.6138 -139.6333,80.6173 -4.0435,7.0035 -4.0435,154.2306 0,161.2341 4.0434,7.0035 131.5463,80.6173 139.6333,80.6173 8.087,0 135.5893,-73.6138 139.6328,-80.6173 4.0435,-7.0036 4.0435,-154.2306 0,-161.2341 -4.0435,-7.0035 -131.5458,-80.6173 -139.6328,-80.6173 z m 8.2935,117.7711 h 13.5594 l -29.9925,86.9254 h -13.7392 z m -35.8619,21.6416 3.5021,10.8655 -28.1972,10.9554 28.1972,10.9559 -3.5021,10.8655 -38.6136,-16.2538 v -11.1347 z m 55.1238,0 38.6137,16.2538 v 11.1347 l -38.6137,16.2538 -3.5021,-10.8655 28.1967,-10.9559 -28.1967,-10.9554 z"
         id="path984"
         inkscape:connector-curvature="0" />
      <path
         inkscape:connector-curvature="0"
         id="path3731"
         d="m 2329.1293,1399.2822 c -8.087,0 -135.5899,73.6138 -139.6334,80.6173 -4.0434,7.0035 -4.0434,154.2311 0,161.2346 4.0435,7.0035 131.5464,80.6173 139.6334,80.6173 8.087,0 135.5893,-73.6138 139.6328,-80.6173 4.0435,-7.0035 4.0435,-154.2311 0,-161.2346 -4.0435,-7.0035 -131.5458,-80.6173 -139.6328,-80.6173 z m 52.3425,113.5254 c 7.3776,0 13.3661,5.9885 13.3661,13.3661 0,7.3776 -5.9885,13.3661 -13.3661,13.3661 -4.939,0 -9.2458,-2.6905 -11.5595,-6.6782 h -26.7487 l -28.7471,29.9336 h -26.0723 c -2.3135,3.988 -6.6207,6.6782 -11.56,6.6782 -7.3776,0 -13.3625,-5.9885 -13.3625,-13.3661 0,-7.3775 5.9849,-13.363 13.3625,-13.363 4.9419,0 9.2504,2.6933 11.5631,6.6848 h 20.3719 l 28.7641,-29.9367 h 32.4254 c 2.3126,-3.991 6.6216,-6.6848 11.5631,-6.6848 z m 0.6827,8.0398 c -2.5855,-0.071 -4.8468,1.7299 -5.3558,4.2659 -0.5771,2.8763 1.2864,5.6755 4.1626,6.2533 2.8763,0.5792 5.6782,-1.2825 6.2575,-4.1589 0.5792,-2.8774 -1.2849,-5.6797 -4.1626,-6.2575 -0.2969,-0.06 -0.5988,-0.092 -0.9017,-0.1023 z m -105.7734,29.6189 v 5e-4 c -2.5843,-0.07 -4.8439,1.7302 -5.3527,4.2648 -0.5772,2.8752 1.2847,5.6745 4.1595,6.2539 2.8763,0.5793 5.6777,-1.2826 6.257,-4.1589 0.5792,-2.8775 -1.2849,-5.6797 -4.1626,-6.2575 -0.297,-0.06 -0.5983,-0.093 -0.9012,-0.1028 z m -0.3225,31.5479 c 4.8442,0 9.066,2.6403 11.3342,6.5521 h 83.4704 c 2.2678,-3.9124 6.4931,-6.5521 11.3378,-6.5521 7.234,0 13.1041,5.8702 13.1041,13.1041 0,7.2338 -5.8701,13.1072 -13.1041,13.1072 -4.8457,0 -9.0703,-2.6414 -11.3378,-6.5551 h -83.4673 c -2.2675,3.9139 -6.4914,6.5551 -11.3373,6.5551 -7.2338,0 -13.1046,-5.8734 -13.1046,-13.1072 0,-7.2339 5.8708,-13.1041 13.1046,-13.1041 z m 0.1049,7.7381 a 5.3128931,5.3128931 0 0 0 -5.3521,4.2622 5.3128931,5.3128931 0 0 0 4.1589,6.257 5.3128931,5.3128931 0 0 0 6.2575,-4.1625 5.3128931,5.3128931 0 0 0 -4.163,-6.2539 5.3128931,5.3128931 0 0 0 -0.9013,-0.1023 z m 105.9905,0 a 5.3128931,5.3128931 0 0 0 -5.3558,4.2622 5.3128931,5.3128931 0 0 0 4.1625,6.257 5.3128931,5.3128931 0 0 0 6.257,-4.1625 5.3128931,5.3128931 0 0 0 -4.1625,-6.2539 5.3128931,5.3128931 0 0 0 -0.9012,-0.1023 z"
         style="opacity:1;fill:#25424f;fill-opacity:1;stroke:none;stroke-width:2.20585275;stroke-linecap:butt;stroke-linejoin:round;stroke-miterlimit:4;stroke-dasharray:none;stroke-dashoffset:0;stroke-opacity:1;paint-order:normal" />
      <path
         inkscape:connector-curvature="0"
         id="path3741"
         d="m 2655.9626,1399.2827 c -8.087,0 -135.5894,73.6138 -139.6329,80.6173 -4.0435,7.0036 -4.0435,154.2311 0,161.2346 4.0435,7.0036 131.5459,80.6173 139.6329,80.6173 8.0869,0 135.5898,-73.6137 139.6333,-80.6173 4.0435,-7.0035 4.0435,-154.231 0,-161.2346 -4.0435,-7.0035 -131.5464,-80.6173 -139.6333,-80.6173 z m -54.343,118.0786 h 108.6983 c 6.4627,0 11.8262,5.3748 11.8262,11.837 v 62.6489 c 0,6.4622 -5.3635,11.8256 -11.8262,11.8256 h -108.6983 c -6.4628,0 -11.8266,-5.3634 -11.8266,-11.8256 v -62.6489 c 0,-6.4622 5.3638,-11.837 11.8266,-11.837 z m 8.6843,11.7864 c -0.8885,6e-4 -1.4325,0.5503 -1.4325,1.4335 v 59.8852 c 0,0.8837 0.5479,1.4335 1.4325,1.4335 h 91.3453 c 0.8894,0 1.434,-0.5498 1.434,-1.4335 v -59.8852 c 0,-0.8837 -0.5494,-1.4335 -1.434,-1.4335 h -91.3438 z"
         style="opacity:1;fill:#25424f;fill-opacity:1;stroke:none;stroke-width:2.20585275;stroke-linecap:butt;stroke-linejoin:round;stroke-miterlimit:4;stroke-dasharray:none;stroke-dashoffset:0;stroke-opacity:1;paint-order:normal" />
    </g>
  </g>
</svg>
