<?xml version="1.0" encoding="UTF-8" standalone="no"?>
<!-- Generator: Adobe Illustrator 16.0.4, SVG Export Plug-In . SVG Version: 6.00 Build 0)  -->

<svg
   xmlns:dc="http://purl.org/dc/elements/1.1/"
   xmlns:cc="http://creativecommons.org/ns#"
   xmlns:rdf="http://www.w3.org/1999/02/22-rdf-syntax-ns#"
   xmlns:svg="http://www.w3.org/2000/svg"
   xmlns="http://www.w3.org/2000/svg"
   xmlns:sodipodi="http://sodipodi.sourceforge.net/DTD/sodipodi-0.dtd"
   xmlns:inkscape="http://www.inkscape.org/namespaces/inkscape"
   version="1.1"
   id="Layer_1"
   x="0px"
   y="0px"
   width="100"
   height="100"
   viewBox="0 0 100 99.999998"
   enable-background="new 0 0 306 344.35"
   xml:space="preserve"
   sodipodi:docname="cpp_logo.svg"
   inkscape:version="0.92.3 (2405546, 2018-03-11)"><metadata
   id="metadata25"><rdf:RDF><cc:Work
       rdf:about=""><dc:format>image/svg+xml</dc:format><dc:type
         rdf:resource="http://purl.org/dc/dcmitype/StillImage" /><dc:title></dc:title></cc:Work></rdf:RDF></metadata><defs
   id="defs23" /><sodipodi:namedview
   pagecolor="#ffffff"
   bordercolor="#666666"
   borderopacity="1"
   objecttolerance="10"
   gridtolerance="10"
   guidetolerance="10"
   inkscape:pageopacity="0"
   inkscape:pageshadow="2"
   inkscape:window-width="1366"
   inkscape:window-height="721"
   id="namedview21"
   showgrid="false"
   inkscape:zoom="3.8769205"
   inkscape:cx="76.300476"
   inkscape:cy="68.010998"
   inkscape:window-x="0"
   inkscape:window-y="21"
   inkscape:window-maximized="1"
   inkscape:current-layer="Layer_1" />





<path
   d="m 93.008422,74.83108 c 0.692545,-1.199622 1.122897,-2.551252 1.122897,-3.765008 V 28.933929 c 0,-1.213756 -0.429775,-2.565097 -1.122608,-3.764719 L 49.999999,50.000145 Z"
   id="path2"
   inkscape:connector-curvature="0"
   style="fill:#00599c;stroke-width:0.28843999" /><path
   d="M 53.821829,98.751697 90.309489,77.68577 c 1.051076,-0.606878 2.006389,-1.65478 2.698933,-2.85469 L 49.999999,50.000145 6.9915762,74.831368 c 0.6925445,1.199622 1.6481462,2.247813 2.6989331,2.854402 L 46.178169,98.751697 c 2.101863,1.213755 5.541798,1.213755 7.64366,0 z"
   id="path4"
   inkscape:connector-curvature="0"
   style="fill:#004482;stroke-width:0.28843999" /><path
   d="m 93.008711,25.168921 c -0.692833,-1.19991 -1.648435,-2.247813 -2.699222,-2.85469 L 53.821829,1.2483038 c -2.101862,-1.21375556 -5.541797,-1.21375556 -7.64366,0 L 9.6905093,22.314231 c -2.1021507,1.213467 -3.82183,4.192475 -3.82183,6.619698 v 42.132143 c 0,1.213756 0.430064,2.565386 1.1228969,3.765008 L 49.999999,50.000145 Z"
   id="path6"
   inkscape:connector-curvature="0"
   style="fill:#659ad2;stroke-width:0.28843999" /><g
   id="g10"
   transform="matrix(0.28844,0,0,0.28844,5.8686793,0.33798712)">
	<path
   d="m 153,274.175 c -56.243,0 -102,-45.757 -102,-102 0,-56.243 45.757,-102 102,-102 36.292,0 70.139,19.53 88.331,50.968 l -44.143,25.544 C 188.083,130.951 171.15,121.175 153,121.175 c -28.122,0 -51,22.878 -51,51 0,28.121 22.878,51 51,51 18.152,0 35.085,-9.776 44.191,-25.515 l 44.143,25.543 c -18.192,31.441 -52.04,50.972 -88.334,50.972 z"
   id="path8"
   inkscape:connector-curvature="0"
   style="fill:#ffffff" />
</g><g
   id="g14"
   transform="matrix(0.28844,0,0,0.28844,5.8686793,0.33798712)">
	<polygon
   points="243.666,177.841 255,177.841 255,166.508 243.666,166.508 243.666,155.175 232.334,155.175 232.334,166.508 221,166.508 221,177.841 232.334,177.841 232.334,189.175 243.666,189.175 "
   id="polygon12"
   style="fill:#ffffff" />
</g><g
   id="g18"
   transform="matrix(0.28844,0,0,0.28844,5.8686793,0.33798712)">
	<polygon
   points="286.166,177.841 297.5,177.841 297.5,166.508 286.166,166.508 286.166,155.175 274.834,155.175 274.834,166.508 263.5,166.508 263.5,177.841 274.834,177.841 274.834,189.175 286.166,189.175 "
   id="polygon16"
   style="fill:#ffffff" />
</g>
</svg>