<?xml version="1.0" encoding="UTF-8" standalone="no"?>
<svg
   xmlns:dc="http://purl.org/dc/elements/1.1/"
   xmlns:cc="http://creativecommons.org/ns#"
   xmlns:rdf="http://www.w3.org/1999/02/22-rdf-syntax-ns#"
   xmlns:svg="http://www.w3.org/2000/svg"
   xmlns="http://www.w3.org/2000/svg"
   xmlns:sodipodi="http://sodipodi.sourceforge.net/DTD/sodipodi-0.dtd"
   xmlns:inkscape="http://www.inkscape.org/namespaces/inkscape"
   width="2500"
   height="2500"
   viewBox="0 0 316.98861 317"
   preserveAspectRatio="xMidYMid"
   version="1.1"
   id="svg10"
   sodipodi:docname="debian-2.svg"
   inkscape:version="1.0.1 (3bc2e813f5, 2020-09-07)">
  <metadata
     id="metadata16">
    <rdf:RDF>
      <cc:Work
         rdf:about="">
        <dc:format>image/svg+xml</dc:format>
        <dc:type
           rdf:resource="http://purl.org/dc/dcmitype/StillImage" />
        <dc:title></dc:title>
      </cc:Work>
    </rdf:RDF>
  </metadata>
  <defs
     id="defs14" />
  <sodipodi:namedview
     pagecolor="#ffffff"
     bordercolor="#666666"
     borderopacity="1"
     objecttolerance="10"
     gridtolerance="10"
     guidetolerance="10"
     inkscape:pageopacity="0"
     inkscape:pageshadow="2"
     inkscape:window-width="1920"
     inkscape:window-height="1004"
     id="namedview12"
     showgrid="false"
     inkscape:zoom="0.3204"
     inkscape:cx="1009.5"
     inkscape:cy="1250"
     inkscape:window-x="0"
     inkscape:window-y="25"
     inkscape:window-maximized="1"
     inkscape:current-layer="svg10"
     inkscape:document-rotation="0" />
  <g
     fill="#A80030"
     id="g8"
     style="fill:#ffffff;fill-opacity:1"
     transform="translate(30.551527)">
    <path
       d="m 152.797,167.425 c -5.251,0.073 0.993,2.706 7.848,3.761 a 70.171,70.171 0 0 0 5.143,-4.43 c -4.269,1.046 -8.614,1.07 -12.991,0.67 M 180.98,160.4 c 3.127,-4.315 5.406,-9.04 6.21,-13.926 -0.702,3.483 -2.593,6.49 -4.372,9.663 -9.815,6.18 -0.923,-3.67 -0.006,-7.413 -10.554,13.284 -1.45,7.966 -1.832,11.677 m 10.402,-27.071 c 0.635,-9.455 -1.86,-6.466 -2.7,-2.857 0.98,0.508 1.754,6.665 2.7,2.858 M 132.886,4.088 c 2.802,0.503 6.054,0.888 5.598,1.557 3.066,-0.672 3.761,-1.291 -5.598,-1.557 m 5.598,1.557 -1.98,0.41 1.843,-0.164 0.137,-0.246"
       id="path2"
       style="fill:#ffffff;fill-opacity:1" />
    <path
       d="m 225.866,136.916 c 0.312,8.492 -2.484,12.612 -5.006,19.905 l -4.538,2.268 c -3.714,7.211 0.36,4.579 -2.3,10.315 -5.797,5.154 -17.593,16.13 -21.368,17.132 -2.756,-0.062 1.867,-3.253 2.472,-4.503 -7.761,5.33 -6.227,8 -18.097,11.238 l -0.347,-0.771 c -29.274,13.771 -69.937,-13.52 -69.402,-50.76 -0.313,2.364 -0.889,1.774 -1.537,2.73 -1.511,-19.16 8.848,-38.405 26.319,-46.262 17.088,-8.46 37.122,-4.988 49.362,6.42 -6.724,-8.808 -20.107,-18.144 -35.968,-17.27 -15.536,0.245 -30.07,10.12 -34.921,20.837 -7.96,5.012 -8.883,19.318 -12.352,21.936 -4.666,34.296 8.778,49.114 31.52,66.544 3.58,2.414 1.009,2.78 1.494,4.617 -7.557,-3.539 -14.476,-8.88 -20.165,-15.42 3.018,4.419 6.276,8.714 10.487,12.089 -7.124,-2.414 -16.641,-17.264 -19.42,-17.868 12.281,21.988 49.827,38.562 69.486,30.34 -9.096,0.335 -20.653,0.186 -30.874,-3.592 -4.293,-2.209 -10.13,-6.785 -9.088,-7.641 26.83,10.023 54.546,7.591 77.762,-11.02 5.906,-4.599 12.358,-12.424 14.222,-12.532 -2.808,4.222 0.48,2.03 -1.677,5.76 5.885,-9.491 -2.557,-3.864 6.083,-16.39 l 3.191,4.394 c -1.186,-7.878 9.783,-17.444 8.67,-29.904 2.516,-3.81 2.808,4.1 0.137,12.866 3.706,-9.725 0.976,-11.288 1.929,-19.312 1.029,2.697 2.379,5.564 3.071,8.41 -2.414,-9.398 2.478,-15.826 3.688,-21.288 -1.193,-0.528 -3.726,4.156 -4.305,-6.945 0.085,-4.822 1.342,-2.528 1.827,-3.714 -0.947,-0.544 -3.43,-4.24 -4.941,-11.33 1.095,-1.665 2.927,4.32 4.418,4.565 -0.959,-5.637 -2.61,-9.935 -2.677,-14.26 -4.354,-9.099 -1.54,1.213 -5.073,-3.906 -4.634,-14.456 3.846,-3.355 4.419,-9.924 7.024,10.178 11.03,25.951 12.868,32.485 -1.402,-7.966 -3.67,-15.683 -6.437,-23.149 2.133,0.897 -3.436,-16.39 2.773,-4.94 -6.633,-24.406 -28.388,-47.21 -48.401,-57.91 2.449,2.24 5.54,5.055 4.43,5.496 -9.953,-5.926 -8.202,-6.388 -9.628,-8.892 -8.109,-3.299 -8.64,0.266 -14.012,0.006 C 168.678,9.66 165.733,10.522 151.669,5.444 l 0.64,2.99 c -10.125,-3.373 -11.797,1.279 -22.74,0.01 -0.666,-0.52 3.507,-1.881 6.94,-2.38 -9.789,1.29 -9.33,-1.93 -18.909,0.356 2.361,-1.657 4.857,-2.753 7.376,-4.161 -7.983,0.485 -19.058,4.646 -15.64,0.862 C 96.316,8.93 73.191,17.085 60.214,29.253 l -0.41,-2.727 c -5.945,7.14 -25.93,21.32 -27.522,30.565 l -1.59,0.371 c -3.094,5.24 -5.096,11.177 -7.55,16.568 -4.047,6.896 -5.932,2.654 -5.356,3.735 -7.96,16.138 -11.914,29.7 -15.33,40.821 2.435,3.638 0.059,21.9 0.98,36.517 -3.998,72.187 50.662,142.275 110.41,158.458 8.757,3.132 21.78,3.012 32.858,3.334 -13.07,-3.738 -14.76,-1.981 -27.49,-6.42 -9.185,-4.325 -11.198,-9.263 -17.702,-14.908 l 2.574,4.55 c -12.758,-4.515 -7.42,-5.588 -17.798,-8.875 l 2.75,-3.591 c -4.135,-0.313 -10.953,-6.97 -12.817,-10.654 l -4.523,0.178 c -5.435,-6.706 -8.331,-11.54 -8.12,-15.282 l -1.462,2.603 c -1.657,-2.843 -19.995,-25.15 -10.481,-19.957 -1.768,-1.616 -4.117,-2.63 -6.665,-7.259 l 1.937,-2.215 c -4.579,-5.89 -8.427,-13.441 -8.135,-15.957 2.443,3.299 4.138,3.915 5.815,4.48 -11.563,-28.69 -12.211,-1.581 -20.969,-29.204 l 1.853,-0.149 c -1.42,-2.139 -2.282,-4.462 -3.425,-6.74 l 0.807,-8.037 c -8.325,-9.625 -2.33,-40.926 -1.128,-58.093 0.832,-6.98 6.948,-14.412 11.6,-26.065 l -2.834,-0.488 c 5.417,-9.45 30.933,-37.952 42.75,-36.485 5.724,-7.19 -1.137,-0.026 -2.256,-1.838 12.573,-13.012 16.527,-9.193 25.013,-11.533 9.151,-5.432 -7.855,2.118 -3.516,-2.072 15.82,-4.041 11.212,-9.187 31.85,-11.238 2.178,1.239 -5.051,1.914 -6.866,3.521 13.181,-6.449 41.712,-4.982 60.244,3.58 21.504,10.049 45.663,39.754 46.616,67.704 l 1.084,0.292 c -0.55,11.11 1.7,23.958 -2.198,35.76 l 2.654,-5.587"
       id="path4"
       style="fill:#ffffff;fill-opacity:1" />
    <path
       d="m 95.483,174.634 -0.736,3.682 c 3.45,4.687 6.189,9.765 10.595,13.43 -3.17,-6.19 -5.525,-8.746 -9.859,-17.112 m 8.159,-0.321 c -1.827,-2.02 -2.908,-4.45 -4.117,-6.873 1.157,4.257 3.526,7.916 5.733,11.636 l -1.616,-4.763 m 144.361,-31.377 -0.771,1.934 c -1.414,10.046 -4.468,19.987 -9.15,29.203 5.173,-9.725 8.519,-20.36 9.921,-31.137 M 133.923,1.57 c 3.55,-1.301 8.728,-0.714 12.495,-1.57 -4.91,0.412 -9.795,0.657 -14.62,1.28 l 2.125,0.29 M 9.282,67.847 c 0.819,7.574 -5.698,10.514 1.444,5.52 3.828,-8.623 -1.496,-2.381 -1.444,-5.52 M 0.89,102.9 C 2.535,97.851 2.833,94.818 3.462,91.896 -1.085,97.708 1.37,98.946 0.89,102.9"
       id="path6"
       style="fill:#ffffff;fill-opacity:1" />
  </g>
</svg>
