<?xml version="1.0" encoding="UTF-8" standalone="no"?>
<svg
   xmlns:dc="http://purl.org/dc/elements/1.1/"
   xmlns:cc="http://creativecommons.org/ns#"
   xmlns:rdf="http://www.w3.org/1999/02/22-rdf-syntax-ns#"
   xmlns:svg="http://www.w3.org/2000/svg"
   xmlns="http://www.w3.org/2000/svg"
   xmlns:sodipodi="http://sodipodi.sourceforge.net/DTD/sodipodi-0.dtd"
   xmlns:inkscape="http://www.inkscape.org/namespaces/inkscape"
   width="62.726864mm"
   height="6.6147165mm"
   viewBox="0 0 222.26055 23.437972"
   id="svg2"
   version="1.1"
   inkscape:version="1.0.1 (3bc2e813f5, 2020-09-07)"
   sodipodi:docname="eXa_logo_text.svg">
  <defs
     id="defs4" />
  <sodipodi:namedview
     id="base"
     pagecolor="#ffffff"
     bordercolor="#666666"
     borderopacity="1.0"
     inkscape:pageopacity="0.0"
     inkscape:pageshadow="2"
     inkscape:zoom="2.2926595"
     inkscape:cx="23.097044"
     inkscape:cy="-41.674984"
     inkscape:document-units="px"
     inkscape:current-layer="layer1"
     showgrid="false"
     inkscape:window-width="1920"
     inkscape:window-height="1004"
     inkscape:window-x="0"
     inkscape:window-y="25"
     inkscape:window-maximized="1"
     fit-margin-top="0"
     fit-margin-left="0"
     fit-margin-right="0"
     fit-margin-bottom="0"
     inkscape:document-rotation="0">
    <inkscape:grid
       type="xygrid"
       id="grid4136"
       originx="-78.720603"
       originy="-581.90804" />
  </sodipodi:namedview>
  <metadata
     id="metadata7">
    <rdf:RDF>
      <cc:Work
         rdf:about="">
        <dc:format>image/svg+xml</dc:format>
        <dc:type
           rdf:resource="http://purl.org/dc/dcmitype/StillImage" />
        <dc:title></dc:title>
      </cc:Work>
    </rdf:RDF>
  </metadata>
  <g
     inkscape:label="Layer 1"
     inkscape:groupmode="layer"
     id="layer1"
     transform="translate(-78.720594,-282.49805)">
    <rect
       style="fill:#000000;fill-opacity:1;stroke-width:1.30595"
       id="rect837"
       width="239.92186"
       height="140.43903"
       x="-150.65025"
       y="126.88513" />
    <g
       transform="matrix(0.74790589,0,0,0.74790589,21.120306,50.750178)"
       id="text4190"
       style="font-style:normal;font-weight:normal;font-size:50px;line-height:125%;font-family:sans-serif;letter-spacing:70px;word-spacing:0px;fill:#ffffff;fill-opacity:1;stroke:none;stroke-width:1px;stroke-linecap:butt;stroke-linejoin:miter;stroke-opacity:1">
      <path
         inkscape:connector-curvature="0"
         id="path4151"
         style="font-style:normal;font-variant:normal;font-weight:normal;font-stretch:normal;font-size:57.5px;font-family:Ubuntu;-inkscape-font-specification:Ubuntu;letter-spacing:70px;fill:#ffffff;fill-opacity:1"
         d="m 77.015423,325.61797 q 0,-3.9675 1.15,-6.9 1.15,-2.99 3.0475,-4.945 1.8975,-1.955 4.37,-2.9325 2.4725,-0.9775 5.06,-0.9775 6.0375,0 9.2575,3.795 3.219997,3.7375 3.219997,11.4425 0,0.345 0,0.92 0,0.5175 -0.0575,0.9775 H 82.592923 q 0.345,4.6575 2.7025,7.0725 2.3575,2.415 7.36,2.415 2.8175,0 4.715,-0.46 1.955,-0.5175 2.932497,-0.9775 l 0.7475,4.485 q -0.9775,0.5175 -3.449997,1.0925 -2.415,0.575 -5.52,0.575 -3.91,0 -6.785,-1.15 -2.8175,-1.2075 -4.6575,-3.2775 -1.84,-2.07 -2.76,-4.8875 -0.8625,-2.875 -0.8625,-6.2675 z m 20.5275,-2.9325 q 0.0575,-3.6225 -1.84,-5.9225 -1.84,-2.3575 -5.1175,-2.3575 -1.84,0 -3.2775,0.7475 -1.38,0.69 -2.3575,1.84 -0.9775,1.15 -1.5525,2.645 -0.5175,1.495 -0.69,3.0475 z" />
      <path
         inkscape:connector-curvature="0"
         id="path4153"
         style="font-style:normal;font-variant:normal;font-weight:normal;font-stretch:normal;font-size:57.5px;font-family:Ubuntu;-inkscape-font-specification:Ubuntu;letter-spacing:70px;fill:#ffffff;fill-opacity:1"
         d="m 145.88828,336.67179 q 1.8975,0 3.335,-0.0575 1.495,-0.115 2.4725,-0.345 v -8.9125 q -0.575,-0.2875 -1.8975,-0.46 -1.265,-0.23 -3.105,-0.23 -1.2075,0 -2.5875,0.1725 -1.3225,0.1725 -2.4725,0.7475 -1.0925,0.5175 -1.84,1.495 -0.7475,0.92 -0.7475,2.4725 0,2.875 1.84,4.025 1.84,1.0925 5.0025,1.0925 z m -0.46,-26.795 q 3.22,0 5.405,0.8625 2.2425,0.805 3.565,2.3575 1.38,1.495 1.955,3.6225 0.575,2.07 0.575,4.6 v 18.6875 q -0.69,0.115 -1.955,0.345 -1.2075,0.1725 -2.76,0.345 -1.5525,0.1725 -3.3925,0.2875 -1.7825,0.1725 -3.565,0.1725 -2.53,0 -4.6575,-0.5175 -2.1275,-0.5175 -3.68,-1.61 -1.5525,-1.15 -2.415,-2.99 -0.8625,-1.84 -0.8625,-4.4275 0,-2.4725 0.9775,-4.255 1.035,-1.7825 2.76,-2.875 1.725,-1.0925 4.025,-1.61 2.3,-0.5175 4.83,-0.5175 0.805,0 1.6675,0.115 0.8625,0.0575 1.61,0.23 0.805,0.115 1.38,0.23 0.575,0.115 0.805,0.1725 v -1.495 q 0,-1.3225 -0.2875,-2.5875 -0.2875,-1.3225 -1.035,-2.3 -0.7475,-1.035 -2.07,-1.61 -1.265,-0.6325 -3.335,-0.6325 -2.645,0 -4.6575,0.4025 -1.955,0.345 -2.9325,0.7475 l -0.6325,-4.4275 q 1.035,-0.46 3.45,-0.8625 2.415,-0.46 5.2325,-0.46 z" />
    </g>
    <path
       sodipodi:nodetypes="sccccssscccsscsscccscsccccssscsccsscccscccscsccccccccsccccccscscsccssssscccccccccccccccccscscscccscsssc"
       inkscape:connector-curvature="0"
       id="path4162"
       d="m 242.20855,282.49852 c 1.1974,0 2.42927,0.0953 3.6948,0.28704 1.26553,0.18158 2.57363,0.46026 3.92676,0.83346 v 4.78124 c -1.19738,-0.55478 -2.36556,-0.9747 -3.50454,-1.25713 -1.13897,-0.28243 -2.21344,-0.42364 -3.22585,-0.42364 -1.34342,0 -2.33638,0.19251 -2.97887,0.57582 -0.64249,0.38329 -0.9646,0.97756 -0.9646,1.78453 0,0.60521 0.21419,1.08017 0.64253,1.42312 0.43805,0.33288 1.22741,0.6208 2.36639,0.86286 l 2.39478,0.49801 c 2.42397,0.50435 4.14621,1.27097 5.16837,2.29985 1.02216,1.02886 1.53364,2.49233 1.53364,4.38868 0,2.49148 -0.71508,4.34749 -2.1461,5.56802 -1.42129,1.21043 -3.59829,1.81564 -6.52848,1.81564 -1.38235,0 -2.76832,-0.13573 -4.16039,-0.40807 -1.3921,-0.27235 -2.78501,-0.67583 -4.1771,-1.21045 v -4.91783 c 1.39209,0.76662 2.7355,1.34618 4.03022,1.73958 1.30449,0.3833 2.56112,0.57581 3.76825,0.57581 1.22658,0 2.16474,-0.21268 2.81697,-0.63633 0.65224,-0.42366 0.97961,-1.02888 0.97961,-1.81566 0,-0.70609 -0.22473,-1.25079 -0.67254,-1.6341 -0.43807,-0.3833 -1.31949,-0.72626 -2.64343,-1.02887 l -2.17448,-0.49974 c -2.18061,-0.48417 -3.77714,-1.25452 -4.78955,-2.31366 -1.00271,-1.05912 -1.50528,-2.48774 -1.50528,-4.28322 0,-2.24938 0.70089,-3.97887 2.10272,-5.18932 1.40182,-1.21043 3.41776,-1.81564 6.04617,-1.81564 z m -99.22046,0.40808 h 5.92936 c 3.30987,0 5.77194,0.24757 7.38793,0.74182 1.62573,0.48418 3.01864,1.31131 4.17709,2.48139 1.02216,1.01879 1.78147,2.19437 2.27796,3.52583 0.49646,1.3315 0.74429,2.83906 0.74429,4.52359 0,1.7047 -0.24783,3.2287 -0.74429,4.57027 -0.49649,1.33147 -1.2558,2.50532 -2.27796,3.5241 -1.16818,1.17008 -2.57002,2.00269 -4.20546,2.49696 -1.63546,0.48419 -4.08864,0.72626 -7.35956,0.72626 h -5.92936 z m 22.26055,0 h 8.58617 c 2.87177,0 4.9745,0.50061 6.30819,1.49922 1.34339,0.9986 2.01593,2.57592 2.01593,4.73453 0,1.49287 -0.35043,2.71974 -1.05137,3.678 -0.69117,0.95826 -1.73892,1.66435 -3.14072,2.11827 0.76905,0.18156 1.45577,0.59427 2.05933,1.23984 0.61329,0.63548 1.23104,1.60381 1.85406,2.90504 l 3.05232,6.41532 h -5.98611 l -2.65845,-5.61297 c -0.53543,-1.12974 -1.08057,-1.90183 -1.63546,-2.3154 -0.54514,-0.41357 -1.27444,-0.62078 -2.18952,-0.62078 h -1.59204 v 8.54915 h -5.62233 z m 20.4499,0 h 5.62229 v 13.54307 c 0,1.86608 0.29206,3.20132 0.87615,4.00826 0.59382,0.79689 1.55673,1.19662 2.89041,1.19662 1.3434,0 2.30801,-0.39972 2.89208,-1.19662 0.59384,-0.80694 0.89117,-2.14218 0.89117,-4.00826 V 282.9066 h 5.62063 v 13.54307 c 0,3.19757 -0.7735,5.57809 -2.32137,7.14158 -1.54782,1.56347 -3.90896,2.3448 -7.08251,2.34477 -3.16384,0 -5.51966,-0.7813 -7.06751,-2.34477 -1.54784,-1.56349 -2.32134,-3.94401 -2.32134,-7.14158 z m 21.73488,0 h 7.15595 l 4.96477,12.09054 4.99315,-12.09054 h 7.14095 v 22.59022 H 226.373 v -16.52247 l -5.0232,12.18044 h -3.56294 l -5.02319,-12.18044 v 16.52247 h -5.33025 z m -36.56245,4.2227 v 5.79454 h 2.36472 c 1.1779,0 2.0204,-0.22739 2.52662,-0.68131 0.51593,-0.45392 0.77434,-1.20034 0.77434,-2.23931 0,-1.02887 -0.25841,-1.76437 -0.77434,-2.20819 -0.50622,-0.44382 -1.34872,-0.66573 -2.52662,-0.66573 z m -22.26058,0.18157 v 13.78342 h 2.01428 c 2.29742,0 4.04971,-0.59054 5.25683,-1.77069 1.21685,-1.18019 1.82571,-2.89497 1.82571,-5.14437 0,-2.23931 -0.60357,-3.94314 -1.81069,-5.11323 -1.20713,-1.17009 -2.96468,-1.75513 -5.27185,-1.75513 z"
       style="fill:#ffffff;fill-opacity:1;stroke:none;stroke-width:0.963019;stroke-linecap:round;stroke-linejoin:round;stroke-miterlimit:4;stroke-dasharray:none;stroke-dashoffset:0;stroke-opacity:1" />
    <g
       aria-label="x"
       id="text841"
       style="font-size:44.7281px;line-height:125%;font-family:sans-serif;-inkscape-font-specification:sans-serif;text-align:center;letter-spacing:0px;word-spacing:0px;text-anchor:middle;fill:#ffffff;fill-opacity:1;stroke:none;stroke-width:4.19326px;stroke-linecap:butt;stroke-linejoin:miter;stroke-opacity:1">
      <path
         id="path838"
         style="font-style:normal;font-variant:normal;font-weight:normal;font-stretch:normal;font-family:FreeSans;-inkscape-font-specification:FreeSans;fill:#ffffff;fill-opacity:1;stroke:none;stroke-width:4.19326px"
         sodipodi:type="inkscape:offset"
         inkscape:radius="0"
         inkscape:original="M 99.791016 282.49805 L 107.61914 293.99414 L 99.34375 305.93555 L 103.59375 305.93555 L 109.54102 296.94531 L 115.40039 305.93555 L 119.74023 305.93555 L 111.64453 293.81445 L 119.51562 282.49805 L 115.3125 282.49805 L 109.67578 290.99609 L 104.04102 282.49805 L 99.791016 282.49805 z "
         d="m 99.791016,282.49805 7.828124,11.49609 -8.27539,11.94141 h 4.25 l 5.94727,-8.99024 5.85937,8.99024 h 4.33984 l -8.0957,-12.1211 7.87109,-11.3164 h -4.20312 l -5.63672,8.49804 -5.63476,-8.49804 z" />
    </g>
    <g
       aria-label=".com"
       id="text840"
       style="font-size:10px;line-height:125%;font-family:sans-serif;-inkscape-font-specification:sans-serif;text-align:center;letter-spacing:0px;word-spacing:0px;text-anchor:middle;fill:#bfbfbf;stroke:#000000;stroke-width:0.9375px;stroke-linecap:butt;stroke-linejoin:miter;stroke-opacity:1"
       transform="matrix(2.0408155,0,0,2.0408155,50.327547,-345.403)">
      <path
         id="path848"
         style="fill:#bfbfbf;fill-opacity:1;stroke:none;stroke-width:0.9375px"
         sodipodi:type="inkscape:offset"
         inkscape:radius="0"
         inkscape:original="M 105.61328 313.41406 C 104.76042 313.41406 104.0892 313.67057 103.59766 314.18164 C 103.10938 314.69271 102.86523 315.39323 102.86523 316.28516 C 102.86523 317.16406 103.10677 317.86329 103.5918 318.38086 C 104.07682 318.89844 104.73112 319.15625 105.55469 319.15625 C 105.85742 319.15625 106.14323 319.12696 106.41016 319.06836 C 106.68034 319.00977 106.94075 318.92187 107.19141 318.80469 L 107.19141 317.97461 C 106.9375 318.11458 106.68099 318.22136 106.42383 318.29297 C 106.16992 318.36133 105.91276 318.39453 105.65234 318.39453 C 105.06966 318.39453 104.61719 318.21158 104.29492 317.84375 C 103.97266 317.47265 103.8125 316.95247 103.8125 316.28516 C 103.8125 315.61784 103.97266 315.10026 104.29492 314.73242 C 104.61719 314.36133 105.06966 314.17578 105.65234 314.17578 C 105.91276 314.17578 106.16992 314.21158 106.42383 314.2832 C 106.68099 314.35156 106.9375 314.45572 107.19141 314.5957 L 107.19141 313.75586 C 106.94401 313.64193 106.6875 313.55729 106.42383 313.50195 C 106.16015 313.44335 105.88997 313.41406 105.61328 313.41406 z M 110.87305 313.41406 C 110.08854 313.41406 109.4733 313.66797 109.02734 314.17578 C 108.58464 314.68359 108.36328 315.38672 108.36328 316.28516 C 108.36328 317.18034 108.58464 317.88346 109.02734 318.39453 C 109.4733 318.90234 110.08854 319.15625 110.87305 319.15625 C 111.6543 319.15625 112.26693 318.90234 112.71289 318.39453 C 113.15886 317.88346 113.38281 317.18034 113.38281 316.28516 C 113.38281 315.38672 113.15886 314.68359 112.71289 314.17578 C 112.26693 313.66797 111.6543 313.41406 110.87305 313.41406 z M 117.49805 313.41406 C 117.10417 313.41406 116.76498 313.49479 116.47852 313.6543 C 116.19206 313.8138 115.94531 314.0612 115.74023 314.39648 L 115.74023 313.54688 L 114.83789 313.54688 L 114.83789 319.01562 L 115.74023 319.01562 L 115.74023 315.92383 C 115.74023 315.39323 115.8763 314.97331 116.14648 314.66406 C 116.41666 314.35156 116.78125 314.19531 117.24023 314.19531 C 117.6276 314.19531 117.91406 314.32227 118.09961 314.57617 C 118.28516 314.82683 118.37695 315.21679 118.37695 315.74414 L 118.37695 319.01562 L 119.28125 319.01562 L 119.28125 315.92383 C 119.28125 315.38997 119.41536 314.9694 119.68555 314.66016 C 119.95573 314.35091 120.32357 314.19531 120.78906 314.19531 C 121.16992 314.19531 121.45313 314.32227 121.63867 314.57617 C 121.82422 314.83008 121.91797 315.22005 121.91797 315.74414 L 121.91797 319.01562 L 122.82031 319.01562 L 122.82031 315.71484 C 122.82031 314.97916 122.66666 314.41276 122.35742 314.01562 C 122.04818 313.61523 121.60872 313.41406 121.03906 313.41406 C 120.61588 313.41406 120.24805 313.51106 119.93555 313.70312 C 119.62305 313.89518 119.35351 314.19206 119.12891 314.5957 C 118.99544 314.21158 118.78971 313.91862 118.50977 313.7168 C 118.23307 313.51497 117.89518 313.41406 117.49805 313.41406 z M 110.87305 314.17578 C 111.35157 314.17578 111.72982 314.36719 112.00977 314.74805 C 112.28971 315.12565 112.42969 315.63737 112.42969 316.28516 C 112.42969 316.9362 112.28971 317.45052 112.00977 317.82812 C 111.72982 318.20573 111.35157 318.39453 110.87305 318.39453 C 110.38802 318.39453 110.00456 318.20833 109.72461 317.83398 C 109.44792 317.45638 109.31055 316.93945 109.31055 316.28516 C 109.31055 315.63086 109.45052 315.11653 109.73047 314.74219 C 110.01042 314.36458 110.39128 314.17578 110.87305 314.17578 z M 100.20312 317.77539 L 100.20312 319.01562 L 101.23438 319.01562 L 101.23438 317.77539 L 100.20312 317.77539 z "
         d="m 105.61328,313.41406 c -0.85286,0 -1.52408,0.25651 -2.01562,0.76758 -0.48828,0.51107 -0.73243,1.21159 -0.73243,2.10352 0,0.8789 0.24154,1.57813 0.72657,2.0957 0.48502,0.51758 1.13932,0.77539 1.96289,0.77539 0.30273,0 0.58854,-0.0293 0.85547,-0.0879 0.27018,-0.0586 0.53059,-0.14649 0.78125,-0.26367 v -0.83008 c -0.25391,0.13997 -0.51042,0.24675 -0.76758,0.31836 -0.25391,0.0684 -0.51107,0.10156 -0.77149,0.10156 -0.58268,0 -1.03515,-0.18295 -1.35742,-0.55078 -0.32226,-0.3711 -0.48242,-0.89128 -0.48242,-1.55859 0,-0.66732 0.16016,-1.1849 0.48242,-1.55274 0.32227,-0.37109 0.77474,-0.55664 1.35742,-0.55664 0.26042,0 0.51758,0.0358 0.77149,0.10742 0.25716,0.0684 0.51367,0.17252 0.76758,0.3125 v -0.83984 c -0.2474,-0.11393 -0.50391,-0.19857 -0.76758,-0.25391 -0.26368,-0.0586 -0.53386,-0.0879 -0.81055,-0.0879 z m 5.25977,0 c -0.78451,0 -1.39975,0.25391 -1.84571,0.76172 -0.4427,0.50781 -0.66406,1.21094 -0.66406,2.10938 0,0.89518 0.22136,1.5983 0.66406,2.10937 0.44596,0.50781 1.0612,0.76172 1.84571,0.76172 0.78125,0 1.39388,-0.25391 1.83984,-0.76172 0.44597,-0.51107 0.66992,-1.21419 0.66992,-2.10937 0,-0.89844 -0.22395,-1.60157 -0.66992,-2.10938 -0.44596,-0.50781 -1.05859,-0.76172 -1.83984,-0.76172 z m 6.625,0 c -0.39388,0 -0.73307,0.0807 -1.01953,0.24024 -0.28646,0.1595 -0.53321,0.4069 -0.73829,0.74218 v -0.8496 h -0.90234 v 5.46874 h 0.90234 v -3.09179 c 0,-0.5306 0.13607,-0.95052 0.40625,-1.25977 0.27018,-0.3125 0.63477,-0.46875 1.09375,-0.46875 0.38737,0 0.67383,0.12696 0.85938,0.38086 0.18555,0.25066 0.27734,0.64062 0.27734,1.16797 v 3.27148 h 0.9043 v -3.09179 c 0,-0.53386 0.13411,-0.95443 0.4043,-1.26367 0.27018,-0.30925 0.63802,-0.46485 1.10351,-0.46485 0.38086,0 0.66407,0.12696 0.84961,0.38086 0.18555,0.25391 0.2793,0.64388 0.2793,1.16797 v 3.27148 h 0.90234 v -3.30078 c 0,-0.73568 -0.15365,-1.30208 -0.46289,-1.69922 -0.30924,-0.40039 -0.7487,-0.60156 -1.31836,-0.60156 -0.42318,0 -0.79101,0.097 -1.10351,0.28906 -0.3125,0.19206 -0.58204,0.48894 -0.80664,0.89258 -0.13347,-0.38412 -0.3392,-0.67708 -0.61914,-0.8789 -0.2767,-0.20183 -0.61459,-0.30274 -1.01172,-0.30274 z m -6.625,0.76172 c 0.47852,0 0.85677,0.19141 1.13672,0.57227 0.27994,0.3776 0.41992,0.88932 0.41992,1.53711 0,0.65104 -0.13998,1.16536 -0.41992,1.54296 -0.27995,0.37761 -0.6582,0.56641 -1.13672,0.56641 -0.48503,0 -0.86849,-0.1862 -1.14844,-0.56055 -0.27669,-0.3776 -0.41406,-0.89453 -0.41406,-1.54882 0,-0.6543 0.13997,-1.16863 0.41992,-1.54297 0.27995,-0.37761 0.66081,-0.56641 1.14258,-0.56641 z m -10.66993,3.59961 v 1.24023 h 1.03126 v -1.24023 z" />
    </g>
  </g>
</svg>
