<?xml version="1.0" encoding="UTF-8" standalone="no"?>
<svg xmlns="http://www.w3.org/2000/svg" xmlns:sodipodi="http://sodipodi.sourceforge.net/DTD/sodipodi-0.dtd"
   xmlns:inkscape="http://www.inkscape.org/namespaces/inkscape" viewBox="0 0 274.68984 38.161132" version="1.1">
   <g transform="translate(-26.291313,-275.13647)">
      <g transform="matrix(0.74790589,0,0,0.74790589,21.120306,50.750178)"
         style="font-style:normal;font-weight:normal;font-size:50px;line-height:125%;font-family:sans-serif;letter-spacing:70px;word-spacing:0px;fill:#0e232e;fill-opacity:1;stroke:none;stroke-width:1px;stroke-linecap:butt;stroke-linejoin:miter;stroke-opacity:1">
         <path
            style="font-style:normal;font-variant:normal;font-weight:normal;font-stretch:normal;font-size:57.5px;font-family:Ubuntu;-inkscape-font-specification:Ubuntu;letter-spacing:70px;fill:#0e232e;fill-opacity:1"
            d="m 77.015423,325.61797 q 0,-3.9675 1.15,-6.9 1.15,-2.99 3.0475,-4.945 1.8975,-1.955 4.37,-2.9325 2.4725,-0.9775 5.06,-0.9775 6.0375,0 9.2575,3.795 3.219997,3.7375 3.219997,11.4425 0,0.345 0,0.92 0,0.5175 -0.0575,0.9775 H 82.592923 q 0.345,4.6575 2.7025,7.0725 2.3575,2.415 7.36,2.415 2.8175,0 4.715,-0.46 1.955,-0.5175 2.932497,-0.9775 l 0.7475,4.485 q -0.9775,0.5175 -3.449997,1.0925 -2.415,0.575 -5.52,0.575 -3.91,0 -6.785,-1.15 -2.8175,-1.2075 -4.6575,-3.2775 -1.84,-2.07 -2.76,-4.8875 -0.8625,-2.875 -0.8625,-6.2675 z m 20.5275,-2.9325 q 0.0575,-3.6225 -1.84,-5.9225 -1.84,-2.3575 -5.1175,-2.3575 -1.84,0 -3.2775,0.7475 -1.38,0.69 -2.3575,1.84 -0.9775,1.15 -1.5525,2.645 -0.5175,1.495 -0.69,3.0475 z" />
         <path
            style="font-style:normal;font-variant:normal;font-weight:normal;font-stretch:normal;font-size:57.5px;font-family:Ubuntu;-inkscape-font-specification:Ubuntu;letter-spacing:70px;fill:#0e232e;fill-opacity:1"
            d="m 145.88828,336.67179 q 1.8975,0 3.335,-0.0575 1.495,-0.115 2.4725,-0.345 v -8.9125 q -0.575,-0.2875 -1.8975,-0.46 -1.265,-0.23 -3.105,-0.23 -1.2075,0 -2.5875,0.1725 -1.3225,0.1725 -2.4725,0.7475 -1.0925,0.5175 -1.84,1.495 -0.7475,0.92 -0.7475,2.4725 0,2.875 1.84,4.025 1.84,1.0925 5.0025,1.0925 z m -0.46,-26.795 q 3.22,0 5.405,0.8625 2.2425,0.805 3.565,2.3575 1.38,1.495 1.955,3.6225 0.575,2.07 0.575,4.6 v 18.6875 q -0.69,0.115 -1.955,0.345 -1.2075,0.1725 -2.76,0.345 -1.5525,0.1725 -3.3925,0.2875 -1.7825,0.1725 -3.565,0.1725 -2.53,0 -4.6575,-0.5175 -2.1275,-0.5175 -3.68,-1.61 -1.5525,-1.15 -2.415,-2.99 -0.8625,-1.84 -0.8625,-4.4275 0,-2.4725 0.9775,-4.255 1.035,-1.7825 2.76,-2.875 1.725,-1.0925 4.025,-1.61 2.3,-0.5175 4.83,-0.5175 0.805,0 1.6675,0.115 0.8625,0.0575 1.61,0.23 0.805,0.115 1.38,0.23 0.575,0.115 0.805,0.1725 v -1.495 q 0,-1.3225 -0.2875,-2.5875 -0.2875,-1.3225 -1.035,-2.3 -0.7475,-1.035 -2.07,-1.61 -1.265,-0.6325 -3.335,-0.6325 -2.645,0 -4.6575,0.4025 -1.955,0.345 -2.9325,0.7475 l -0.6325,-4.4275 q 1.035,-0.46 3.45,-0.8625 2.415,-0.46 5.2325,-0.46 z" />
      </g>
      <path
         d="m 242.20855,282.49852 c 1.1974,0 2.42927,0.0953 3.6948,0.28704 1.26553,0.18158 2.57363,0.46026 3.92676,0.83346 v 4.78124 c -1.19738,-0.55478 -2.36556,-0.9747 -3.50454,-1.25713 -1.13897,-0.28243 -2.21344,-0.42364 -3.22585,-0.42364 -1.34342,0 -2.33638,0.19251 -2.97887,0.57582 -0.64249,0.38329 -0.9646,0.97756 -0.9646,1.78453 0,0.60521 0.21419,1.08017 0.64253,1.42312 0.43805,0.33288 1.22741,0.6208 2.36639,0.86286 l 2.39478,0.49801 c 2.42397,0.50435 4.14621,1.27097 5.16837,2.29985 1.02216,1.02886 1.53364,2.49233 1.53364,4.38868 0,2.49148 -0.71508,4.34749 -2.1461,5.56802 -1.42129,1.21043 -3.59829,1.81564 -6.52848,1.81564 -1.38235,0 -2.76832,-0.13573 -4.16039,-0.40807 -1.3921,-0.27235 -2.78501,-0.67583 -4.1771,-1.21045 v -4.91783 c 1.39209,0.76662 2.7355,1.34618 4.03022,1.73958 1.30449,0.3833 2.56112,0.57581 3.76825,0.57581 1.22658,0 2.16474,-0.21268 2.81697,-0.63633 0.65224,-0.42366 0.97961,-1.02888 0.97961,-1.81566 0,-0.70609 -0.22473,-1.25079 -0.67254,-1.6341 -0.43807,-0.3833 -1.31949,-0.72626 -2.64343,-1.02887 l -2.17448,-0.49974 c -2.18061,-0.48417 -3.77714,-1.25452 -4.78955,-2.31366 -1.00271,-1.05912 -1.50528,-2.48774 -1.50528,-4.28322 0,-2.24938 0.70089,-3.97887 2.10272,-5.18932 1.40182,-1.21043 3.41776,-1.81564 6.04617,-1.81564 z m -99.22046,0.40808 h 5.92936 c 3.30987,0 5.77194,0.24757 7.38793,0.74182 1.62573,0.48418 3.01864,1.31131 4.17709,2.48139 1.02216,1.01879 1.78147,2.19437 2.27796,3.52583 0.49646,1.3315 0.74429,2.83906 0.74429,4.52359 0,1.7047 -0.24783,3.2287 -0.74429,4.57027 -0.49649,1.33147 -1.2558,2.50532 -2.27796,3.5241 -1.16818,1.17008 -2.57002,2.00269 -4.20546,2.49696 -1.63546,0.48419 -4.08864,0.72626 -7.35956,0.72626 h -5.92936 z m 22.26055,0 h 8.58617 c 2.87177,0 4.9745,0.50061 6.30819,1.49922 1.34339,0.9986 2.01593,2.57592 2.01593,4.73453 0,1.49287 -0.35043,2.71974 -1.05137,3.678 -0.69117,0.95826 -1.73892,1.66435 -3.14072,2.11827 0.76905,0.18156 1.45577,0.59427 2.05933,1.23984 0.61329,0.63548 1.23104,1.60381 1.85406,2.90504 l 3.05232,6.41532 h -5.98611 l -2.65845,-5.61297 c -0.53543,-1.12974 -1.08057,-1.90183 -1.63546,-2.3154 -0.54514,-0.41357 -1.27444,-0.62078 -2.18952,-0.62078 h -1.59204 v 8.54915 h -5.62233 z m 20.4499,0 h 5.62229 v 13.54307 c 0,1.86608 0.29206,3.20132 0.87615,4.00826 0.59382,0.79689 1.55673,1.19662 2.89041,1.19662 1.3434,0 2.30801,-0.39972 2.89208,-1.19662 0.59384,-0.80694 0.89117,-2.14218 0.89117,-4.00826 V 282.9066 h 5.62063 v 13.54307 c 0,3.19757 -0.7735,5.57809 -2.32137,7.14158 -1.54782,1.56347 -3.90896,2.3448 -7.08251,2.34477 -3.16384,0 -5.51966,-0.7813 -7.06751,-2.34477 -1.54784,-1.56349 -2.32134,-3.94401 -2.32134,-7.14158 z m 21.73488,0 h 7.15595 l 4.96477,12.09054 4.99315,-12.09054 h 7.14095 v 22.59022 H 226.373 v -16.52247 l -5.0232,12.18044 h -3.56294 l -5.02319,-12.18044 v 16.52247 h -5.33025 z m -36.56245,4.2227 v 5.79454 h 2.36472 c 1.1779,0 2.0204,-0.22739 2.52662,-0.68131 0.51593,-0.45392 0.77434,-1.20034 0.77434,-2.23931 0,-1.02887 -0.25841,-1.76437 -0.77434,-2.20819 -0.50622,-0.44382 -1.34872,-0.66573 -2.52662,-0.66573 z m -22.26058,0.18157 v 13.78342 h 2.01428 c 2.29742,0 4.04971,-0.59054 5.25683,-1.77069 1.21685,-1.18019 1.82571,-2.89497 1.82571,-5.14437 0,-2.23931 -0.60357,-3.94314 -1.81069,-5.11323 -1.20713,-1.17009 -2.96468,-1.75513 -5.27185,-1.75513 z"
         style="fill:#0e232e;fill-opacity:1;stroke:none;stroke-width:0.96301901;stroke-linecap:round;stroke-linejoin:round;stroke-miterlimit:4;stroke-dasharray:none;stroke-dashoffset:0;stroke-opacity:1" />
      <g aria-label="x"
         style="font-size:44.72809982px;line-height:125%;font-family:sans-serif;-inkscape-font-specification:sans-serif;text-align:center;letter-spacing:0px;word-spacing:0px;text-anchor:middle;fill:#ef2929;fill-opacity:1;stroke:none;stroke-width:4.19326019px;stroke-linecap:butt;stroke-linejoin:miter;stroke-opacity:1">
         <path
            style="font-style:normal;font-variant:normal;font-weight:normal;font-stretch:normal;font-family:FreeSans;-inkscape-font-specification:FreeSans;fill:#d23232;fill-opacity:1;stroke:none;stroke-width:4.19326019px"
            d="m 99.791016,282.49805 7.828124,11.49609 -8.27539,11.94141 h 4.25 l 5.94727,-8.99024 5.85937,8.99024 h 4.33984 l -8.0957,-12.1211 7.87109,-11.3164 h -4.20312 l -5.63672,8.49804 -5.63476,-8.49804 z" />
      </g>
      <g aria-label=".com"
         style="font-size:10px;line-height:125%;font-family:sans-serif;-inkscape-font-specification:sans-serif;text-align:center;letter-spacing:0px;word-spacing:0px;text-anchor:middle;fill:#364e59;stroke:#000000;stroke-width:0.9375px;stroke-linecap:butt;stroke-linejoin:miter;stroke-opacity:1;fill-opacity:1"
         transform="matrix(2.0408155,0,0,2.0408155,50.327547,-345.403)">
         <path id="path848" style="fill:#364e59;fill-opacity:1;stroke:none;stroke-width:0.9375px"
            d="m 105.61328,313.41406 c -0.85286,0 -1.52408,0.25651 -2.01562,0.76758 -0.48828,0.51107 -0.73243,1.21159 -0.73243,2.10352 0,0.8789 0.24154,1.57813 0.72657,2.0957 0.48502,0.51758 1.13932,0.77539 1.96289,0.77539 0.30273,0 0.58854,-0.0293 0.85547,-0.0879 0.27018,-0.0586 0.53059,-0.14649 0.78125,-0.26367 v -0.83008 c -0.25391,0.13997 -0.51042,0.24675 -0.76758,0.31836 -0.25391,0.0684 -0.51107,0.10156 -0.77149,0.10156 -0.58268,0 -1.03515,-0.18295 -1.35742,-0.55078 -0.32226,-0.3711 -0.48242,-0.89128 -0.48242,-1.55859 0,-0.66732 0.16016,-1.1849 0.48242,-1.55274 0.32227,-0.37109 0.77474,-0.55664 1.35742,-0.55664 0.26042,0 0.51758,0.0358 0.77149,0.10742 0.25716,0.0684 0.51367,0.17252 0.76758,0.3125 v -0.83984 c -0.2474,-0.11393 -0.50391,-0.19857 -0.76758,-0.25391 -0.26368,-0.0586 -0.53386,-0.0879 -0.81055,-0.0879 z m 5.25977,0 c -0.78451,0 -1.39975,0.25391 -1.84571,0.76172 -0.4427,0.50781 -0.66406,1.21094 -0.66406,2.10938 0,0.89518 0.22136,1.5983 0.66406,2.10937 0.44596,0.50781 1.0612,0.76172 1.84571,0.76172 0.78125,0 1.39388,-0.25391 1.83984,-0.76172 0.44597,-0.51107 0.66992,-1.21419 0.66992,-2.10937 0,-0.89844 -0.22395,-1.60157 -0.66992,-2.10938 -0.44596,-0.50781 -1.05859,-0.76172 -1.83984,-0.76172 z m 6.625,0 c -0.39388,0 -0.73307,0.0807 -1.01953,0.24024 -0.28646,0.1595 -0.53321,0.4069 -0.73829,0.74218 v -0.8496 h -0.90234 v 5.46874 h 0.90234 v -3.09179 c 0,-0.5306 0.13607,-0.95052 0.40625,-1.25977 0.27018,-0.3125 0.63477,-0.46875 1.09375,-0.46875 0.38737,0 0.67383,0.12696 0.85938,0.38086 0.18555,0.25066 0.27734,0.64062 0.27734,1.16797 v 3.27148 h 0.9043 v -3.09179 c 0,-0.53386 0.13411,-0.95443 0.4043,-1.26367 0.27018,-0.30925 0.63802,-0.46485 1.10351,-0.46485 0.38086,0 0.66407,0.12696 0.84961,0.38086 0.18555,0.25391 0.2793,0.64388 0.2793,1.16797 v 3.27148 h 0.90234 v -3.30078 c 0,-0.73568 -0.15365,-1.30208 -0.46289,-1.69922 -0.30924,-0.40039 -0.7487,-0.60156 -1.31836,-0.60156 -0.42318,0 -0.79101,0.097 -1.10351,0.28906 -0.3125,0.19206 -0.58204,0.48894 -0.80664,0.89258 -0.13347,-0.38412 -0.3392,-0.67708 -0.61914,-0.8789 -0.2767,-0.20183 -0.61459,-0.30274 -1.01172,-0.30274 z m -6.625,0.76172 c 0.47852,0 0.85677,0.19141 1.13672,0.57227 0.27994,0.3776 0.41992,0.88932 0.41992,1.53711 0,0.65104 -0.13998,1.16536 -0.41992,1.54296 -0.27995,0.37761 -0.6582,0.56641 -1.13672,0.56641 -0.48503,0 -0.86849,-0.1862 -1.14844,-0.56055 -0.27669,-0.3776 -0.41406,-0.89453 -0.41406,-1.54882 0,-0.6543 0.13997,-1.16863 0.41992,-1.54297 0.27995,-0.37761 0.66081,-0.56641 1.14258,-0.56641 z m -10.66993,3.59961 v 1.24023 h 1.03126 v -1.24023 z" />
      </g>
      <path
         d="m 54.609115,276.76361 c 0.958363,-0.42439 1.177957,-1.23841 1.723922,-0.92317 l 1.78636,1.03139 c 0.526657,0.30379 -0.05344,0.91425 0.06107,1.95491 z"
         style="fill:#0e232e;fill-opacity:1;fill-rule:evenodd;stroke:none;stroke-width:0.2062773px;stroke-linecap:butt;stroke-linejoin:miter;stroke-opacity:1" />
      <path
         style="fill:#0e232e;fill-opacity:1;fill-rule:evenodd;stroke:none;stroke-width:0.2062773px;stroke-linecap:butt;stroke-linejoin:miter;stroke-opacity:1"
         d="m 35.647256,309.60639 c 0.111433,1.04232 -0.483152,1.63935 0.06107,1.95459 l 1.786436,1.03132 c 0.526656,0.30378 0.765255,-0.503 1.724153,-0.92349 z" />
      <path
         style="fill:#0e232e;fill-opacity:1;fill-rule:evenodd;stroke:none;stroke-width:0.2062773px;stroke-linecap:butt;stroke-linejoin:miter;stroke-opacity:1"
         d="m 65.876443,292.15358 c 0.846849,0.61748 1.661412,0.40071 1.661412,1.03142 v 2.06274 c 0,0.60832 -0.818303,0.41139 -1.661871,1.03139 z" />
      <path
         d="m 27.952801,292.15358 c -0.846925,0.61748 -1.661413,0.40071 -1.661413,1.03142 v 2.06274 c 0,0.60832 0.818228,0.41139 1.661871,1.03139 z"
         style="fill:#0e232e;fill-opacity:1;fill-rule:evenodd;stroke:none;stroke-width:0.2062773px;stroke-linecap:butt;stroke-linejoin:miter;stroke-opacity:1" />
      <path
         d="m 58.181604,309.607 c -0.111433,1.04224 0.48315,1.63935 -0.06107,1.95458 l -1.786436,1.03133 c -0.52665,0.30379 -0.765246,-0.50299 -1.724144,-0.92356 z"
         style="fill:#0e232e;fill-opacity:1;fill-rule:evenodd;stroke:none;stroke-width:0.2062773px;stroke-linecap:butt;stroke-linejoin:miter;stroke-opacity:1" />
      <path
         style="fill:#0e232e;fill-opacity:1;fill-rule:evenodd;stroke:none;stroke-width:0.2062773px;stroke-linecap:butt;stroke-linejoin:miter;stroke-opacity:1"
         d="m 39.219745,276.76421 c -0.958363,-0.42436 -1.177957,-1.2384 -1.723925,-0.92317 l -1.786357,1.03141 c -0.526659,0.30378 0.05342,0.91417 -0.06107,1.95489 z" />
      <path
         style="color:#000000;font-style:normal;font-variant:normal;font-weight:normal;font-stretch:normal;font-size:medium;line-height:normal;font-family:sans-serif;text-indent:0;text-align:start;text-decoration:none;text-decoration-line:none;text-decoration-style:solid;text-decoration-color:#000000;letter-spacing:normal;word-spacing:normal;text-transform:none;writing-mode:lr-tb;direction:ltr;baseline-shift:baseline;text-anchor:start;white-space:normal;clip-rule:nonzero;display:inline;overflow:visible;visibility:visible;opacity:1;isolation:auto;mix-blend-mode:normal;color-interpolation:sRGB;color-interpolation-filters:linearRGB;solid-color:#000000;solid-opacity:1;fill:#0e232e;fill-opacity:1;fill-rule:nonzero;stroke:none;stroke-width:0.91606033;stroke-linecap:round;stroke-linejoin:round;stroke-miterlimit:4;stroke-dasharray:none;stroke-dashoffset:0;stroke-opacity:1;color-rendering:auto;image-rendering:auto;shape-rendering:auto;text-rendering:auto;enable-background:accumulate"
         d="m 46.830776,275.13662 c -10.528786,0.0459 -19.038873,8.628 -18.996894,19.15672 0.03817,10.52895 8.620303,19.04201 19.149166,19.00414 10.528786,-0.0381 19.045896,-8.61258 19.012158,-19.14145 a 0.51574474,0.51574474 0 0 0 -3.04e-4,-0.0151 0.51574474,0.51574474 0 0 0 0,-0.0151 c -0.0458,-10.52878 -8.63534,-19.03536 -19.164204,-18.98917 z m 0.0045,1.03133 c 9.9716,-0.0381 18.080512,7.99114 18.128217,17.96266 a 0.51574474,0.51574474 0 0 0 3.81e-4,0.0151 0.51574474,0.51574474 0 0 0 0,0.0151 c 0.03059,9.97159 -8.012681,18.07098 -17.984278,18.10684 -9.971599,0.0306 -18.074327,-8.00563 -18.114094,-17.97716 -0.03817,-9.97159 7.998313,-18.07722 17.969912,-18.12104 z" />
      <path
         style="fill:#0e232e;fill-opacity:1;fill-rule:evenodd;stroke:none;stroke-width:0.18321207px;stroke-linecap:butt;stroke-linejoin:miter;stroke-opacity:1"
         d="m 29.397444,275.85172 c -0.218297,-0.0151 -0.438118,0.0534 -0.619012,0.23052 -0.361791,0.36178 -0.274778,0.88073 0.07632,1.23528 0.288519,0.29537 0.726634,0.2908 0.726634,0.2908 l 5.307631,6.03395 17.019107,17.01918 h 2.906382 l -18.471915,-18.47237 -6.034418,-5.30756 c 0,0 -0.0026,-0.42361 -0.290806,-0.72663 -0.179373,-0.17943 -0.397663,-0.28621 -0.61596,-0.30377 z" />
      <path
         style="fill:#0e232e;fill-opacity:1;fill-rule:evenodd;stroke:none;stroke-width:0.18321207px;stroke-linecap:butt;stroke-linejoin:miter;stroke-opacity:1"
         d="m 64.431569,275.85172 c -0.219057,0.0151 -0.43659,0.12451 -0.615957,0.30378 -0.288517,0.30302 -0.290807,0.72665 -0.290807,0.72665 l -6.034419,5.30762 -18.471915,18.47231 h 2.906456 l 17.019108,-17.01912 5.307555,-6.03403 c 0,0 0.438118,0.004 0.726634,-0.29081 0.34729,-0.35416 0.435066,-0.87341 0.07632,-1.23528 -0.180882,-0.17793 -0.399953,-0.24882 -0.61901,-0.23051 z" />
      <path
         style="fill:#0e232e;fill-opacity:1;fill-rule:evenodd;stroke:none;stroke-width:0.18321207px;stroke-linecap:butt;stroke-linejoin:miter;stroke-opacity:1"
         d="m 60.373718,306.23899 a 18.066356,18.066356 0 0 1 -1.448383,1.44388 l 4.513525,4.51353 c 1.091861,1.09192 2.555277,-0.35112 1.453191,-1.45319 z"
         id="path2392" inkscape:connector-curvature="0" />
      <path
         style="fill:#0e232e;fill-opacity:1;fill-rule:evenodd;stroke:none;stroke-width:0.18321207px;stroke-linecap:butt;stroke-linejoin:miter;stroke-opacity:1"
         d="m 33.455752,306.228 -4.51879,4.51521 c -1.102468,1.10161 0.361791,2.54511 1.453191,1.45319 l 4.515203,-4.51514 A 18.061347,18.061347 0 0 1 33.455752,306.228 Z"
         id="path2394" inkscape:connector-curvature="0" />
      <path
         style="fill:#0e232e;fill-opacity:1;fill-rule:evenodd;stroke:none;stroke-width:0.20627719px;stroke-linecap:butt;stroke-linejoin:miter;stroke-opacity:1"
         d="m 54.609115,276.76352 c 0.958363,-0.42436 1.177881,-1.23832 1.723922,-0.92308 l 1.78636,1.03132 c 0.526657,0.30378 -0.05344,0.91426 0.06107,1.95498 z" />
      <path
         d="m 35.647256,309.60639 c 0.111433,1.04225 -0.483152,1.63927 0.06107,1.9545 l 1.786436,1.03141 c 0.526656,0.30378 0.765177,-0.503 1.724153,-0.92355 z"
         style="fill:#0e232e;fill-opacity:1;fill-rule:evenodd;stroke:none;stroke-width:0.20627719px;stroke-linecap:butt;stroke-linejoin:miter;stroke-opacity:1" />
      <path
         d="m 65.876365,292.15358 c 0.846927,0.61748 1.66149,0.40071 1.66149,1.03142 v 2.06274 c 0,0.60832 -0.818303,0.41139 -1.661871,1.03139 z"
         style="fill:#0e232e;fill-opacity:1;fill-rule:evenodd;stroke:none;stroke-width:0.20627719px;stroke-linecap:butt;stroke-linejoin:miter;stroke-opacity:1" />
      <path
         style="fill:#0e232e;fill-opacity:1;fill-rule:evenodd;stroke:none;stroke-width:0.20627719px;stroke-linecap:butt;stroke-linejoin:miter;stroke-opacity:1"
         d="m 27.952801,292.15358 c -0.846925,0.61748 -1.661488,0.40071 -1.661488,1.03133 v 2.06283 c 0,0.60832 0.818303,0.41139 1.661946,1.03139 z" />
      <path
         style="fill:#0e232e;fill-opacity:1;fill-rule:evenodd;stroke:none;stroke-width:0.20627719px;stroke-linecap:butt;stroke-linejoin:miter;stroke-opacity:1"
         d="m 58.181526,309.607 c -0.111432,1.04224 0.483152,1.63928 -0.06107,1.95451 l -1.786424,1.0314 c -0.526659,0.30379 -0.765258,-0.50299 -1.724156,-0.92356 z" />
      <path
         d="m 39.219745,276.76414 c -0.958363,-0.42438 -1.177957,-1.23833 -1.723925,-0.92317 l -1.786435,1.0314 c -0.526656,0.30379 0.05342,0.91425 -0.06107,1.95497 z"
         style="fill:#0e232e;fill-opacity:1;fill-rule:evenodd;stroke:none;stroke-width:0.20627719px;stroke-linecap:butt;stroke-linejoin:miter;stroke-opacity:1" />
      <path
         d="m 46.830776,275.13662 c -10.528786,0.0459 -19.038873,8.62794 -18.996816,19.1568 0.0458,10.52878 8.620303,19.04193 19.149088,19.00406 10.528862,-0.0381 19.045896,-8.61267 19.012158,-19.14145 0,-0.004 -1.51e-4,-0.009 -3.04e-4,-0.0151 7.6e-5,-0.004 7.6e-5,-0.009 0,-0.0151 -0.05344,-10.52878 -8.63534,-19.03544 -19.164126,-18.98917 z m 0.0045,2.749 c 9.971522,-0.0459 16.362925,6.27347 16.410628,16.24499 7.7e-5,0.004 2.28e-4,0.0228 3.05e-4,0.0306 0.03052,9.9716 -6.295152,16.35339 -16.266675,16.38926 -9.971597,0.0381 -16.356738,-6.28796 -16.396505,-16.25949 -0.03817,-9.9716 6.280726,-16.35964 16.252247,-16.40339 z"
         style="color:#000000;font-style:normal;font-variant:normal;font-weight:normal;font-stretch:normal;font-size:medium;line-height:normal;font-family:sans-serif;text-indent:0;text-align:start;text-decoration:none;text-decoration-line:none;text-decoration-style:solid;text-decoration-color:#000000;letter-spacing:normal;word-spacing:normal;text-transform:none;writing-mode:lr-tb;direction:ltr;baseline-shift:baseline;text-anchor:start;white-space:normal;clip-rule:nonzero;display:inline;overflow:visible;visibility:visible;opacity:1;isolation:auto;mix-blend-mode:normal;color-interpolation:sRGB;color-interpolation-filters:linearRGB;solid-color:#000000;solid-opacity:1;fill:#0e232e;fill-opacity:1;fill-rule:nonzero;stroke:none;stroke-width:0.91606033;stroke-linecap:round;stroke-linejoin:round;stroke-miterlimit:4;stroke-dasharray:none;stroke-dashoffset:0;stroke-opacity:1;color-rendering:auto;image-rendering:auto;shape-rendering:auto;text-rendering:auto;enable-background:accumulate" />
      <path
         d="m 29.397519,275.85172 c -0.219059,-0.0151 -0.438118,0.0534 -0.619012,0.23052 -0.361791,0.36178 -0.274015,0.88073 0.07632,1.23528 0.287754,0.29537 0.726635,0.2908 0.726635,0.2908 l 5.307555,6.03404 17.019105,17.01903 h 2.906459 l -18.471917,-18.47231 -6.034415,-5.30756 c 0,0 -0.0028,-0.42361 -0.290806,-0.72663 -0.179374,-0.17943 -0.396901,-0.28621 -0.61596,-0.30377 z"
         style="fill:#0e232e;fill-opacity:1;fill-rule:evenodd;stroke:none;stroke-width:0.18321207px;stroke-linecap:butt;stroke-linejoin:miter;stroke-opacity:1" />
      <path
         d="m 64.431647,275.85172 c -0.219057,0.0151 -0.436591,0.12451 -0.61596,0.30378 -0.287752,0.30302 -0.290806,0.72665 -0.290806,0.72665 l -6.034418,5.30755 -18.471842,18.47229 h 2.906384 l 17.019108,-17.01903 5.307555,-6.03403 c 0,0 0.438118,0.004 0.726634,-0.29081 0.347289,-0.35491 0.435063,-0.87332 0.07632,-1.23528 -0.180881,-0.17707 -0.400715,-0.24882 -0.619012,-0.23051 z"
         style="fill:#0e232e;fill-opacity:1;fill-rule:evenodd;stroke:none;stroke-width:0.18321207px;stroke-linecap:butt;stroke-linejoin:miter;stroke-opacity:1" />
      <path
         d="m 54.810771,300.66178 h -2.906457 l 11.534624,11.53462 c 1.091859,1.09192 2.555277,-0.35112 1.453191,-1.45319 z"
         style="fill:#0e232e;fill-opacity:1;fill-rule:evenodd;stroke:none;stroke-width:0.18321207px;stroke-linecap:butt;stroke-linejoin:miter;stroke-opacity:1" />
      <path
         d="m 39.018471,300.66178 -10.081432,10.08143 c -1.102469,1.10161 0.361027,2.54511 1.453191,1.45319 l 11.534622,-11.53462 z"
         style="fill:#0e232e;fill-opacity:1;fill-rule:evenodd;stroke:none;stroke-width:0.18321207px;stroke-linecap:butt;stroke-linejoin:miter;stroke-opacity:1" />
   </g>
</svg>