<?xml version="1.0" encoding="UTF-8" standalone="no"?>
<svg
   xmlns:svg="http://www.w3.org/2000/svg"
   xmlns="http://www.w3.org/2000/svg"
   viewBox="0 0 5.5 5"
   version="1.1">
  <path
     style="fill:#0e232e;fill-opacity:1;stroke:none;"
     d="M 2.6914062 0 C 2.3091263 0.0016774989 1.9503903 0.096877794 1.6269531 0.25195312 L 1.6933594 0.21289062 C 1.5677966 0.15726416 1.5402815 0.050498225 1.46875 0.091796875 L 1.234375 0.22851562 C 1.165381 0.26834932 1.2416725 0.34802846 1.2265625 0.484375 L 1.2519531 0.47070312 C 1.1704686 0.52903634 1.102845 0.60252368 1.0292969 0.66992188 L 0.52539062 0.22851562 C 0.52539062 0.22851562 0.52602625 0.17444172 0.48828125 0.13476562 C 0.46481125 0.11129852 0.43492 0.09606972 0.40625 0.09375 C 0.37758 0.0914315 0.34988187 0.101775 0.32617188 0.125 C 0.27875187 0.1724182 0.2904175 0.23870599 0.3359375 0.28515625 C 0.3736775 0.32386505 0.4296875 0.32421875 0.4296875 0.32421875 L 0.86328125 0.81835938 C 0.49053635 1.2270986 0.25288182 1.7590129 0.21679688 2.3476562 L 0.21679688 2.2304688 C 0.10584151 2.3113961 -5.30125e-08 2.2826369 0 2.3652344 L 0 2.6347656 C -7.0357e-09 2.7144331 0.10626997 2.6882767 0.21679688 2.7695312 L 0.21679688 2.6542969 C 0.25286663 3.2340078 0.48281547 3.7602155 0.84570312 4.1660156 L 0.34570312 4.6660156 C 0.20126413 4.8103468 0.39405338 4.9985239 0.53710938 4.8554688 L 1.046875 4.3457031 C 1.1176382 4.4093724 1.1818596 4.4798067 1.2597656 4.5351562 L 1.2265625 4.515625 C 1.2411695 4.6521789 1.162839 4.7301856 1.234375 4.7714844 L 1.46875 4.9082031 C 1.537744 4.9480371 1.5677276 4.8422014 1.6933594 4.7871094 L 1.5917969 4.7285156 C 1.9303433 4.8978195 2.3068399 5.0014531 2.7109375 5 C 3.0667319 4.9987207 3.4049131 4.9224052 3.7109375 4.7871094 C 3.8365693 4.8422014 3.866553 4.9480369 3.9355469 4.9082031 L 4.1699219 4.7734375 C 4.2414579 4.7321387 4.1631264 4.6521788 4.1777344 4.515625 L 4.1484375 4.5332031 C 4.2251388 4.4784537 4.2877294 4.4085553 4.3574219 4.3457031 L 4.8671875 4.8554688 C 5.0102435 4.998524 5.2010256 4.8104008 5.0566406 4.6660156 L 4.5566406 4.1660156 C 4.9191478 3.7596835 5.1495841 3.2334171 5.1855469 2.6542969 L 5.1855469 2.7695312 C 5.2960738 2.6882772 5.404297 2.7144336 5.4042969 2.6347656 L 5.4042969 2.3652344 C 5.4042971 2.2826372 5.2965022 2.3113956 5.1855469 2.2304688 L 5.1855469 2.3398438 C 5.147613 1.7526521 4.9108355 1.2234538 4.5390625 0.81640625 L 4.9726562 0.32421875 C 4.9726562 0.32421875 5.0306194 0.32386182 5.0683594 0.28515625 C 5.1138394 0.23870595 5.125515 0.17241825 5.078125 0.125 C 5.054415 0.1017749 5.0247637 0.09143055 4.9960938 0.09375 C 4.9674238 0.0960685 4.9394856 0.11129853 4.9160156 0.13476562 C 4.8782756 0.17444172 4.8789062 0.22851562 4.8789062 0.22851562 L 4.375 0.66992188 C 4.2975383 0.59889016 4.2249303 0.52184459 4.1386719 0.4609375 L 4.1777344 0.484375 C 4.1626244 0.34802861 4.2389159 0.26834944 4.1699219 0.22851562 L 3.9355469 0.091796875 C 3.8640153 0.050498085 3.8365004 0.15726419 3.7109375 0.21289062 L 3.8359375 0.28515625 C 3.4909241 0.10792718 3.1057928 -0.0018183379 2.6914062 0 z M 2.6914062 0.36132812 C 3.2953376 0.35867834 3.7923882 0.54118512 4.1601562 0.859375 L 4.0878906 0.92382812 L 2.703125 2.3085938 L 1.3164062 0.92382812 L 1.2441406 0.859375 C 1.6070956 0.54614057 2.0962907 0.36393957 2.6914062 0.36132812 z M 1.0605469 1.0410156 L 1.125 1.1152344 L 2.5117188 2.5 L 1.6679688 3.34375 L 1.0566406 3.9550781 C 0.74498895 3.5920219 0.56486902 3.1032362 0.5625 2.5097656 C 0.56009615 1.9058333 0.74195965 1.4084025 1.0605469 1.0410156 z M 4.3417969 1.0410156 C 4.6562263 1.4037301 4.8389455 1.8923602 4.8417969 2.4882812 C 4.8418049 2.4888257 4.8417859 2.4914875 4.8417969 2.4921875 C 4.8437291 3.0932291 4.6617518 3.588019 4.3457031 3.9550781 L 3.7363281 3.34375 L 2.8925781 2.5 L 4.2773438 1.1152344 L 4.3417969 1.0410156 z M 2.7011719 2.6914062 L 3.3554688 3.34375 L 4.15625 4.1445312 C 3.7931737 4.4567323 3.304918 4.6384892 2.7109375 4.640625 C 2.1098977 4.6427827 1.6150385 4.4606266 1.2480469 4.1445312 L 2.0488281 3.34375 L 2.7011719 2.6914062 z"
   />
   <animateTransform
   attributeName="transform"
   begin="0s"
   dur="1s"
   type="scale"
   from=".8"
   to="1"
   repeatCount="indefinite"
   />
</svg>