<?xml version="1.0" encoding="UTF-8" standalone="no"?>

<svg
   xmlns:svg="http://www.w3.org/2000/svg"
   xmlns="http://www.w3.org/2000/svg"
   viewBox="0 0 5.5 5"
   version="1.1">
   <g transform="translate(-217.86304,-121.38695)">
      <g transform="matrix(1.0673974,0,0,1.0673974,-518.82837,1118.4693)">
         <g style="fill:#0e232e" transform="matrix(0.07968161,0,0,0.07968161,687.78779,-935.51443)">
            <g transform="matrix(0.2751814,0.15887607,-0.15887607,0.2751814,78.082504,-89.520023)" style="fill:#0e232e">
               <path
                  d="m 160,305.43507 c 2.99449,-4.10559 1.94371,-8.05444 5,-8.05444 h 10 c 2.94787,0 1.99341,3.96683 5,8.05657 z"
                  style="fill:#0e232e;fill-opacity:1;fill-rule:evenodd;stroke:none;stroke-width:1px;stroke-linecap:butt;stroke-linejoin:miter;stroke-opacity:1" />
               <path
                  style="fill:#0e232e;fill-opacity:1;fill-rule:evenodd;stroke:none;stroke-width:1px;stroke-linecap:butt;stroke-linejoin:miter;stroke-opacity:1"
                  d="m 160,489.28276 c 2.99449,4.10559 1.94371,8.05444 5,8.05444 h 10 c 2.94787,0 1.99341,-3.96683 5,-8.05657 z" />
               <path
                  style="fill:#0e232e;fill-opacity:1;fill-rule:evenodd;stroke:none;stroke-width:1px;stroke-linecap:butt;stroke-linejoin:miter;stroke-opacity:1"
                  d="m 244.60838,342.73674 c 5.05279,0.54051 7.94721,-2.34392 9.47535,0.30291 l 5,8.66025 c 1.47394,2.55293 -2.43867,3.70976 -4.47719,8.35841 z" />
               <path
                  d="m 85.391612,434.66058 c -2.0583,4.6461 -6.003495,5.71053 -4.47535,8.35735 l 5,8.66026 c 1.473935,2.55293 4.432081,-0.25708 9.477195,0.30184 z"
                  style="fill:#0e232e;fill-opacity:1;fill-rule:evenodd;stroke:none;stroke-width:1px;stroke-linecap:butt;stroke-linejoin:miter;stroke-opacity:1" />
               <path
                  d="m 254.6084,434.66394 c 2.0583,4.6461 6.0035,5.71052 4.47535,8.35735 l -5,8.66025 c -1.47393,2.55293 -4.43208,-0.25707 -9.47719,0.30184 z"
                  style="fill:#0e232e;fill-opacity:1;fill-rule:evenodd;stroke:none;stroke-width:1px;stroke-linecap:butt;stroke-linejoin:miter;stroke-opacity:1" />
               <path
                  style="fill:#0e232e;fill-opacity:1;fill-rule:evenodd;stroke:none;stroke-width:1px;stroke-linecap:butt;stroke-linejoin:miter;stroke-opacity:1"
                  d="m 95.391632,342.74009 c -5.05279,0.54051 -7.947205,-2.34391 -9.47535,0.30291 l -5,8.66026 c -1.473935,2.55293 2.438671,3.70975 4.477195,8.35841 z" />
            </g>
            <path
               d="m 61.603439,17.444011 c -16.218694,0.07117 -29.327735,13.290647 -29.262988,29.509365 0.06475,16.218723 13.278835,29.332481 29.497578,29.274159 16.218744,-0.05832 29.338463,-13.267018 29.286568,-29.485783 -6.6e-5,-0.0077 -2.42e-4,-0.01532 -5.29e-4,-0.02297 1.17e-4,-0.0079 1.17e-4,-0.01571 0,-0.02357 C 91.046365,30.47654 77.822112,17.372837 61.603421,17.444005 Z m 0.0068,4.234592 c 15.360299,-0.0674 25.205636,9.663783 25.279124,25.024046 9.8e-5,0.0064 3.99e-4,0.03584 5.29e-4,0.04411 0.04924,15.360347 -9.697123,25.190978 -25.057471,25.24621 -15.360328,0.0552 -25.196064,-9.6861 -25.257382,-25.046419 -0.06132,-15.360321 9.674926,-25.200547 25.035216,-25.26795 z"
               style="color:#000000;font-style:normal;font-variant:normal;font-weight:normal;font-stretch:normal;font-size:medium;line-height:normal;font-family:sans-serif;text-indent:0;text-align:start;text-decoration:none;text-decoration-line:none;text-decoration-style:solid;text-decoration-color:#000000;letter-spacing:normal;word-spacing:normal;text-transform:none;writing-mode:lr-tb;direction:ltr;baseline-shift:baseline;text-anchor:start;white-space:normal;clip-rule:nonzero;display:inline;overflow:visible;visibility:visible;opacity:1;isolation:auto;mix-blend-mode:normal;color-interpolation:sRGB;color-interpolation-filters:linearRGB;solid-color:#000000;solid-opacity:1;fill:#0e232e;fill-opacity:1;fill-rule:nonzero;stroke:none;stroke-width:1.41111112;stroke-linecap:round;stroke-linejoin:round;stroke-miterlimit:4;stroke-dasharray:none;stroke-dashoffset:0;stroke-opacity:1;color-rendering:auto;image-rendering:auto;shape-rendering:auto;text-rendering:auto;enable-background:accumulate" />
            <path
               d="m 34.749037,18.545592 c -0.337042,-0.02726 -0.675117,0.08254 -0.953877,0.355609 -0.557518,0.557521 -0.422433,1.35665 0.112331,1.90279 0.443738,0.45512 1.118959,0.448081 1.118959,0.448081 l 8.17591,9.294871 26.216413,26.216413 h 4.477082 L 45.441523,28.308404 36.146029,20.132491 c 0,0 -0.0043,-0.652467 -0.44808,-1.11896 -0.275915,-0.275915 -0.61187,-0.440665 -0.948912,-0.467939 z"
               style="fill:#0e232e;fill-opacity:1;fill-rule:evenodd;stroke:none;stroke-width:0.28222224px;stroke-linecap:butt;stroke-linejoin:miter;stroke-opacity:1" />
            <path
               d="m 88.71601,18.545592 c -0.337039,0.02726 -0.672999,0.192024 -0.948915,0.467939 -0.443722,0.466493 -0.448074,1.11896 -0.448074,1.11896 l -9.295493,8.175913 -28.454333,28.454952 h 4.47708 l 26.216414,-26.216413 8.175914,-9.294871 c 0,0 0.675216,0.007 1.118958,-0.448081 0.534763,-0.54614 0.669848,-1.345269 0.112331,-1.90279 -0.278762,-0.27307 -0.61684,-0.38288 -0.953882,-0.355609 z"
               style="fill:#0e232e;fill-opacity:1;fill-rule:evenodd;stroke:none;stroke-width:0.28222224px;stroke-linecap:butt;stroke-linejoin:miter;stroke-opacity:1" />
            <path
               d="M 73.89586,56.763356 H 69.418773 L 87.186827,74.53141 c 1.681975,1.681975 3.936154,-0.54093 2.23854,-2.238539 z"
               style="fill:#0e232e;fill-opacity:1;fill-rule:evenodd;stroke:none;stroke-width:0.28222224px;stroke-linecap:butt;stroke-linejoin:miter;stroke-opacity:1" />
            <path
               d="M 49.5692,56.763356 34.03968,72.292871 c -1.698243,1.696977 0.556567,3.920514 2.238539,2.238539 L 54.046275,56.763356 Z"
               style="fill:#0e232e;fill-opacity:1;fill-rule:evenodd;stroke:none;stroke-width:0.28222224px;stroke-linecap:butt;stroke-linejoin:miter;stroke-opacity:1" />
         </g>
      </g>
   </g>
</svg>