<?xml version="1.0" encoding="UTF-8" standalone="no"?>
<svg
   xmlns="http://www.w3.org/2000/svg"
   width="100"
   height="100"
   viewBox="0 0 100 100"
   style="fill:none">
  <path
     d="m 50.000041,1.8851998 c -27.255824,0 -49.33180764,22.0759832 -49.33180764,49.3318082 0,21.829321 14.12122864,40.267082 33.73062264,46.803556 2.466589,0.431647 3.391561,-1.048309 3.391561,-2.343266 0,-1.171633 -0.06169,-5.056517 -0.06169,-9.188049 -12.394624,2.28159 -15.601185,-3.021576 -16.587818,-5.796489 -0.554986,-1.418295 -2.959913,-5.796489 -5.056517,-6.968121 -1.726605,-0.924972 -4.193195,-3.206562 -0.06169,-3.268224 3.884884,-0.06169 6.659798,3.576547 7.584769,5.056504 4.439856,7.461431 11.531301,5.364841 14.36789,4.06987 0.431648,-3.206561 1.726605,-5.364827 3.1449,-6.598122 -10.97633,-1.233295 -22.445969,-5.488165 -22.445969,-24.357587 0,-5.364827 1.911604,-9.804697 5.056503,-13.257919 -0.49331,-1.233295 -2.219928,-6.289812 0.493323,-13.072934 0,0 4.131533,-1.294957 13.566244,5.056517 3.946546,-1.109971 8.139754,-1.664956 12.332948,-1.664956 4.193208,0 8.386416,0.554985 12.332963,1.664956 9.434697,-6.413136 13.566243,-5.056517 13.566243,-5.056517 2.713251,6.783122 0.986633,11.839639 0.493323,13.072934 3.144899,3.453222 5.056504,7.83143 5.056504,13.257919 0,18.931084 -11.531315,23.124292 -22.507631,24.357587 1.788266,1.541619 3.329885,4.501532 3.329885,9.126388 0,6.598122 -0.06169,11.9013 -0.06169,13.566243 0,1.294957 0.924972,2.836575 3.391561,2.343266 19.48607,-6.536474 33.607299,-25.035897 33.607299,-46.803556 0,-27.255825 -22.075984,-49.3318082 -49.331808,-49.3318082 z"
     style="clip-rule:evenodd;fill:#0e232e;fill-opacity:1;fill-rule:evenodd;stroke-width:6.16647625" />
</svg>
