<?xml version="1.0" encoding="UTF-8" standalone="no"?>
<svg
   xmlns:dc="http://purl.org/dc/elements/1.1/"
   xmlns:cc="http://creativecommons.org/ns#"
   xmlns:rdf="http://www.w3.org/1999/02/22-rdf-syntax-ns#"
   xmlns:svg="http://www.w3.org/2000/svg"
   xmlns="http://www.w3.org/2000/svg"
   xmlns:sodipodi="http://sodipodi.sourceforge.net/DTD/sodipodi-0.dtd"
   xmlns:inkscape="http://www.inkscape.org/namespaces/inkscape"
   version="1.0"
   width="100"
   height="100"
   id="svg2501"
   style="display:inline"
   sodipodi:docname="hackaday_logo.svg"
   inkscape:version="0.92.3 (2405546, 2018-03-11)">
  <metadata
     id="metadata43">
    <rdf:RDF>
      <cc:Work
         rdf:about="">
        <dc:format>image/svg+xml</dc:format>
        <dc:type
           rdf:resource="http://purl.org/dc/dcmitype/StillImage" />
        <dc:title />
      </cc:Work>
    </rdf:RDF>
  </metadata>
  <sodipodi:namedview
     pagecolor="#ffffff"
     bordercolor="#666666"
     borderopacity="1"
     objecttolerance="10"
     gridtolerance="10"
     guidetolerance="10"
     inkscape:pageopacity="0"
     inkscape:pageshadow="2"
     inkscape:window-width="1366"
     inkscape:window-height="721"
     id="namedview41"
     showgrid="false"
     inkscape:zoom="2.67"
     inkscape:cx="18.832295"
     inkscape:cy="29.616216"
     inkscape:window-x="0"
     inkscape:window-y="21"
     inkscape:window-maximized="1"
     inkscape:current-layer="svg2501"
     fit-margin-top="0"
     fit-margin-left="0"
     fit-margin-right="0"
     fit-margin-bottom="0"
     inkscape:document-rotation="0" />
  <defs
     id="defs2504">
    <filter
       id="filter5076">
      <feGaussianBlur
         inkscape:collect="always"
         stdDeviation="0.15793104"
         id="feGaussianBlur5078" />
    </filter>
    <filter
       id="filter5084">
      <feGaussianBlur
         inkscape:collect="always"
         stdDeviation="0.14620583"
         id="feGaussianBlur5086" />
    </filter>
    <filter
       id="filter5092">
      <feGaussianBlur
         inkscape:collect="always"
         stdDeviation="0.14620583"
         id="feGaussianBlur5094" />
    </filter>
    <filter
       id="filter5096">
      <feGaussianBlur
         inkscape:collect="always"
         stdDeviation="0.14620583"
         id="feGaussianBlur5098" />
    </filter>
    <filter
       id="filter5104">
      <feGaussianBlur
         inkscape:collect="always"
         stdDeviation="0.11379095"
         id="feGaussianBlur5106" />
    </filter>
    <filter
       id="filter5112">
      <feGaussianBlur
         inkscape:collect="always"
         stdDeviation="0.23733402"
         id="feGaussianBlur5114" />
    </filter>
    <filter
       id="filter5120">
      <feGaussianBlur
         inkscape:collect="always"
         stdDeviation="0.23733402"
         id="feGaussianBlur5122" />
    </filter>
    <filter
       id="filter5144">
      <feGaussianBlur
         inkscape:collect="always"
         stdDeviation="0.37132122"
         id="feGaussianBlur5146" />
    </filter>
    <filter
       id="filter5158">
      <feGaussianBlur
         inkscape:collect="always"
         stdDeviation="0.37132122"
         id="feGaussianBlur5160" />
    </filter>
    <filter
       id="filter5205">
      <feGaussianBlur
         inkscape:collect="always"
         stdDeviation="0.34722241"
         id="feGaussianBlur5207" />
    </filter>
    <filter
       id="filter5224">
      <feGaussianBlur
         inkscape:collect="always"
         stdDeviation="0.41331904"
         id="feGaussianBlur5226" />
    </filter>
    <filter
       id="filter5232">
      <feGaussianBlur
         inkscape:collect="always"
         stdDeviation="0.34722241"
         id="feGaussianBlur5234" />
    </filter>
    <filter
       id="filter5240">
      <feGaussianBlur
         inkscape:collect="always"
         stdDeviation="0.34273968"
         id="feGaussianBlur5242" />
    </filter>
    <filter
       id="filter5264">
      <feGaussianBlur
         inkscape:collect="always"
         stdDeviation="0.31453825"
         id="feGaussianBlur5266" />
    </filter>
    <filter
       id="filter5277">
      <feGaussianBlur
         inkscape:collect="always"
         stdDeviation="0.3145382"
         id="feGaussianBlur5279" />
    </filter>
  </defs>
  <path
     d="m 12.927269,4.6674324 c -1.168155,0 -2.293913,0.1757432 -3.3682979,0.4719907 L 17.496998,12.19783 8.6042626,22.066728 0.49460478,14.879596 c -0.15920334,0.8019 -0.24672244,1.618789 -0.24672244,2.467225 0,6.997575 5.68181276,12.679389 12.67938666,12.679388 1.337093,-1e-6 2.61947,-0.21605 3.829561,-0.600716 l 10.255072,9.075097 c 1.948169,-4.232577 4.82631,-7.851791 8.345655,-10.533977 L 25.467205,19.21333 c 0.08926,-0.605552 0.139452,-1.236457 0.139452,-1.866509 v -0.08582 C 25.551896,10.298681 19.889809,4.6674327 12.927269,4.6674324 Z M 73.856987,62.035764 c -1.636205,4.400794 -4.250479,8.25217 -7.541127,11.220508 l 8.259841,7.315857 c -0.11288,0.677936 -0.182361,1.371351 -0.182361,2.08105 0,6.997577 5.681815,12.679385 12.679389,12.679388 1.265628,4e-6 2.482901,-0.190591 3.636474,-0.536353 l -8.259838,-7.337311 8.871281,-9.804535 8.21693,7.294402 c 0.137797,-0.748299 0.214541,-1.507634 0.214541,-2.295591 v -0.107271 c -0.05476,-6.962327 -5.716848,-12.572117 -12.679388,-12.572117 -1.269346,-4e-6 -2.490907,0.188408 -3.647202,0.536353 z"
     id="path3311"
     style="display:inline;overflow:visible;visibility:visible;opacity:1;fill:#0e232e;fill-opacity:1;fill-rule:evenodd;stroke:none;stroke-width:0.34326601px;stroke-linecap:butt;stroke-linejoin:miter;stroke-miterlimit:4;stroke-dasharray:none;stroke-dashoffset:0;stroke-opacity:1;marker:none;marker-start:none;marker-mid:none;marker-end:none;enable-background:accumulate"
     inkscape:connector-curvature="0" />
  <path
     d="m 87.072729,4.6674324 c -6.96254,3e-7 -12.624627,5.6312486 -12.679389,12.5935716 v 0.08582 c 0,0.630052 0.05019,1.260957 0.139452,1.866509 l -9.890353,8.753283 c 3.519345,2.682186 6.397488,6.3014 8.345656,10.533977 l 10.255072,-9.075097 c 1.210092,0.384666 2.492469,0.600715 3.829562,0.600716 6.997573,10e-7 12.679388,-5.681813 12.679388,-12.679388 0,-0.848436 -0.08752,-1.665325 -0.246722,-2.467225 L 91.395735,22.066728 82.503,12.19783 90.441026,5.1394231 C 89.366642,4.8431756 88.240884,4.6674324 87.072729,4.6674324 Z M 26.14301,62.035764 l -9.56854,8.47438 c -1.156295,-0.347945 -2.377855,-0.536357 -3.647201,-0.536353 -6.9625401,0 -12.62462544,5.60979 -12.67938666,12.572117 v 0.107271 c 0,0.787957 0.076744,1.547292 0.21454125,2.295591 l 8.21692841,-7.294402 8.871281,9.804535 -8.2598384,7.337311 c 1.1535724,0.345762 2.3708454,0.536357 3.6364744,0.536353 6.997574,-3e-6 12.679388,-5.681811 12.679388,-12.679388 0,-0.709699 -0.06948,-1.403114 -0.18236,-2.08105 l 8.259839,-7.315857 C 30.393491,70.287934 27.779219,66.436558 26.14301,62.035764 Z"
     id="path3335"
     style="display:inline;overflow:visible;visibility:visible;opacity:1;fill:#0e232e;fill-opacity:1;fill-rule:evenodd;stroke:none;stroke-width:0.34326601px;stroke-linecap:butt;stroke-linejoin:miter;stroke-miterlimit:4;stroke-dasharray:none;stroke-dashoffset:0;stroke-opacity:1;marker:none;marker-start:none;marker-mid:none;marker-end:none;enable-background:accumulate"
     inkscape:connector-curvature="0" />
  <path
     d="m 49.999998,25.113214 c -13.078243,-1e-6 -23.685355,11.75069 -23.685355,26.249124 0,8.965022 4.066707,16.879985 10.255072,21.61503 -0.408459,0.693291 -0.64397,1.503523 -0.643623,2.370681 -10e-4,2.550264 2.030871,4.623364 4.537547,4.623364 2.506669,0 4.538567,-2.0731 4.537548,-4.623364 7.2e-5,-0.181646 -0.01219,-0.360175 -0.03216,-0.536353 h 0.622169 c -0.03539,0.226597 -0.05373,0.460718 -0.05363,0.697259 -10e-4,2.464252 1.997194,4.462458 4.462458,4.462458 2.465254,0 4.463461,-1.998206 4.462458,-4.462458 9.6e-5,-0.236541 -0.01823,-0.470662 -0.05363,-0.697259 h 0.793803 c -0.03539,0.226597 -0.05373,0.460718 -0.05364,0.697259 -10e-4,2.464252 1.997194,4.462458 4.462458,4.462458 2.465254,0 4.463461,-1.998206 4.462459,-4.462458 3.43e-4,-0.906929 -0.275334,-1.752198 -0.740168,-2.456497 6.243079,-4.726296 10.3516,-12.678173 10.3516,-21.69012 0,-14.498434 -10.607113,-26.249124 -23.685356,-26.249124 z M 39.820015,44.700832 c 1.33097,-0.0053 2.669982,0.413429 3.808108,1.09416 0.975277,0.710376 1.738779,1.682913 2.317045,2.735401 0.502178,1.311901 -0.198044,2.810755 -1.255066,3.625747 -0.805924,0.539474 -1.584245,1.170634 -2.531587,1.448154 -1.161557,0.384448 -2.257132,0.922919 -3.346844,1.469608 -0.53512,0.303131 -0.936395,0.744921 -1.072706,1.351609 -0.376188,0.611501 -0.02674,1.426765 -0.439809,1.984507 -0.625815,0.454861 -1.334279,-0.08997 -1.823601,-0.482718 -1.070726,-0.787267 -2.011529,-1.873631 -2.284864,-3.207392 -0.210845,-1.127587 -0.444369,-2.281184 -0.311085,-3.43266 0.01665,-1.39667 0.684915,-2.689746 1.544697,-3.754472 0.976664,-1.327601 2.394751,-2.471216 4.076284,-2.681765 0.436256,-0.09971 0.875771,-0.148429 1.319428,-0.150179 z m 20.359966,0 c 0.443657,0.0017 0.883172,0.05047 1.319428,0.150179 1.681533,0.210549 3.09962,1.354164 4.076284,2.681765 0.859782,1.064726 1.528049,2.357802 1.544697,3.754472 0.133284,1.151476 -0.10024,2.305073 -0.311085,3.43266 -0.273335,1.333761 -1.214138,2.420125 -2.284864,3.207392 -0.489322,0.392745 -1.197786,0.937579 -1.823601,0.482718 -0.413062,-0.557742 -0.06362,-1.373006 -0.439809,-1.984507 -0.136311,-0.606688 -0.537586,-1.048478 -1.072707,-1.351609 -1.089711,-0.546689 -2.185286,-1.08516 -3.346843,-1.469608 -0.947342,-0.27752 -1.725664,-0.90868 -2.531587,-1.448154 -1.057022,-0.814992 -1.757244,-2.313846 -1.255066,-3.625747 0.578266,-1.052488 1.341768,-2.025029 2.317045,-2.735401 1.138126,-0.680731 2.477138,-1.099416 3.808108,-1.09416 z M 50.075087,58.174023 c 1.268296,0.03486 2.520586,5.29384 2.199048,7.369491 -1.058059,3.114487 -0.861937,-2.031617 -2.199048,-2.091777 -1.396564,0.0044 -1.655623,5.087803 -2.381408,2.102504 -0.228834,-2.255687 1.225185,-7.411998 2.381408,-7.380218 z"
     id="path3383"
     style="display:inline;fill:#0e232e;fill-opacity:1;stroke:none;stroke-width:0.50116837;stroke-miterlimit:4;stroke-dasharray:none;stroke-opacity:0.330317"
     inkscape:connector-curvature="0" />
</svg>
