<?xml version="1.0" encoding="UTF-8" standalone="no"?>
<svg
   xmlns:dc="http://purl.org/dc/elements/1.1/"
   xmlns:cc="http://creativecommons.org/ns#"
   xmlns:rdf="http://www.w3.org/1999/02/22-rdf-syntax-ns#"
   xmlns:svg="http://www.w3.org/2000/svg"
   xmlns="http://www.w3.org/2000/svg"
   xmlns:sodipodi="http://sodipodi.sourceforge.net/DTD/sodipodi-0.dtd"
   xmlns:inkscape="http://www.inkscape.org/namespaces/inkscape"
   version="1.1"
   id="svg2"
   width="100"
   height="100"
   viewBox="0 0 99.999999 99.999999"
   sodipodi:docname="oshpark_logo.svg"
   inkscape:version="0.92.3 (2405546, 2018-03-11)">
  <sodipodi:namedview
     pagecolor="#ffffff"
     bordercolor="#666666"
     borderopacity="1"
     objecttolerance="10"
     gridtolerance="10"
     guidetolerance="10"
     inkscape:pageopacity="0"
     inkscape:pageshadow="2"
     inkscape:window-width="1366"
     inkscape:window-height="721"
     id="namedview7"
     showgrid="false"
     inkscape:zoom="2.1301322"
     inkscape:cx="72.871477"
     inkscape:cy="72.555458"
     inkscape:window-x="0"
     inkscape:window-y="21"
     inkscape:window-maximized="1"
     inkscape:current-layer="svg2"
     inkscape:document-rotation="0" />
  <metadata
     id="metadata8">
    <rdf:RDF>
      <cc:Work
         rdf:about="">
        <dc:format>image/svg+xml</dc:format>
        <dc:type
           rdf:resource="http://purl.org/dc/dcmitype/StillImage" />
        <dc:title></dc:title>
      </cc:Work>
    </rdf:RDF>
  </metadata>
  <defs
     id="defs6" />
  <path
     inkscape:connector-curvature="0"
     id="path832"
     d="M 48.181291,99.410394 C 46.33768,98.421665 45.098127,96.194908 43.883117,91.689087 43.435628,90.029595 42.969461,88.235 42.847195,87.7011 42.51981,86.271541 42.021603,85.787836 40.372247,85.298198 L 38.9759,84.883666 38.312313,85.497703 c -0.364974,0.33772 -1.945678,1.848364 -3.512676,3.356992 -3.267757,3.146035 -4.54185,4.175301 -5.654323,4.567806 -0.910087,0.321096 -2.186412,0.35743 -3.150408,0.08968 -0.814826,-0.226318 -2.395043,-1.60651 -2.710055,-2.36702 -0.375476,-0.906481 -0.1399,-5.82492 0.350569,-7.319226 0.214569,-0.653739 0.715672,-2.421988 1.113557,-3.929442 l 0.723431,-2.740827 -1.22699,-1.236464 c -0.674842,-0.680056 -1.320217,-1.236463 -1.434164,-1.236463 -0.113945,0 -2.349827,0.569013 -4.968623,1.264473 -2.618795,0.695461 -5.202159,1.317984 -5.740807,1.38338 C 10.035847,77.581422 7.6620355,76.337276 6.7489489,74.525079 6.0865684,73.210454 6.028846,72.663773 6.43146,71.518263 c 0.5799353,-1.650021 1.5245017,-2.864035 5.052065,-6.493223 1.837051,-1.889977 3.395484,-3.61084 3.463183,-3.824142 0.125439,-0.395226 -0.476599,-3.089282 -0.748755,-3.350599 -0.08232,-0.07904 -1.836585,-0.600078 -3.898375,-1.157868 C 4.0822009,55.010413 2.5984282,54.400468 1.3931479,53.031198 0.70609937,52.250668 0.05919541,50.755747 0.05919541,49.948579 c 0,-0.71703 1.24654309,-2.992197 1.92142849,-3.506955 1.3377508,-1.020353 3.4835247,-1.78127 9.3247051,-3.306659 1.408053,-0.367704 2.668184,-0.772319 2.800293,-0.899143 0.132107,-0.126826 0.403595,-0.868427 0.603304,-1.648006 C 15.040761,39.292477 15.047527,39.133 14.78749,38.736139 14.630994,38.497295 13.194629,36.9215 11.595568,35.234376 8.074826,31.51973 7.360805,30.63882 6.6460708,29.128 5.9600808,27.677937 5.956031,27.151473 6.6202076,25.766633 c 1.029268,-2.146057 2.2884462,-2.892536 4.8679794,-2.885893 1.411884,0.0036 2.264166,0.163527 5.997044,1.125055 2.393198,0.616449 4.643758,1.120815 5.001246,1.120815 0.545428,0 0.830206,-0.174192 1.770394,-1.082905 l 1.120409,-1.082904 -0.895189,-3.442977 c -0.492354,-1.893638 -1.05067,-4.019001 -1.240704,-4.723027 -0.190034,-0.704027 -0.393975,-1.879684 -0.453199,-2.612571 -0.319251,-3.9506648 2.543547,-6.665437 6.012775,-5.7018734 1.236647,0.3434761 2.933012,1.6883598 6.497756,5.1514554 1.945998,1.890508 3.610211,3.437284 3.698251,3.437284 0.375369,0 2.837838,-0.919899 3.039566,-1.135485 0.292945,-0.313065 0.830003,-2.031829 1.64506,-5.2647506 1.182323,-4.6896714 2.095501,-6.4925333 3.995375,-7.88793546 0.654607,-0.48079168 0.842319,-0.5237513 2.285798,-0.5231233 1.783031,8.2633e-4 2.226617,0.18852176 3.447574,1.45917636 1.394989,1.4517674 2.371237,4.1137781 4.078209,11.120376 0.233547,0.958647 0.793526,1.344135 2.59323,1.785176 l 1.269703,0.311157 1.035032,-0.988247 c 0.569267,-0.543533 2.187075,-2.100244 3.595126,-3.459356 1.408053,-1.3591116 2.94738,-2.7835494 3.42073,-3.1654184 C 70.30311,6.5940055 71.572549,6.10876 72.57281,6.10876 c 1.768124,0 3.81642,1.3385 4.412542,2.8834623 0.505661,1.3105187 0.426003,3.9847427 -0.194634,6.5340317 -0.474166,1.947653 -1.696573,6.486341 -1.865608,6.926845 -0.0886,0.230897 1.293549,1.945304 2.044559,2.536052 0.447717,0.352175 0.457261,0.351557 1.771322,-0.114413 0.726648,-0.257675 3.04145,-0.892578 5.144008,-1.410899 3.228209,-0.795817 4.010401,-0.928934 5.028758,-0.855832 1.397782,0.100346 2.524645,0.600815 3.552937,1.577955 1.829914,1.738887 1.98162,3.779703 0.451314,6.071352 -0.408347,0.611508 -2.244875,2.698778 -4.081173,4.638384 -1.836296,1.939604 -3.43655,3.709353 -3.556125,3.932775 -0.177329,0.331341 -0.139896,0.684501 0.203051,1.915862 l 0.420451,1.509642 3.361842,0.873543 c 5.710275,1.483759 7.434524,2.142719 8.837047,3.377274 1.832977,1.613453 2.329369,3.657457 1.332854,5.488378 -0.662597,1.217406 -1.474726,1.92435 -3.089394,2.689252 -1.223726,0.579702 -7.048941,2.337509 -9.275798,2.799046 -0.570578,0.118259 -1.113907,0.313355 -1.207398,0.43355 -0.09349,0.120194 -0.336483,0.894374 -0.539989,1.720404 l -0.370002,1.501872 3.270638,3.391594 c 1.798848,1.865374 3.635016,3.886566 4.08037,4.491534 0.865982,1.176352 1.564015,2.794264 1.564015,3.625096 0,1.532758 -1.223858,3.358564 -2.809187,4.190883 -1.500748,0.787907 -3.023894,0.692532 -7.431195,-0.465315 -1.961218,-0.515234 -3.936146,-1.069325 -4.388737,-1.231312 -0.452587,-0.161986 -1.140082,-0.299761 -1.527763,-0.306168 -0.63097,-0.01041 -0.833827,0.116312 -1.934682,1.208733 l -1.229805,1.220383 1.174351,4.058777 c 1.093757,3.780239 1.18109,4.217581 1.272581,6.372771 0.123681,2.91355 0.02984,3.393846 -0.860871,4.405737 -1.020273,1.159091 -2.278329,1.67006 -3.837221,1.558523 -1.96399,-0.140524 -2.662967,-0.638098 -7.824206,-5.569754 l -3.155759,-3.01538 -1.275324,0.215109 c -1.780415,0.300308 -2.405501,0.763603 -2.724086,2.019022 -1.020127,4.019911 -2.127936,7.721007 -2.647876,8.846351 -0.730818,1.581752 -1.678949,2.688529 -2.745427,3.204808 -1.010238,0.489037 -2.878306,0.51486 -3.741905,0.0517 z m 6.244902,-24.008933 c 5.166057,-0.768378 9.437203,-2.839754 14.104381,-6.840201 0.583822,-0.500422 1.573352,-1.570178 2.198953,-2.377233 1.222424,-1.576986 3.023839,-4.204998 3.023839,-4.411356 0,-0.06935 0.360294,-0.916536 0.800653,-1.882615 1.414366,-3.102885 1.939441,-5.786197 1.941227,-9.92029 0.0027,-6.232102 -1.071485,-10.154588 -4.006901,-14.631658 -3.549516,-5.413693 -8.754332,-9.254239 -14.930369,-11.016868 -3.602929,-1.02827 -8.546428,-1.288349 -12.094517,-0.636294 -4.746602,0.872308 -9.970869,3.657246 -13.495791,7.194295 -2.221565,2.229209 -3.750148,4.429782 -5.308183,7.641739 -1.838846,3.79086 -1.958197,4.398843 -2.052151,10.45372 -0.09104,5.867294 -0.04767,6.167802 1.443925,10.005527 1.321787,3.400817 3.352801,6.590252 5.68638,8.9297 1.647744,1.65189 5.212536,4.211976 7.087542,5.089983 2.163988,1.013331 4.970677,1.93665 6.767138,2.226193 0.754312,0.121577 1.494912,0.245231 1.645776,0.27479 0.742193,0.145414 6.034077,0.07221 7.188098,-0.09943 z"
     style="fill:#6b098b;fill-opacity:1;stroke:none;stroke-width:0.182864;stroke-opacity:1" />
</svg>
