<?xml version="1.0" encoding="UTF-8" standalone="no"?>
<svg
   xmlns:dc="http://purl.org/dc/elements/1.1/"
   xmlns:cc="http://creativecommons.org/ns#"
   xmlns:rdf="http://www.w3.org/1999/02/22-rdf-syntax-ns#"
   xmlns:svg="http://www.w3.org/2000/svg"
   xmlns="http://www.w3.org/2000/svg"
   xmlns:sodipodi="http://sodipodi.sourceforge.net/DTD/sodipodi-0.dtd"
   xmlns:inkscape="http://www.inkscape.org/namespaces/inkscape"
   version="1.1"
   id="svg2"
   width="400.01562"
   height="400.01562"
   viewBox="0 0 400.01562 400.01562"
   sodipodi:docname="oshpark-logo.svg"
   inkscape:version="1.0.1 (3bc2e813f5, 2020-09-07)">
  <sodipodi:namedview
     pagecolor="#ffffff"
     bordercolor="#666666"
     borderopacity="1"
     objecttolerance="10"
     gridtolerance="10"
     guidetolerance="10"
     inkscape:pageopacity="0"
     inkscape:pageshadow="2"
     inkscape:window-width="1920"
     inkscape:window-height="1004"
     id="namedview7"
     showgrid="false"
     inkscape:zoom="1.5062309"
     inkscape:cx="171.8834"
     inkscape:cy="197.7858"
     inkscape:window-x="0"
     inkscape:window-y="25"
     inkscape:window-maximized="1"
     inkscape:current-layer="svg2"
     inkscape:document-rotation="0" />
  <metadata
     id="metadata8">
    <rdf:RDF>
      <cc:Work
         rdf:about="">
        <dc:format>image/svg+xml</dc:format>
        <dc:type
           rdf:resource="http://purl.org/dc/dcmitype/StillImage" />
        <dc:title></dc:title>
      </cc:Work>
    </rdf:RDF>
  </metadata>
  <defs
     id="defs6" />
  <g
     id="g835"
     transform="translate(0,0.04636681)">
    <g
       id="g10"
       transform="translate(441.81139,-130.1315)"
       style="fill:none;fill-opacity:1;stroke:none;stroke-opacity:1">
      <path
         style="fill:none;fill-opacity:1;stroke:none;stroke-opacity:1"
         d="m -263.72587,529.34475 c -0.78918,-0.51082 -4.16418,-1.22921 -7.5,-1.59641 -12.11229,-1.33331 -32.74673,-6.81416 -45.06514,-11.97005 -11.16489,-4.67309 -30.50639,-14.85586 -35,-18.42654 -1.1,-0.87408 -3.125,-2.21723 -4.5,-2.98479 -3.48948,-1.94791 -16.08741,-12.35562 -24.33527,-20.10444 -18.25782,-17.15314 -35.67171,-43.15032 -46.55372,-69.5 -4.76292,-11.53293 -11.08902,-35.1918 -11.13487,-41.64308 -0.0335,-4.71806 -1.67063,-11.25508 -2.92323,-11.67262 -1.34888,-0.44962 -1.46782,-40.1843 -0.1203,-40.1843 1.2996,0 1.83212,-2.15906 3.08307,-12.5 0.99025,-8.18594 1.73262,-11.63706 5.16264,-24 1.95747,-7.05537 5.51046,-16.79414 8.93834,-24.5 7.09443,-15.94825 16.86121,-31.93604 27.02578,-44.24004 12.67741,-15.34573 28.164,-29.69642 41.85756,-38.78743 4.125,-2.73854 8.07873,-5.46057 8.78606,-6.04895 0.70732,-0.58839 7.45732,-4.1494 14.99999,-7.91336 22.854,-11.40466 44.29207,-17.63148 67.47309,-19.59798 3.79214,-0.32169 7.38222,-1.19646 8.17858,-1.99281 2.14279,-2.1428 24.39414,-2.03163 25.9746,0.12977 0.8345,1.14125 4.15517,1.7786 12.61024,2.42035 6.31259,0.47913 14.40244,1.61831 17.97744,2.53151 10.99702,2.8091 17.35643,4.68184 20.78393,6.12052 1.80616,0.75813 4.08265,1.37842 5.05887,1.37842 0.97622,0 2.64845,0.66069 3.71607,1.4682 1.06762,0.8075 2.52553,1.4825 3.2398,1.5 1.12436,0.0275 5.4635,2.10527 25.45133,12.187 2.0625,1.04031 3.75,2.33097 3.75,2.86814 0,0.53716 0.87344,0.97666 1.94098,0.97666 1.06754,0 2.19172,0.4057 2.49817,0.90155 0.30646,0.49585 2.92051,2.4734 5.80902,4.39455 2.88851,1.92115 6.41042,4.55296 7.82648,5.84845 1.41605,1.2955 4.74513,4.15545 7.39794,6.35545 6.68993,5.54802 18.520512,17.11522 18.560302,18.1471 0.0181,0.4691 1.83597,2.6529 4.03973,4.8529 3.42361,3.41777 11.01767,13.55905 14.44781,19.29393 0.56124,0.93834 2.13624,3.52312 3.5,5.74395 1.36376,2.22084 3.02041,4.92084 3.68145,6 10.17363,16.60891 20.56026,48.16291 22.34571,67.88508 0.49408,5.45763 1.3605,10.38513 1.92537,10.95 1.36105,1.36105 1.36402,33.12886 0.003,35.67132 -0.56303,1.05204 -1.42511,6.08495 -1.91574,11.18426 -1.20742,12.54947 -6.85304,33.79877 -12.55931,47.27146 -5.9356,14.01415 -21.03101,40.02885 -26.26553,45.26473 -0.95465,0.9549 -3.82283,4.43597 -6.37374,7.73572 -10.714822,13.86024 -31.370792,31.02087 -50.861982,42.25528 -22.9372,13.22063 -41.62674,19.91643 -69.51695,24.90546 -10.28967,1.84063 -51.09275,2.92609 -53.41791,1.42104 z m 31.72004,-22.81215 c 6.46065,-4.11681 9.96632,-10.32311 13.70913,-24.27008 0.95939,-3.575 2.32822,-8.525 3.04186,-11 0.71364,-2.475 1.58097,-6.19091 1.92741,-8.25757 0.75928,-4.52949 3.38022,-6.48515 9.88639,-7.37692 l 4.72004,-0.64695 13.715,13.44458 c 7.54324,7.39451 15.64135,14.43284 17.99578,15.64072 8.54874,4.38569 18.16704,2.28399 23.45132,-5.12436 1.96237,-2.75118 2.263,-4.39192 2.23156,-12.1795 -0.0217,-5.38035 -0.67754,-11.01092 -1.63067,-14 -0.87689,-2.75 -2.34966,-7.925 -3.27282,-11.5 -0.92316,-3.575 -2.27692,-8.33588 -3.00834,-10.57974 l -1.32987,-4.07974 4.47561,-4.67026 c 4.95571,-5.17124 5.38915,-5.29256 11.51747,-3.22371 2.35672,0.7956 6.08495,1.88801 8.28495,2.42758 2.2,0.53957 8.39999,2.13863 13.77776,3.55346 11.68748,3.07483 15.471202,3.19329 21.027102,0.65829 5.37775,-2.4537 8.24321,-5.55353 10.16268,-10.99387 1.26476,-3.58472 1.32449,-5.07676 0.33911,-8.47153 -1.96179,-6.75867 -5.49177,-11.45663 -18.72544,-24.92124 -6.919672,-7.04041 -12.735022,-12.96922 -12.923012,-13.17513 -0.18799,-0.20591 0.1339,-1.87057 0.71532,-3.69924 0.58141,-1.82868 1.30629,-4.56237 1.61085,-6.07487 0.33416,-1.65952 1.20527,-2.75 2.19679,-2.75 0.90368,0 4.15761,-0.70698 7.23095,-1.57106 3.073342,-0.86408 7.953452,-2.20507 10.844692,-2.97998 17.29327,-4.63492 23.3161,-7.37002 27.69893,-12.57871 7.1216,-8.46354 5.14831,-18.31894 -5.15788,-25.76054 -4.71307,-3.40308 -11.80227,-5.81188 -32.862362,-11.16613 l -9.06451,-2.30453 -1.02881,-4.06953 c -0.56584,-2.23823 -1.3805,-4.87798 -1.81035,-5.86609 -0.62237,-1.43068 2.07758,-4.68926 13.257102,-16 14.06758,-14.23271 17.79831,-19.385 18.88489,-26.08078 1.56044,-9.61586 -8.45462,-19.58156 -19.67381,-19.57683 -4.431832,0.002 -5.569572,0.22562 -17.500002,3.44169 -3.3,0.88958 -8.025,2.04592 -10.5,2.56964 -2.475,0.52373 -6.19661,1.62512 -8.27024,2.44754 -2.07363,0.82242 -3.97822,1.49531 -4.23244,1.49531 -1.47907,0 -9.59473,-9.03338 -8.99193,-10.00873 0.39194,-0.63416 1.28751,-3.47913 1.99017,-6.32215 0.70266,-2.84302 2.5222,-9.66912 4.04342,-15.16912 3.70561,-13.39764 3.95053,-24.40864 0.66061,-29.69959 -4.89433,-7.87124 -16.07288,-10.74494 -24.27242,-6.23977 -1.88494,1.03567 -9.81575,8.16601 -17.62403,15.84521 l -14.19685,13.96218 -5.25692,-1.21344 c -6.09357,-1.40657 -8.84937,-3.51627 -8.84937,-6.77463 0,-1.27054 -0.60591,-4.23829 -1.34647,-6.59501 -0.74056,-2.35673 -2.35553,-8.10995 -3.58881,-12.78495 -3.10455,-11.76837 -6.54725,-18.44208 -11.68555,-22.65252 -3.91118,-3.20492 -4.91995,-3.54748 -10.44671,-3.54748 -5.27896,0 -6.61881,0.40399 -9.77497,2.94736 -6.28619,5.06568 -9.60299,11.71143 -13.10233,26.25264 -2.89602,12.03416 -5.04608,19.28413 -6.09304,20.54564 -0.66097,0.79643 -3.48793,2.12696 -6.28211,2.95675 l -5.08035,1.5087 -13.54983,-13.32953 c -15.8998,-15.64127 -20.52171,-18.68156 -28.40016,-18.68156 -4.66007,0 -6.15122,0.49734 -9.82193,3.27585 -3.43757,2.60205 -4.71742,4.47059 -6.22224,9.08426 -1.71776,5.26652 -1.77226,6.47692 -0.58412,12.97415 0.72071,3.94116 1.74331,8.29074 2.27244,9.66574 0.52914,1.375 1.29737,4.075 1.70718,6 0.40982,1.925 1.72408,7.06071 2.92059,11.4127 l 2.17546,7.9127 -4.29852,4.40268 c -4.78851,4.90454 -4.32552,4.86364 -16.79853,1.48395 -19.96516,-5.40977 -23.73622,-6.21203 -29.1998,-6.21203 -9.23075,0 -14.98906,3.59792 -18.20061,11.37212 -2.16147,5.23227 -2.03662,6.81668 1.05897,13.43981 1.98728,4.25183 6.18287,9.28018 16.61616,19.91419 10.91023,11.12014 13.79571,14.61342 13.21615,16 -0.40779,0.97564 -1.07789,3.47922 -1.48913,5.56352 -0.90203,4.57193 -0.98174,4.66059 -5.17251,5.75336 -1.83108,0.47747 -5.80423,1.51342 -8.82923,2.30212 -29.01036,7.56381 -33.70848,10.08775 -37.56256,20.17952 -1.52415,3.99092 -1.57123,5.03995 -0.3872,8.62758 3.25067,9.84963 8.43918,12.9501 32.44976,19.3908 2.75,0.73767 7.925,2.12363 11.5,3.07991 3.575,0.95628 6.66966,1.86449 6.87703,2.01824 0.20736,0.15375 0.73494,1.98489 1.17239,4.06919 0.43746,2.0843 1.10718,4.79986 1.48828,6.03457 0.58955,1.91005 -1.07712,3.99903 -11.17239,14.00336 -14.03584,13.9094 -17.45088,18.12793 -19.8625,24.5357 -1.60614,4.26761 -1.65079,5.2376 -0.41359,8.98634 2.03486,6.1657 5.96998,10.08504 12.27865,12.22942 5.8404,1.98521 8.40316,1.7722 21.63213,-1.79806 3.025,-0.8164 10.1587,-2.71864 15.85266,-4.22721 l 10.35265,-2.74285 4.52361,4.52361 4.52361,4.52361 -1.23797,5.36058 c -1.45609,6.30501 -3.46308,13.4066 -5.75413,20.36057 -1.04696,3.17783 -1.66791,8.52277 -1.70386,14.66642 -0.0485,8.29283 0.2407,10.06908 2.03538,12.5 5.78666,7.83813 15.42955,9.69171 24.22998,4.65756 2.57294,-1.47181 10.75998,-8.65894 18.19343,-15.97139 l 13.51536,-13.29536 5.47901,1.44534 c 6.10004,1.60916 7.68893,3.17319 8.55505,8.42116 0.32462,1.96695 1.2006,5.60127 1.94664,8.07627 0.74603,2.475 2.09042,7.425 2.98754,11 2.50922,9.99915 7.19452,18.76541 11.82063,22.11655 3.21398,2.3282 5.01748,2.88345 9.36563,2.88345 3.39201,0 6.38995,-0.64027 8.09996,-1.72992 z m -23.28518,-87.7313 c -7.95727,-1.37481 -17.47422,-4.56818 -26.5,-8.89195 -5.04627,-2.4174 -6.59215,-3.44891 -15.49697,-10.3406 -8.71359,-6.7437 -9.83974,-7.87639 -16.70905,-16.80623 -6.34833,-8.25258 -10.9485,-17.19171 -14.9237,-29 -3.32644,-9.88115 -3.36647,-10.21392 -3.36836,-28 -0.002,-17.60927 0.86836,-23.95178 4.52785,-33 12.85154,-31.77593 35.68608,-51.85003 68.47023,-60.19295 10.30044,-2.62126 32.33155,-2.3603 42.5,0.50342 11.15539,3.14166 16.17655,5.04772 22,8.35132 0.825,0.46802 2.175,1.13436 3,1.48075 4.07993,1.71307 13.26769,8.58134 19.87134,14.85475 9.07392,8.62014 17.30344,20.85484 21.86256,32.50271 4.32772,11.05667 5.42645,16.80419 5.92616,31 0.6882,19.55073 -1.52459,31.53349 -8.18636,44.33104 -0.81054,1.55707 -1.4737,3.2402 -1.4737,3.74028 0,1.24625 -8.35556,13.36476 -13.26016,19.23192 -2.20837,2.64178 -7.66713,7.59178 -12.13056,11 -9.21569,7.03697 -10.38044,7.79281 -16.60928,10.77823 -2.475,1.18625 -5.3218,2.57843 -6.32623,3.09375 -3.4898,1.79043 -14.21565,4.67556 -21.36532,5.74703 -9.03821,1.3545 -22.70276,1.18976 -31.80845,-0.38347 z"
         id="path837" />
    </g>
    <path
       style="fill:#ffffff;fill-opacity:1;stroke:none;stroke-width:0.663909;stroke-opacity:1"
       d="m 195.22505,376.52623 c -6.69344,-3.58973 -11.19378,-11.67421 -15.60502,-28.03312 -1.62466,-6.02498 -3.31713,-12.54046 -3.76103,-14.47885 -1.18861,-5.19018 -2.99741,-6.94633 -8.98559,-8.72402 l -5.0696,-1.505 -2.40923,2.22933 c -1.32508,1.22613 -7.06401,6.7107 -12.75318,12.18795 -11.86397,11.42205 -16.48971,15.15892 -20.52868,16.58395 -3.30417,1.16578 -7.93802,1.29769 -11.43792,0.3256 -2.95832,-0.82167 -8.69548,-5.83262 -9.83917,-8.59374 -1.36321,-3.29108 -0.50792,-21.14805 1.27278,-26.5733 0.77902,-2.37348 2.59833,-8.79331 4.0429,-14.2663 l 2.6265,-9.95089 -4.45473,-4.48913 c -2.45009,-2.46902 -4.7932,-4.48912 -5.2069,-4.48912 -0.41369,0 -8.531318,2.06587 -18.03916,4.59082 -9.507843,2.52495 -18.887044,4.78509 -20.842668,5.02252 -7.500776,0.91068 -16.119174,-3.60634 -19.434236,-10.18573 -2.404849,-4.7729 -2.614423,-6.75769 -1.152685,-10.9166 2.105525,-5.99059 5.53488,-10.39821 18.342108,-23.5744 6.669632,-6.86178 12.327704,-13.10957 12.573493,-13.88399 0.455422,-1.43491 -1.730348,-11.216 -2.718443,-12.16474 -0.298857,-0.28696 -6.667934,-2.17865 -14.153506,-4.20377 -22.572906,-6.10678 -27.959923,-8.32126 -32.33583,-13.29255 -2.49441,-2.83381 -4.843065,-8.26129 -4.843065,-11.19181 0,-2.60326 4.525717,-10.86352 6.975967,-12.73241 4.856855,-3.70451 12.647343,-6.46711 33.854427,-12.00521 5.112098,-1.33499 9.687151,-2.80399 10.166786,-3.26444 0.479634,-0.46046 1.4653,-3.15293 2.190368,-5.98328 1.204763,-4.70288 1.229331,-5.28188 0.285251,-6.72273 -0.56818,-0.86715 -5.783071,-6.58826 -11.588646,-12.71356 -12.782468,-13.48645 -15.374805,-16.6847 -17.969725,-22.16991 -2.490568,-5.26462 -2.505274,-7.17601 -0.09389,-12.20383 3.736872,-7.79151 8.308468,-10.501694 17.673767,-10.477568 5.126004,0.01321 8.220317,0.5937 21.772962,4.084638 8.688783,2.23809 16.859705,4.06925 18.157605,4.06925 1.98024,0 3.01416,-0.63242 6.42762,-3.93161 l 4.06778,-3.931605 -3.25009,-12.500136 c -1.78755,-6.875073 -3.81458,-14.591448 -4.50452,-17.147497 -0.68994,-2.556049 -1.43037,-6.824408 -1.64539,-9.485244 -1.15908,-14.343348 9.23464,-24.199649 21.83008,-20.701315 4.48979,1.247023 10.64864,6.129791 23.59086,18.70296 7.06517,6.863704 13.10729,12.479462 13.42693,12.479462 1.36282,0 10.3031,-3.339803 11.0355,-4.122513 1.06357,-1.136622 3.01342,-7.376792 5.97258,-19.114296 4.29256,-17.026399 7.60796,-23.571899 14.50567,-28.638062 2.37663,-1.745571 3.05814,-1.90154 8.29886,-1.899263 6.4735,0.0028 8.08399,0.68445 12.51682,5.297712 5.06467,5.270809 8.60905,14.935551 14.80641,40.373818 0.84792,3.480483 2.88099,4.880035 9.41502,6.481285 l 4.60981,1.129692 3.7578,-3.587936 c 2.06679,-1.973365 7.94043,-7.625185 13.05252,-12.5596 5.1121,-4.934415 10.70081,-10.106006 12.41936,-11.492422 3.27023,-2.63821 7.87908,-4.399948 11.51064,-4.399948 6.41938,0 13.85596,4.859583 16.02025,10.468751 1.83586,4.757988 1.54665,14.467064 -0.70664,23.722554 -1.72152,7.071181 -6.15961,23.549424 -6.77331,25.148721 -0.32169,0.838304 4.69638,7.062652 7.42301,9.207432 1.62549,1.27861 1.66014,1.27637 6.43099,-0.41539 2.63818,-0.93552 11.04234,-3.24061 18.67592,-5.12243 11.72039,-2.889307 14.56023,-3.372612 18.25749,-3.107195 5.07481,0.364314 9.16602,2.181326 12.89935,5.728945 6.64372,6.31323 7.1945,13.72265 1.63855,22.04275 -1.48255,2.22015 -8.15028,9.79823 -14.81717,16.84019 -6.66689,7.04196 -12.4768,13.46724 -12.91093,14.2784 -0.64381,1.20297 -0.50791,2.48516 0.7372,6.95576 l 1.5265,5.48093 12.20556,3.1715 c 20.7318,5.38696 26.99188,7.77939 32.08393,12.26159 6.65483,5.85783 8.45703,13.27882 4.83907,19.92619 -2.40563,4.41994 -5.35418,6.98658 -11.21642,9.76364 -4.44287,2.10468 -25.59198,8.4866 -33.67684,10.16227 -2.07155,0.42935 -4.04417,1.13767 -4.3836,1.57405 -0.33942,0.43638 -1.22164,3.24713 -1.96049,6.24613 l -1.34334,5.45272 11.87443,12.31357 c 6.53093,6.77246 13.19735,14.11063 14.81426,16.30704 3.14404,4.27088 5.67833,10.1449 5.67833,13.16133 0,5.56486 -4.44335,12.19366 -10.19907,15.21549 -5.44864,2.86059 -10.9786,2.51432 -26.97982,-1.68938 -7.12043,-1.87062 -14.29064,-3.88231 -15.93382,-4.47042 -1.64317,-0.58811 -4.1392,-1.08832 -5.54672,-1.11158 -2.29081,-0.0378 -3.02731,0.42229 -7.02409,4.38845 l -4.46495,4.43074 4.26362,14.73586 c 3.97101,13.7246 4.28808,15.31242 4.62025,23.13709 0.44904,10.57798 0.10831,12.32175 -3.12549,15.99554 -3.70422,4.20821 -8.27174,6.06335 -13.93148,5.6584 -7.13049,-0.51019 -9.66821,-2.31669 -28.40669,-20.22164 l -11.45735,-10.94769 -4.63021,0.78098 c -6.464,1.0903 -8.73345,2.77235 -9.89011,7.33029 -3.70369,14.59476 -7.72572,28.03202 -9.61342,32.11771 -2.65332,5.74274 -6.09562,9.76104 -9.96759,11.63543 -3.66779,1.77554 -10.45003,1.86927 -13.58543,0.18774 z m 22.67285,-87.16724 c 18.75597,-2.78969 34.26286,-10.31006 51.20759,-24.83415 2.11964,-1.81684 5.71224,-5.70071 7.98356,-8.63082 4.43815,-5.72543 10.9784,-15.26673 10.9784,-16.01594 0,-0.25182 1.30809,-3.32759 2.90686,-6.83505 5.13502,-11.26539 7.04137,-21.00746 7.04785,-36.01677 0.01,-22.62637 -3.89015,-36.86741 -14.54752,-53.12194 -12.88693,-19.65504 -31.78362,-33.59859 -54.20644,-39.99802 -13.08085,-3.73325 -31.0288,-4.677499 -43.91055,-2.31014 -17.23309,3.16702 -36.2004,13.27806 -48.99804,26.11973 -8.06565,8.0934 -13.61535,16.08284 -19.27198,27.74422 -6.67614,13.76316 -7.10946,15.97051 -7.45057,37.95345 -0.33053,21.30189 -0.17308,22.39292 5.24234,36.32623 4.7989,12.34706 12.17273,23.92667 20.64506,32.42031 5.98233,5.99738 18.92472,15.29207 25.73215,18.47978 7.85661,3.67901 18.04662,7.03123 24.56888,8.08245 2.73862,0.4414 5.42745,0.89034 5.97518,0.99766 2.69462,0.52794 21.90742,0.26217 26.09723,-0.361 z"
       id="path832" />
  </g>
</svg>
