<?xml version="1.0" encoding="UTF-8" standalone="no"?>
<svg
   xmlns:dc="http://purl.org/dc/elements/1.1/"
   xmlns:cc="http://creativecommons.org/ns#"
   xmlns:rdf="http://www.w3.org/1999/02/22-rdf-syntax-ns#"
   xmlns:svg="http://www.w3.org/2000/svg"
   xmlns="http://www.w3.org/2000/svg"
   xmlns:sodipodi="http://sodipodi.sourceforge.net/DTD/sodipodi-0.dtd"
   xmlns:inkscape="http://www.inkscape.org/namespaces/inkscape"
   viewBox="0 0 100 100"
   version="1.1"
   id="svg30"
   sodipodi:docname="raspberry_pi_logo.svg"
   width="100"
   height="100"
   inkscape:version="0.92.3 (2405546, 2018-03-11)">
  <metadata
     id="metadata36">
    <rdf:RDF>
      <cc:Work
         rdf:about="">
        <dc:format>image/svg+xml</dc:format>
        <dc:type
           rdf:resource="http://purl.org/dc/dcmitype/StillImage" />
        <dc:title></dc:title>
      </cc:Work>
    </rdf:RDF>
  </metadata>
  <defs
     id="defs34" />
  <sodipodi:namedview
     pagecolor="#ffffff"
     bordercolor="#666666"
     borderopacity="1"
     objecttolerance="10"
     gridtolerance="10"
     guidetolerance="10"
     inkscape:pageopacity="0"
     inkscape:pageshadow="2"
     inkscape:window-width="1366"
     inkscape:window-height="721"
     id="namedview32"
     showgrid="false"
     inkscape:zoom="1.8541911"
     inkscape:cx="35.228212"
     inkscape:cy="-19.457074"
     inkscape:window-x="0"
     inkscape:window-y="21"
     inkscape:window-maximized="1"
     inkscape:current-layer="svg30" />
  <path
     d="M 32.141956,0.27413741 C 31.639031,0.28974499 31.097393,0.47552693 30.483095,0.96023468 28.978197,0.37991103 27.519154,0.17831307 26.214354,1.3597483 24.199486,1.098399 23.544723,1.6376889 23.048649,2.2673004 22.60635,2.2581292 19.738846,1.812635 18.423902,3.7741437 15.119379,3.3831203 14.074983,5.7178659 15.258336,7.895035 c -0.674898,1.0448132 -1.37421,2.0769814 0.204099,4.068783 -0.558327,1.109358 -0.212242,2.31279 1.102966,3.769192 -0.347099,1.559508 0.335177,2.659765 1.558952,3.517265 -0.228875,2.134092 1.957062,3.374834 2.609741,3.816994 0.250635,1.243479 0.773,2.416868 3.269783,3.065656 0.411755,1.853123 1.912318,2.173139 3.365385,2.562078 -4.802611,2.791634 -8.92114,6.464669 -8.89321,15.476965 l -0.703467,1.254943 c -5.506843,3.34885 -10.4613333,14.112413 -2.713819,22.861109 0.506066,2.738553 1.35477,4.70562 2.11047,6.88265 1.130244,8.772457 8.506634,12.880147 10.452162,13.365939 2.850969,2.171611 5.887306,4.232195 9.996247,5.675535 3.87341,3.994858 8.069754,5.517404 12.289027,5.514902 0.06186,-3.8e-5 0.124856,6.95e-4 0.186729,0 4.219273,0.0026 8.415478,-1.519905 12.289027,-5.514902 4.108802,-1.44334 7.145278,-3.503924 9.996247,-5.675535 1.945528,-0.485778 9.32189,-4.593482 10.452162,-13.365939 0.755631,-2.17703 1.60439,-4.144097 2.11047,-6.88265 7.747375,-8.749391 2.793024,-19.513649 -2.713958,-22.862498 L 81.52284,44.170745 c 0.02788,-9.011601 -4.090599,-12.684636 -8.89321,-15.476965 1.453067,-0.388855 2.953657,-0.708872 3.365385,-2.562078 2.496769,-0.648899 3.019245,-1.822274 3.269783,-3.065656 0.65279,-0.442062 2.838602,-1.682901 2.609741,-3.816994 1.223747,-0.857583 1.906065,-1.957896 1.558952,-3.517265 1.315208,-1.456402 1.661363,-2.659764 1.102966,-3.769192 C 86.115002,9.9716273 85.414662,8.9394591 84.740723,7.8946459 85.923242,5.7174769 84.87968,3.3827313 81.573907,3.7737546 80.259379,1.8122459 77.392708,2.2577402 76.949437,2.2669113 76.453363,1.6372998 75.798878,1.09801 73.78401,1.3593592 72.47921,0.17792399 71.020167,0.37952195 69.515269,0.9598595 67.72829,-0.45027015 66.545771,0.68009856 65.195114,1.1074868 63.031563,0.40051826 62.536878,1.3688638 61.473862,1.7631943 59.114382,1.2646048 58.397367,2.3501462 57.266262,3.4958418 L 55.950511,3.4697874 C 52.391699,5.5670565 50.623756,9.8376039 49.997063,12.032976 49.370078,9.837187 47.606179,5.5666397 44.048061,3.4697874 l -1.31575,0.026054 C 41.599816,2.3501462 40.882801,1.2646187 38.523321,1.7631943 37.460304,1.3688638 36.967009,0.40051826 34.802068,1.1074868 33.915568,0.82700327 33.100269,0.24395607 32.140219,0.27374833 Z"
     id="path2"
     inkscape:connector-curvature="0"
     style="fill:#000000;stroke-width:0.13895641" />
  <path
     d="m 25.056569,9.5008152 c 9.44181,4.8677818 14.930866,8.8055288 17.937883,12.1592418 -1.539915,6.172166 -9.573541,6.45383 -12.511079,6.280691 0.601458,-0.279956 1.1033,-0.615271 1.281247,-1.130508 -0.737094,-0.523838 -3.350656,-0.05519 -5.175292,-1.080275 0.70091,-0.145209 1.028763,-0.286667 1.356617,-0.803918 -1.723893,-0.549809 -3.580768,-1.023609 -4.672826,-1.934412 0.589356,0.0073 1.139609,0.131841 1.909261,-0.40196 -1.544084,-0.832098 -3.19169,-1.491558 -4.471756,-2.763426 0.798332,-0.01954 1.659,-0.0079 1.909261,-0.301466 -1.413187,-0.875522 -2.605572,-1.849232 -3.592579,-2.914194 1.117209,0.13486 1.588966,0.01873 1.859098,-0.175863 -1.068269,-1.09417 -2.420343,-2.018064 -3.064962,-3.366358 0.829514,0.285903 1.588411,0.395345 2.135482,-0.02512 -0.36301,-0.81894 -1.918293,-1.301966 -2.813728,-3.2157293 0.873258,0.084677 1.799485,0.1905233 1.984714,0 -0.405336,-1.651358 -1.100812,-2.5797258 -1.782949,-3.5415821 1.868963,-0.027791 4.700617,0.00723 4.57236,-0.1507677 L 20.76169,4.9544116 c 1.82561,-0.4915166 3.693601,0.078949 5.049676,0.5024525 0.608893,-0.4804696 -0.01078,-1.0880287 -0.753672,-1.7083301 1.551449,0.2071284 2.95338,0.5638017 4.220523,1.0551516 0.677052,-0.6113109 -0.439644,-1.2226358 -0.979781,-1.8339467 2.396859,0.4547488 3.412352,1.0936842 4.421593,1.7334812 0.732217,-0.701841 0.04192,-1.2983114 -0.452206,-1.9092611 1.807267,0.6693531 2.738136,1.533523 3.718196,2.3865764 0.332272,-0.4484262 0.844146,-0.7770998 0.226109,-1.8590978 1.283152,0.7396233 2.249566,1.6111996 2.964496,2.5876462 0.793914,-0.5055095 0.472994,-1.1968315 0.47733,-1.8339467 1.333509,1.0847633 2.179809,2.2391436 3.215729,3.366358 0.208671,-0.1519349 0.391385,-0.667227 0.552699,-1.482248 3.181407,3.0864998 7.676786,10.8605549 1.155631,13.9428859 C 39.028094,15.324909 32.399873,11.997876 25.054637,9.5020797 Z"
     id="path4"
     inkscape:connector-curvature="0"
     style="fill:#75a928;stroke-width:0.13895641" />
  <path
     d="M 75.154523,9.5008152 C 65.713825,14.369014 60.225047,18.305649 57.21803,21.660057 c 1.539915,6.172166 9.573541,6.45383 12.511079,6.280691 -0.601459,-0.279956 -1.1033,-0.615271 -1.281247,-1.130508 0.737094,-0.523838 3.350656,-0.05519 5.175292,-1.080275 -0.70091,-0.145209 -1.028764,-0.286667 -1.356617,-0.803918 1.723893,-0.549809 3.580767,-1.023609 4.672826,-1.934412 -0.589356,0.0073 -1.139609,0.131841 -1.909261,-0.40196 1.544083,-0.832098 3.19169,-1.491558 4.471756,-2.763426 -0.798332,-0.01954 -1.659001,-0.0079 -1.909261,-0.301466 1.413187,-0.875522 2.605572,-1.849232 3.592579,-2.914194 -1.11721,0.13486 -1.588967,0.01873 -1.859098,-0.175863 1.068269,-1.09417 2.420343,-2.018064 3.064962,-3.366358 -0.829514,0.285903 -1.588411,0.395345 -2.135482,-0.02512 0.363009,-0.81894 1.918293,-1.301966 2.813728,-3.2157293 -0.873258,0.084677 -1.799486,0.1905233 -1.984714,0 0.406072,-1.6520528 1.101576,-2.5804206 1.783644,-3.5422768 -1.868964,-0.027754 -4.700617,0.00727 -4.572361,-0.15074 L 79.451486,4.9537446 C 77.625877,4.462228 75.757886,5.0326941 74.40181,5.4561971 73.792917,4.9757275 74.412593,4.3681684 75.155482,3.747867 73.604034,3.9549954 72.202103,4.3116688 70.934959,4.8030186 70.257908,4.1917077 71.374603,3.5803829 71.914741,2.9690719 69.517882,3.4238207 68.502388,4.0627561 67.493148,4.7025531 66.760931,4.0007121 67.45123,3.4042417 67.945354,2.7932921 66.138087,3.4626451 65.207218,4.326815 64.227158,5.1798684 63.894885,4.7314422 63.383012,4.4027686 64.001048,3.3207706 62.717897,4.0603939 61.751483,4.9319702 61.036552,5.9084169 60.242639,5.4029073 60.563558,4.7115853 60.559223,4.0744702 59.225714,5.1592334 58.379414,6.3136137 57.343494,7.4408281 57.134823,7.2888932 56.952109,6.7736012 56.790795,5.9585801 53.609388,9.0450799 49.114009,16.819135 55.635164,19.901466 61.182165,15.323269 67.809968,11.996514 75.15576,9.500718 Z"
     id="path6"
     inkscape:connector-curvature="0"
     style="fill:#75a928;stroke-width:0.13895641" />
  <path
     d="m 61.539733,72.351598 a 11.309653,10.428874 0 1 1 -22.618993,0 11.309653,10.428874 0 1 1 22.618993,0 z"
     id="path8"
     inkscape:connector-curvature="0"
     style="fill:#bc1142;stroke-width:0.15696201" />
  <path
     d="M 43.686209,42.560031 A 10.143657,11.968271 34.034226 1 1 30.489819,62.529772 10.143657,11.968271 34.034226 1 1 43.686209,42.560031 Z"
     id="path10"
     inkscape:connector-curvature="0"
     style="fill:#bc1142;stroke-width:0.26412475" />
  <path
     d="M 56.334544,42.004205 A 11.968271,10.143657 55.965774 1 0 69.530934,61.973946 11.968271,10.143657 55.965774 1 0 56.334544,42.004205 Z"
     id="path12"
     inkscape:connector-curvature="0"
     style="fill:#bc1142;stroke-width:0.26412475" />
  <path
     d="M 20.265352,47.579596 C 25.324755,46.223382 21.973404,68.5106 17.85682,66.681934 13.328648,63.039886 11.870161,52.373592 20.265352,47.579596 Z"
     id="path14"
     inkscape:connector-curvature="0"
     style="fill:#bc1142;stroke-width:0.13895641" />
  <path
     d="M 78.73404,47.301683 C 73.674082,45.945899 77.025988,68.234077 81.142572,66.405411 85.670744,62.762946 87.129231,52.095679 78.73404,47.301683 Z"
     id="path16"
     inkscape:connector-curvature="0"
     style="fill:#bc1142;stroke-width:0.13895641" />
  <path
     d="M 61.543743,30.70473 C 70.275069,29.230402 77.540405,34.417923 77.247207,43.885857 76.959998,47.515537 58.326902,31.245131 61.543743,30.70473 Z"
     id="path18"
     inkscape:connector-curvature="0"
     style="fill:#bc1142;stroke-width:0.13895641" />
  <path
     d="M 37.419521,30.426817 C 28.6875,28.952489 21.422859,34.141122 21.716057,43.608222 22.00328,47.237763 40.636362,30.967357 37.419521,30.426817 Z"
     id="path20"
     inkscape:connector-curvature="0"
     style="fill:#bc1142;stroke-width:0.13895641" />
  <path
     d="m 49.961726,28.218799 c -5.211282,-0.135549 -10.212601,3.867713 -10.22469,6.189675 -0.01454,2.821371 4.120196,5.710136 10.260124,5.783366 6.27013,0.04491 10.271102,-2.312235 10.291251,-5.223928 0.0229,-3.298825 -5.702632,-6.80011 -10.326824,-6.749251 z"
     id="path22"
     inkscape:connector-curvature="0"
     style="fill:#bc1142;stroke-width:0.13895641" />
  <path
     d="m 50.279936,86.07469 c 4.543458,-0.198304 10.640032,1.463489 10.651982,3.667894 0.07541,2.140623 -5.529076,6.97714 -10.953378,6.883622 -5.617591,0.242326 -11.126101,-4.60168 -11.053982,-6.28069 -0.08408,-2.461752 6.840268,-4.383797 11.355378,-4.270826 z"
     id="path24"
     inkscape:connector-curvature="0"
     style="fill:#bc1142;stroke-width:0.13895641" />
  <path
     d="m 33.498171,73.010009 c 3.234766,3.897171 4.709371,10.74397 2.009865,12.762312 -2.55388,1.540749 -8.755921,0.906218 -13.164174,-5.426526 -2.972973,-5.313971 -2.58987,-10.721459 -0.502453,-12.310009 3.121517,-1.901479 7.944555,0.666852 11.656915,4.974223 z"
     id="path26"
     inkscape:connector-curvature="0"
     style="fill:#bc1142;stroke-width:0.13895641" />
  <path
     d="m 66.414165,71.774686 c -3.499895,4.099492 -5.448759,11.576459 -2.895573,13.984573 2.441186,1.870909 8.994509,1.609393 13.835333,-5.107481 3.515042,-4.51122 2.337247,-12.04502 0.329438,-14.045714 -2.98256,-2.306955 -7.264224,0.645438 -11.269226,5.167511 z"
     id="path28"
     inkscape:connector-curvature="0"
     style="fill:#bc1142;stroke-width:0.13895641" />
</svg>
