<?xml version="1.0" encoding="UTF-8" standalone="no"?>
<!-- Created with Inkscape (http://www.inkscape.org/) -->

<svg
   xmlns:dc="http://purl.org/dc/elements/1.1/"
   xmlns:cc="http://creativecommons.org/ns#"
   xmlns:rdf="http://www.w3.org/1999/02/22-rdf-syntax-ns#"
   xmlns:svg="http://www.w3.org/2000/svg"
   xmlns="http://www.w3.org/2000/svg"
   xmlns:sodipodi="http://sodipodi.sourceforge.net/DTD/sodipodi-0.dtd"
   xmlns:inkscape="http://www.inkscape.org/namespaces/inkscape"
   width="4.813345mm"
   height="4.8133307mm"
   viewBox="0 0 4.813345 4.8133307"
   version="1.1"
   id="svg2144"
   inkscape:version="0.92.3 (2405546, 2018-03-11)"
   sodipodi:docname="sticks.svg">
  <defs
     id="defs2138" />
  <sodipodi:namedview
     id="base"
     pagecolor="#ffffff"
     bordercolor="#666666"
     borderopacity="1.0"
     inkscape:pageopacity="0.0"
     inkscape:pageshadow="2"
     inkscape:zoom="0.35"
     inkscape:cx="-196.6182"
     inkscape:cy="-156.61821"
     inkscape:document-units="mm"
     inkscape:current-layer="layer1"
     showgrid="false"
     fit-margin-top="0"
     fit-margin-left="0"
     fit-margin-right="0"
     fit-margin-bottom="0"
     inkscape:window-width="1366"
     inkscape:window-height="721"
     inkscape:window-x="0"
     inkscape:window-y="21"
     inkscape:window-maximized="1" />
  <metadata
     id="metadata2141">
    <rdf:RDF>
      <cc:Work
         rdf:about="">
        <dc:format>image/svg+xml</dc:format>
        <dc:type
           rdf:resource="http://purl.org/dc/dcmitype/StillImage" />
        <dc:title></dc:title>
      </cc:Work>
    </rdf:RDF>
  </metadata>
  <g
     inkscape:label="Layer 1"
     inkscape:groupmode="layer"
     id="layer1"
     transform="translate(-10.444518,-108.62905)">
    <path
       style="fill:#ef2929;fill-opacity:1;fill-rule:evenodd;stroke:none;stroke-width:0.02400355px;stroke-linecap:butt;stroke-linejoin:miter;stroke-opacity:1"
       d="m 10.495848,113.20101 c -0.144436,0.14433 0.04717,0.33322 0.190156,0.19016 1.247352,-1.24675 2.494333,-2.49381 3.741367,-3.74087 l 0.695061,-0.79063 c 0,0 0.05728,0 0.09509,-0.0377 0.04548,-0.0464 0.05734,-0.11485 0.01032,-0.16227 -0.02381,-0.0233 -0.05241,-0.0324 -0.08112,-0.03 v 0 c -0.02868,0.003 -0.0571,0.0164 -0.08062,0.0398 -0.03778,0.0397 -0.03823,0.0951 -0.03823,0.0951 l -0.790655,0.69556 c -1.247087,1.24699 -2.494333,2.49383 -3.741367,3.74087 z"
       id="path1936-9"
       inkscape:connector-curvature="0"
       sodipodi:nodetypes="cccccccccccc" />
    <path
       sodipodi:nodetypes="cccccccccccc"
       inkscape:connector-curvature="0"
       id="path2126"
       d="m 15.016479,113.39106 c 0.144329,0.14443 0.333219,-0.0472 0.19016,-0.19016 -1.24675,-1.24735 -2.493811,-2.49433 -3.740871,-3.74136 l -0.79062,-0.69506 c 0,0 0,-0.0573 -0.0377,-0.0951 -0.0464,-0.0455 -0.11486,-0.0573 -0.16227,-0.0103 -0.0233,0.0238 -0.0324,0.0524 -0.03,0.0811 v 0 c 0.003,0.0287 0.0164,0.0571 0.0398,0.0806 0.0397,0.0378 0.0951,0.0382 0.0951,0.0382 l 0.69557,0.79065 c 1.24698,1.24709 2.49383,2.49433 3.74086,3.74137 z"
       style="fill:#ef2929;fill-opacity:1;fill-rule:evenodd;stroke:none;stroke-width:0.02400355px;stroke-linecap:butt;stroke-linejoin:miter;stroke-opacity:1" />
  </g>
</svg>
