<?xml version="1.0" encoding="UTF-8" standalone="no"?>
<svg
   xmlns:dc="http://purl.org/dc/elements/1.1/"
   xmlns:cc="http://creativecommons.org/ns#"
   xmlns:rdf="http://www.w3.org/1999/02/22-rdf-syntax-ns#"
   xmlns:svg="http://www.w3.org/2000/svg"
   xmlns="http://www.w3.org/2000/svg"
   xmlns:sodipodi="http://sodipodi.sourceforge.net/DTD/sodipodi-0.dtd"
   xmlns:inkscape="http://www.inkscape.org/namespaces/inkscape"
   height="100"
   width="100"
   viewBox="0 0 20.48 20.48"
   version="1.1"
   id="svg8"
   sodipodi:docname="thingiverse_logo.svg"
   inkscape:version="0.92.3 (2405546, 2018-03-11)">
  <metadata
     id="metadata14">
    <rdf:RDF>
      <cc:Work
         rdf:about="">
        <dc:format>image/svg+xml</dc:format>
        <dc:type
           rdf:resource="http://purl.org/dc/dcmitype/StillImage" />
        <dc:title></dc:title>
      </cc:Work>
    </rdf:RDF>
  </metadata>
  <defs
     id="defs12" />
  <sodipodi:namedview
     pagecolor="#ffffff"
     bordercolor="#666666"
     borderopacity="1"
     objecttolerance="10"
     gridtolerance="10"
     guidetolerance="10"
     inkscape:pageopacity="0"
     inkscape:pageshadow="2"
     inkscape:window-width="1366"
     inkscape:window-height="721"
     id="namedview10"
     showgrid="false"
     inkscape:zoom="3.6249122"
     inkscape:cx="20.451109"
     inkscape:cy="18.396454"
     inkscape:window-x="0"
     inkscape:window-y="21"
     inkscape:window-maximized="1"
     inkscape:current-layer="svg8" />
  <circle
     cx="256.5524"
     cy="-234.558"
     r="237.714"
     id="circle2"
     style="fill:#2e88ff;fill-opacity:0;fill-rule:evenodd" />
  <g
     id="g845"
     transform="matrix(1.034551,0,0,1.034551,-0.45962806,-0.56003332)">
    <rect
       ry="1.5516735"
       y="0.5439657"
       x="0.44691369"
       height="19.790756"
       width="19.790756"
       id="rect816"
       style="opacity:1;fill:#248bfb;fill-opacity:1;stroke:none;stroke-width:0.00609203;stroke-linecap:round;stroke-linejoin:round;stroke-miterlimit:4;stroke-dasharray:none;stroke-dashoffset:0;stroke-opacity:1;paint-order:normal" />
    <path
       inkscape:connector-curvature="0"
       style="fill:#ffffff;fill-rule:evenodd;stroke-width:0.02677533"
       id="path4"
       d="m 10.342291,17.293829 c -3.7856287,0 -6.8544829,-3.068855 -6.8544829,-6.854485 0,-3.7856303 3.0688542,-6.8544848 6.8544829,-6.8544848 3.785633,0 6.854487,3.0688545 6.854487,6.8544848 0,3.78563 -3.068854,6.854485 -6.854487,6.854485 z m 0,-0.979202 c 3.244824,0 5.875285,-2.63046 5.875285,-5.875283 0,-3.2448227 -2.630461,-5.8752848 -5.875285,-5.8752848 -3.2448215,0 -5.8752848,2.6304621 -5.8752848,5.8752848 0,3.244823 2.6304633,5.875283 5.8752848,5.875283 z M 11.218434,9.0993727 V 14.974631 H 9.4661485 V 9.0993727 H 6.9923763 V 7.3470612 h 6.6998597 v 1.7522845 z" />
  </g>
</svg>
