<?xml version="1.0" encoding="UTF-8" standalone="no"?>
<svg
   xmlns:dc="http://purl.org/dc/elements/1.1/"
   xmlns:cc="http://creativecommons.org/ns#"
   xmlns:rdf="http://www.w3.org/1999/02/22-rdf-syntax-ns#"
   xmlns:svg="http://www.w3.org/2000/svg"
   xmlns="http://www.w3.org/2000/svg"
   xmlns:sodipodi="http://sodipodi.sourceforge.net/DTD/sodipodi-0.dtd"
   xmlns:inkscape="http://www.inkscape.org/namespaces/inkscape"
   height="2500"
   width="2500"
   viewBox="0 0 512 512"
   version="1.1"
   id="svg8"
   sodipodi:docname="thingiverse-logo.svg"
   inkscape:version="1.0.1 (3bc2e813f5, 2020-09-07)">
  <metadata
     id="metadata14">
    <rdf:RDF>
      <cc:Work
         rdf:about="">
        <dc:format>image/svg+xml</dc:format>
        <dc:type
           rdf:resource="http://purl.org/dc/dcmitype/StillImage" />
      </cc:Work>
    </rdf:RDF>
  </metadata>
  <defs
     id="defs12" />
  <sodipodi:namedview
     pagecolor="#ffffff"
     bordercolor="#666666"
     borderopacity="1"
     objecttolerance="10"
     gridtolerance="10"
     guidetolerance="10"
     inkscape:pageopacity="0"
     inkscape:pageshadow="2"
     inkscape:window-width="1920"
     inkscape:window-height="1004"
     id="namedview10"
     showgrid="false"
     inkscape:zoom="0.3204"
     inkscape:cx="1250"
     inkscape:cy="1364.4097"
     inkscape:window-x="0"
     inkscape:window-y="25"
     inkscape:window-maximized="1"
     inkscape:current-layer="svg8" />
  <circle
     cx="256.5524"
     cy="256.96201"
     fill="#2e88ff"
     r="237.714"
     id="circle2"
     style="fill:#2e88ff;fill-opacity:0;fill-rule:evenodd" />
  <path
     d="M 256,512 C 114.615,512 0,397.385 0,256 0,114.615 114.615,0 256,0 397.385,0 512,114.615 512,256 512,397.385 397.385,512 256,512 Z m 0,-36.571 C 377.187,475.429 475.429,377.187 475.429,256 475.429,134.813 377.187,36.571 256,36.571 134.813,36.571 36.571,134.813 36.571,256 36.571,377.187 134.813,475.429 256,475.429 Z M 288.722,205.955 V 425.383 H 223.278 V 205.955 h -92.39 V 140.51 h 250.225 v 65.444 z"
     fill="#ffffff"
     id="path4"
     style="fill-rule:evenodd" />
</svg>
