<?xml version="1.0" encoding="UTF-8" standalone="no"?>
<!-- Generator: Adobe Illustrator 21.1.0, SVG Export Plug-In . SVG Version: 6.00 Build 0)  -->

<svg
   xmlns:dc="http://purl.org/dc/elements/1.1/"
   xmlns:cc="http://creativecommons.org/ns#"
   xmlns:rdf="http://www.w3.org/1999/02/22-rdf-syntax-ns#"
   xmlns:svg="http://www.w3.org/2000/svg"
   xmlns="http://www.w3.org/2000/svg"
   xmlns:sodipodi="http://sodipodi.sourceforge.net/DTD/sodipodi-0.dtd"
   xmlns:inkscape="http://www.inkscape.org/namespaces/inkscape"
   version="1.1"
   id="Layer_1"
   x="0px"
   y="0px"
   viewBox="0 0 100 100"
   xml:space="preserve"
   inkscape:version="0.92.3 (2405546, 2018-03-11)"
   sodipodi:docname="youtube_logo.svg"
   width="100"
   height="100"><metadata
     id="metadata33"><rdf:RDF><cc:Work
         rdf:about=""><dc:format>image/svg+xml</dc:format><dc:type
           rdf:resource="http://purl.org/dc/dcmitype/StillImage" /><dc:title></dc:title></cc:Work></rdf:RDF></metadata><defs
     id="defs31" /><sodipodi:namedview
     pagecolor="#ffffff"
     bordercolor="#666666"
     borderopacity="1"
     objecttolerance="10"
     gridtolerance="10"
     guidetolerance="10"
     inkscape:pageopacity="0"
     inkscape:pageshadow="2"
     inkscape:window-width="1366"
     inkscape:window-height="721"
     id="namedview29"
     showgrid="false"
     fit-margin-top="0"
     fit-margin-left="0"
     fit-margin-right="0"
     fit-margin-bottom="0"
     inkscape:zoom="5.43557"
     inkscape:cx="44.213918"
     inkscape:cy="26.626658"
     inkscape:window-x="0"
     inkscape:window-y="21"
     inkscape:window-maximized="1"
     inkscape:current-layer="Layer_1" /><style
     type="text/css"
     id="style3">
	.st0{fill:#FF0000;}
	.st1{fill:#FFFFFF;}
	.st2{fill:#282828;}
</style><path
     style="fill:#0e232e;fill-opacity:1;stroke-width:0.81554902"
     inkscape:connector-curvature="0"
     id="path7"
     d="m 97.464742,26.185966 c -1.141768,-4.240854 -4.485519,-7.584605 -8.726374,-8.726373 -7.747715,-2.120428 -38.738577,-2.120428 -38.738577,-2.120428 0,0 -30.990862,0 -38.738577,2.038872 -4.1593002,1.14177 -7.5846059,4.567075 -8.7263745,8.807929 -2.03887246,7.747717 -2.03887246,23.814031 -2.03887246,23.814031 0,0 0,16.147871 2.03887246,23.81403 1.1417686,4.240856 4.4855195,7.584606 8.7263745,8.726375 7.829271,2.120428 38.738577,2.120428 38.738577,2.120428 0,0 30.990862,0 38.738577,-2.038874 4.240855,-1.141768 7.584606,-4.485519 8.726374,-8.726373 2.038873,-7.747715 2.038873,-23.814031 2.038873,-23.814031 0,0 0.08155,-16.147869 -2.038873,-23.895586 z"
     class="st0" /><polygon
     style="fill:#ffffff"
     id="polygon9"
     points="48.6,60.7 80.2,42.5 48.6,24.3 "
     class="st1"
     transform="matrix(0.81554899,0,0,0.81554899,0.49596704,15.339165)" /></svg>