<?xml version="1.0" encoding="UTF-8" standalone="no"?>
<!-- Generator: Adobe Illustrator 21.1.0, SVG Export Plug-In . SVG Version: 6.00 Build 0)  -->

<svg
   xmlns="http://www.w3.org/2000/svg"
   version="1.1"
   id="Layer_1"
   x="0px"
   y="0px"
   viewBox="0 0 100 100"
   width="100"
   height="100">
     <path
     style="fill:#0e232e"
     d="m 97.464742,26.185966 c -1.141768,-4.240854 -4.485519,-7.584605 -8.726374,-8.726373 -7.747715,-2.120428 -38.738577,-2.120428 -38.738577,-2.120428 0,0 -30.990862,0 -38.738577,2.038872 -4.1593002,1.14177 -7.5846059,4.567075 -8.7263745,8.807929 -2.03887246,7.747717 -2.03887246,23.814031 -2.03887246,23.814031 0,0 0,16.147871 2.03887246,23.81403 1.1417686,4.240856 4.4855195,7.584606 8.7263745,8.726375 7.829271,2.120428 38.738577,2.120428 38.738577,2.120428 0,0 30.990862,0 38.738577,-2.038874 4.240855,-1.141768 7.584606,-4.485519 8.726374,-8.726373 2.038873,-7.747715 2.038873,-23.814031 2.038873,-23.814031 0,0 0.08155,-16.147869 -2.038873,-23.895586 z" /><polygon
     style="fill:#ffffff"
     points="48.6,60.7 80.2,42.5 48.6,24.3 "
     transform="matrix(0.81554899,0,0,0.81554899,0.49596704,15.339165)" /></svg>
